<svg width="258" height="238" viewBox="0 0 258 238" fill="none" xmlns="http://www.w3.org/2000/svg"><path d="M1.04 236.438c.254-1.413 1.341-4.701 1.64-6.069 4.852-22.015 17.745-38.32 37.943-51.115.534-.352 1.036-.71 1.57-1.035 1.009-.606 1.947-1.166 2.858-1.719.404-.254.782-.482 1.185-.71.352-.228.71-.43 1.062-.632 5.867-3.438 10.164-5.691 14.436-7.814.228-.104.404-.201.58-.28.253-.123.481-.253.735-.351.306-.15.632-.306.938-.482.078-.026.176-.078.254-.104.456-.228.911-.456 1.393-.684.202-.104.43-.202.632-.325 2.78-1.368 5.815-2.859 9.48-4.754a256.476 256.476 0 003.764-1.973c.15-.078.306-.15.456-.228 1.166-.631 2.403-1.289 3.692-1.999.052-.052 3.894-7.788 9.175-12.183.508-.456 1.29-.254 1.64.326a71.028 71.028 0 001.615 2.604c1.974-2.253 3.517-4.649 4.78-7.201.254-.482.456-1.01.684-1.518a76.417 76.417 0 01-6.772-6.999c-4.474-5.236-7.912-11.604-8.517-18.454-.378-4.298.351-8.595 1.087-12.84.124-.737.254-1.414.378-2.072-1.87-1.367-3.946-3.587-5.763-7.253-3.438-6.974-6.525-13.753-4.5-17.041 1.772-2.859 4.65-1.947 7.202-.124-7.937-15.041-12.665-47.221 6.772-48.36.176-.027.326 0 .508-.027-.078-.176-.15-.325-.202-.534C87.851 12.963 104.762 3.052 122.083.422c14.839-2.227 31.17 4.675 41.484 13.446 16.813 14.306 27.049 36.276 16.631 49.598 1.113-.684 2.403-.781 3.842.15 3.236 2.097 3.158 9.455 1.823 16.507-.755 3.893-2.807 7.533-4.5 10.086 1.492 6.218 2.553 12.313 1.667 19.867-1.341 11.427-6.85 26.013-19.97 34.706.104.43.175.86.306 1.289.175.606.351 1.14.553 1.641.026.078.052.124.078.176.202.508.404.983.658 1.465.026.052.052.078.078.124.833 1.595 1.947 3.06 3.386 4.499.43.43.886.86 1.393 1.264.079-.079.124-.176.202-.254.736-1.036 1.491-2.071 2.201-3.185.58-.911 1.843-1.113 2.657-.351 3.288 3.184 10.62 10.49 10.164 12.385.482.202.938.43 1.413.631a262.472 262.472 0 0110.289 4.474c3.236 1.517 6.296 3.008 9.148 4.525.456.254.912.482 1.368.736.859.482 1.745.964 2.578 1.439.352.202.756.404 1.114.606 1.113.657 2.201 1.289 3.262 1.947 7.358 4.447 13.244 8.946 17.946 13.498a58.35 58.35 0 011.693 1.641c14.892 15.269 21.996 38.548 21.996 41.459-.026 0 .228 2.253.228 2.253l-254.712-.632-.02.026zM177.079 67.321c.228-.456.482-.886.736-1.315-.254.228-.508.456-.756.657 0 .228 0 .456.026.658h-.006z" fill="#F7F6F2"/><path d="M53.282 232.668c.065-.312.13-.625.189-.938.312-1.614.599-3.236.866-4.864.54-3.242.996-6.498 1.374-9.76.377-3.263.677-6.532.898-9.807.222-3.275.358-6.55.417-9.832.058-3.282.039-6.57-.065-9.852-.104-3.288-.287-6.57-.547-9.852a209.044 209.044 0 00-.495-5.313c-3.542 1.92-7.508 4.193-12.743 7.403a116.801 116.801 0 00-8.862 5.997 95.558 95.558 0 00-7.756 6.46 80.194 80.194 0 00-6.622 6.928 72.338 72.338 0 00-5.521 7.436 69.832 69.832 0 00-4.454 7.99 72.558 72.558 0 00-3.412 8.575 76.832 76.832 0 00-1.322 4.526c-.521 2.005-.944 4.037-1.537 6.017-.339 1.126-1.113 3.106-2.644 2.637-.475-.144-.787-.56-.944-1.016-.182-.528-.078-1.218-.013-1.758.072-.528.189-1.055.293-1.576.202-1.022.417-2.045.658-3.067a81.085 81.085 0 012.676-9.057 76.227 76.227 0 013.68-8.511 75.333 75.333 0 014.694-7.977 78.283 78.283 0 015.724-7.455 87.408 87.408 0 016.759-6.955 99.042 99.042 0 017.807-6.466c2.845-2.122 5.795-4.095 8.816-5.964 8.016-4.955 13.35-7.788 18.376-10.314l5.079-2.501a658.692 658.692 0 008.543-4.245c.202-.104.43-.202.632-.326.781-.404 1.595-.807 2.428-1.263a109.776 109.776 0 004.018-2.123c.456-.254.964-.534 1.44-.781.227-.124.35-.202.507-.28 1.035-1.895 4.604-8.263 9.331-12.183a2.855 2.855 0 012.35-.71c1.01.137 1.856.775 2.377 1.771a30.896 30.896 0 003.79-6.824c-1.92-1.843-3.692-3.764-5.307-5.639-4.473-5.235-7.911-11.603-8.517-18.454-.377-4.297.352-8.595 1.088-12.84-2.299-1.517-4.878-4.07-7.079-8.491-3.92-7.912-6.954-14.788-4.42-18.858 1.367-2.2 3.157-2.702 4.447-2.728.052-.026.104-.026.175-.026.938 0 1.824.228 2.729.605-6.955-15.927-10.009-44.265 8.243-45.352.176 0 .352-.026.508-.026a4.085 4.085 0 01-.202-.534C87.838 12.969 104.75 3.059 122.07.428c14.839-2.227 31.17 4.675 41.484 13.446 15.823 13.473 25.864 33.75 18.252 47.17.964-.026 2.071.202 3.262.983 4.78 3.113 3.719 12.893 2.631 18.454-.938 4.903-3.744 9.403-5.613 12.007.052.508.078.983.104 1.465.984 4.955 1.544 10.086.834 16.129-1.289 10.92-6.342 24.75-18.252 33.548.606 3.392 1.934 6.159 4.408 8.751.398-.137.215-.072.612-.208.3-1.693 1.596-2.852 3.146-3.035 1.061-.149 2.122.202 2.93.964 7.657 7.404 10.008 10.718 10.62 12.489.124.052.254.104.378.15.104.052.228.104.325.15 10.822 4.447 19.893 8.92 27.707 13.7l1.087.684c7.684 4.825 13.954 9.708 18.884 14.761 3.639 3.725 6.811 7.886 9.617 12.261 2.624 4.083 4.936 8.368 6.967 12.769 1.628 3.536 3.093 7.157 4.305 10.855a52.288 52.288 0 011.152 3.953c.124.488.234.983.326 1.478.104.566.319 1.465.299 2.149-.045 1.458-1.315 1.986-2.292 1.172-.664-.554-1.146-1.7-1.699-3.432-.626-1.934-1.316-3.874-1.954-5.691a105.376 105.376 0 00-4.766-11.363c-2.234-4.571-4.793-8.985-7.736-13.133-2.097-2.95-4.389-5.77-6.922-8.361-4.447-4.552-10.034-8.947-16.884-13.271-2.807 17.041-3.008 34.303-.521 51.441.293 2.11.684 3.875.684 3.875l-158.282-.261-4.78-.026c.306-1.263.632-2.52.905-3.789l-.006.006zM88.099 79.354c-1.465-1.894-5.307-5.762-7.684-5.762-.377.026-.86.15-1.341.963-1.641 2.631 2.403 10.796 4.578 15.166 1.439 2.93 3.06 4.825 4.525 6.016.482-2.174.912-4.22 1.113-6.902.079-.983.124-1.973.15-2.982a727.03 727.03 0 00-1.341-6.499zm93.33 7.13c1.087-1.999 2.096-4.297 2.552-6.7 1.641-8.57.71-13.472-.964-14.56-.482-.306-.807-.377-1.087-.377-.228 0-.378.052-.534.104-1.289.553-2.455 2.605-3.288 4.65 1.517 6.042 2.604 11.68 3.314 16.883h.007zm-15.068 21.586c1.491.755 2.5 1.491 3.262 2.025 3.061 2.201 6.876-6.322 7.912-14.735.201-1.615.28-3.237.254-4.78-.15-6.244-3.009-22.217-3.009-22.217-.026-.15-.026-.28-.052-.43a55.01 55.01 0 00-1.491-7.631c-.026-.124-.026-.176-.052-.254-4.955-17.796-17.848-29.68-21.768-29.654 7.684 7.586 8.517 13.349 7.182 17.49-12.339-12.033-29.679-16.383-35.39-17.242-15.016-2.227-19.665 1.439-20.173 1.894-.202.404-.351.606-.351.606s-9.253 8.85-5.913 23.76c1.973 8.798-.175 12.77-2.2 17.041-.105.228-.15.326-.228.482-.027.052-.079.15-.105.228-.052.124-.104.28-.175.456-.534 1.517-1.264 4.604-1.01 9.428.176 2.885.71 6.395 1.869 10.595.684 2.552 1.615 5.307 2.832 8.341 2.201 5.509 4.174 9.051 5.991 11.252.078.104.176.202.254.306.912 1.009 2.253 1.393 3.542 1.113a3.103 3.103 0 001.368-.507c5.535-3.517 17.444-9.983 31.6-11.07.228-.026.43-.026.658-.052 10.366-.684 17.086.456 21.488 1.973a25.716 25.716 0 013.718 1.595l-.013-.013zm-29.751 18.402c7.814 1.641 11.805.052 16.409-2.527 3.614-2.025 6.824-7.254 6.974-8.921.052-.709-.86-1.341-1.798-1.061-6.57 2.025-17.086 4.701-29.047 2.429-7.658-1.465-1.895 8.113 7.455 10.086l.007-.006zm13.042 60.322c.157.274.326.521.482.801.28.456.508.912.755 1.368.352.683.71 1.367 1.036 2.044.859 1.719 1.641 3.36 2.324 4.877.632 1.368 1.394 2.983 1.921 3.966 12.561-8.797 23.103-26.241 26.216-34.934.176-.456.306-.86.429-1.264-.149-.377-.755-1.517-3.132-4.173a56.509 56.509 0 00-.709-.782c-1.368-1.491-3.158-3.334-5.561-5.684-.43.657-.86 1.315-1.315 1.947-.71 1.035-1.413 2.025-2.201 2.982-7.358 9.507-16.279 15.797-22.068 17.744-.632.534-3.926 9.207-3.926 13.485 0 0 4.063-.97 5.743-2.383l.006.006zm-17.464-10.04c1.394 5.99 2.273 10.164 2.527 12.665 1.745.104 3.516.104 5.255 0 .377-5.105 2.956-15.98 6.446-17.217 4.578-1.569 13.245-7.182 20.576-16.708-3.008-2.931-4.727-6.017-5.638-9.579-5.132 3.034-11.35 5.209-18.832 6.043-10.314 1.139-21.234-1.693-30.435-6.245-3.132-1.569-6.192-3.718-9.051-6.192a34.77 34.77 0 01-4.603 7.482c9.025 13.172 22.803 21.26 29.275 23.812 1.413.554 3.693 2.175 4.096 4.272l.378 1.667h.006zm-44.812-16.058c1.797 4.324 3.933 8.511 6.316 12.548 4.552 7.736 11.226 16.936 20.629 25.226.176-.43.404-.964.579-1.466.71-1.771 1.693-4.245 3.334-7.13.378-.631 1.771-2.858 2.025-3.314.033-.052.065-.111.098-.169 1.263.403 5.405 2.487 10.243 3.099-.046-.169-2.299-12.541-2.227-12.515l-.254-1.113c-.078-.326-.938-1.166-1.797-1.518-6.753-2.682-20.928-10.998-30.487-24.444a39.239 39.239 0 01-2.123-3.184 5.227 5.227 0 01-.404-.632c-1.393 1.264-2.657 2.781-3.79 4.272-1.263 1.693-2.878 3.399-3.334 5.528-.364 1.706.554 3.262 1.192 4.806v.006z" fill="#264432"/><path d="M123.821 66.207c-4.805-.579-9.578-1.139-16.858 1.798-6.955 2.78-6.727-.026-2.859-3.562 3.79-3.49 7.886-5.463 14.964-4.955 3.288.254 7.052 1.842 7.814 3.314.859 1.595.403 3.816-3.061 3.412v-.007zm40.365-4.499c-6.57-1.491-10.438-.052-14.332 1.44-1.641.605-2.604.123-3.008-.737-.306-.58-.326-1.367-.15-2.07.378-1.57 3.236-3.842 5.913-4.702 5.814-1.842 9.578-.657 13.322 2.025 1.823 1.316 2.93 2.605 2.93 3.465 0 .078 0 .15-.026.227-.202.756-1.595 1.062-4.649.352zm-3.106 10.217c2.025-.15 3.79 1.693 3.972 4.121.176 2.43-1.315 4.526-3.334 4.65-2.025.15-3.816-1.693-3.991-4.122-.176-2.429 1.341-4.526 3.36-4.65h-.007zm-44.545 4.545c2.096-.15 3.972 1.77 4.148 4.297.175 2.527-1.394 4.702-3.491 4.851-2.096.15-3.946-1.77-4.147-4.297-.176-2.527 1.393-4.701 3.49-4.851zm31.756 5.385c.176.228.378.482.606.755.886 1.088 2.123 2.579 2.702 4.552.052.15.104.306.15.481.378 1.316.378 2.729.078 4.018 0 .052-.026.078-.026.124-.352 1.465-1.185 2.858-2.298 3.946-2.026 1.947-4.324 2.728-6.121 3.184a18.792 18.792 0 01-4.396.534c-.553 0-1.113-.026-1.667-.078a1.899 1.899 0 01-1.719-2.07c.079-1.036 1.036-1.824 2.045-1.72 1.615.15 3.236.026 4.806-.352 1.413-.351 3.034-.885 4.421-2.227.605-.605 1.061-1.367 1.263-2.148l.078-.306a4.828 4.828 0 00-.202-2.227c-.201-.684-.553-1.316-.937-1.87-.352-.533-.756-.982-1.114-1.438a9.61 9.61 0 01-.736-.938c-1.92-2.657-3.21-5.99-3.867-9.884-.606-3.36-.71-6.974-.352-10.744.104-1.036 1.035-1.824 2.071-1.693a1.86 1.86 0 011.413.885c.228.326.325.756.28 1.185-.326 3.412-.228 6.675.325 9.735.554 3.288 1.641 6.14 3.184 8.29l.013.006z" fill="#264432"/></svg>