<svg width="164" height="403" viewBox="0 0 164 403" fill="none" xmlns="http://www.w3.org/2000/svg"><path d="M129.029 337.461h-77.12c.02-.132.052-.28.092-.468.023-.109.05-.231.078-.372.085-.419.174-.935.174-1.496 0-.561-.089-1.077-.174-1.496a31.692 31.692 0 00-.078-.371c-.04-.189-.072-.336-.092-.468h77.175c-.017.148-.05.316-.094.542l-.06.313c-.077.414-.16.926-.16 1.48 0 .555.083 1.066.16 1.481l.06.313c.044.225.077.394.094.541l-.055.001zm-77.367-.024l.003.001-.003-.001zm.225.278a.03.03 0 01.001.007v-.007zm.001-5.186v0zm-.223.283l-.003.001.003-.001zm77.635.003l-.002-.001.002.001zm-.204-.247l-.001-.007.001.007zm-.001 5.121v-.006.006zm.203-.252l.002-.001-.002.001z" fill="#F7F6F2" stroke="#264432" stroke-width="2"/><g style="mix-blend-mode:multiply" opacity=".2"><path d="M129.029 337.461h-77.12c.02-.132.052-.28.092-.468.023-.109.05-.231.078-.372.085-.419.174-.935.174-1.496 0-.561-.089-1.077-.174-1.496a31.692 31.692 0 00-.078-.371c-.04-.189-.072-.336-.092-.468h77.175c-.017.148-.05.316-.094.542l-.06.313c-.077.414-.16.926-.16 1.48 0 .555.083 1.066.16 1.481l.06.313c.044.225.077.394.094.541l-.055.001zm-77.367-.024l.003.001-.003-.001zm.225.278a.03.03 0 01.001.007v-.007zm.001-5.186zm-.223.283l-.003.001.003-.001zm77.635.003l-.002-.001.002.001zm-.204-.247l-.001-.007.001.007zm-.001 5.121v-.006.006zm.203-.252l.002-.001-.002.001z" fill="#F7F6F2"/><path d="M129.029 337.461h-77.12c.02-.132.052-.28.092-.468.023-.109.05-.231.078-.372.085-.419.174-.935.174-1.496 0-.561-.089-1.077-.174-1.496a31.692 31.692 0 00-.078-.371c-.04-.189-.072-.336-.092-.468h77.175c-.017.148-.05.316-.094.542l-.06.313c-.077.414-.16.926-.16 1.48 0 .555.083 1.066.16 1.481l.06.313c.044.225.077.394.094.541l-.055.001zm-77.367-.024l.003.001-.003-.001zm.225.278a.03.03 0 01.001.007v-.007zm.001-5.186v0zm-.223.283l-.003.001.003-.001zm77.635.003l-.002-.001.002.001zm-.204-.247l-.001-.007.001.007zm-.001 5.121v-.006.006zm.203-.252l.002-.001-.002.001z" stroke="#264432" stroke-width="2"/></g><path d="M105.359 191.699l-.92.172c-2.466-13.147-.206-26.583 1.999-39.694.457-2.716.911-5.419 1.321-8.102 6.308-41.333 2.558-83.458-2.521-125.243-.378 27.604-4.361 55.102-8.322 82.447a2735.976 2735.976 0 00-2.6 18.227c-3.471 25.112-6.246 50.428-5.55 75.778h0c.112 4.079-.487 9.139-1.105 14.359a339.72 339.72 0 00-.728 6.502c-.742 7.498-.937 14.635 1.134 19.664v.001c.75 1.827 2.015 2.845 3.562 3.296 1.59.463 3.547.342 5.624-.291 4.172-1.272 8.44-4.489 10.462-8.137 3.078-5.553 3.048-12.582 1.748-19.134l-4.104-19.845zm0 0l-.92.172c.635 3.384 1.573 6.681 2.505 9.929m-1.585-10.101l1.585 10.101m0 0l.084.29m-.084-.29l.084.29m0 0c.908 3.162 1.802 6.277 2.435 9.453l-2.435-9.453zm13.1-56.697c1.828-13.203 3.359-26.505 3.769-39.88h.007l.026-.973c.197-7.382.048-14.77-.1-22.128l-.06-2.993c-.161-8.358-.262-16.681.201-24.984.818-14.686 3.542-29.518 10.299-42.345-1.193 8.3-.99 16.684-.232 25.054.466 5.145 1.144 10.297 1.841 15.424l.253 1.861c.615 4.508 1.227 8.994 1.71 13.463a232.667 232.667 0 01-2.652 67.886l.877.165-.877-.165c-.889 4.732-1.928 9.457-2.979 14.197l-.198.893c-.985 4.44-1.974 8.895-2.846 13.359-1.863 9.529-3.211 19.151-2.892 28.921h0c.12 3.668.479 7.36.833 11.011.16 1.649.32 3.289.456 4.916.441 5.265.648 10.45-.071 15.582-.362 2.58-1.889 7.955-4.27 12.611-1.19 2.326-2.562 4.41-4.061 5.872-1.502 1.464-3.025 2.205-4.554 2.111h0c-.464-.028-.897-.257-1.326-.802-.446-.565-.842-1.424-1.17-2.565-.655-2.277-.96-5.389-1.058-8.721-.147-5.029.179-10.334.387-13.711.067-1.1.122-1.995.144-2.61h0c.648-18.306 3.358-36.404 6.076-54.553.842-5.624 1.685-11.254 2.467-16.896h0zM62.292 23.82c-3.53 6.01-5.138 13.172-5.507 20.294l5.507-20.294zm0 0c-1.473 14.898.443 29.733 3.022 44.504.655 3.747 1.35 7.487 2.047 11.224 2.306 12.39 4.605 24.737 5.34 37.164h0c.776 13.1-.18 26.335-1.139 39.609-.314 4.353-.63 8.71-.883 13.068-1.026 17.593-1.053 35.13 4.07 52.062l.957-.29-.957.29c.124.409.249.814.373 1.215.762 2.461 1.483 4.791 1.581 7.209l1-.041-1 .041c.071 1.745-.774 4.558-2.238 6.473-.725.946-1.524 1.573-2.328 1.806-.754.218-1.648.134-2.718-.625-.505-.36-1.096-1.182-1.718-2.457-.603-1.237-1.17-2.756-1.694-4.346-.522-1.586-.991-3.212-1.407-4.66l-.065-.227c-.383-1.338-.727-2.535-1.014-3.343-4.742-13.346-6.446-27.642-6.624-41.821h0c-.156-12.125.757-24.164 1.673-36.258.533-7.032 1.067-14.082 1.394-21.178.822-17.826.31-35.715-1.533-53.462h0c-.142-1.362-.29-2.72-.44-4.077-.793-7.243-1.577-14.405-1.206-21.586l5.507-20.294z" fill="#F7F6F2" stroke="#264432" stroke-width="2"/><path d="M105.062 231.179c-5.184-8.006-5.985-18.523-4.72-28.36.662-5.149 1.807-10.224 2.964-15.351l.195-.865c1.217-5.405 2.418-10.87 3.005-16.443.739-7.013.496-14.045.171-21.016l-.095-2.012c-.301-6.309-.599-12.561-.251-18.793.585-10.445 2.979-20.71 5.393-31.055.282-1.212.565-2.424.845-3.638 1.858-8.052 3.599-16.162 4.333-24.382 4.98 35.086 4.381 70.959-1.801 105.854h0c-.277 1.565-.567 3.139-.858 4.719-2.128 11.567-4.325 23.504-2.22 35.229v.001c.167.921.352 1.814.535 2.692.447 2.154.875 4.214.947 6.351.1 2.959-.626 5.935-2.549 7.859-1.119 1.118-1.406 1.109-1.565 1.092-.158-.017-.385-.093-.839-.306-.124-.058-.265-.127-.423-.203a35.046 35.046 0 00-1.313-.614l-.213.486h-.002l.21-.488-.34-.148-.348-.151-1.061-.458zM46.203 114.987h0c-8.578-12.15-22.759-20.986-37.158-21.285 15.136 3.53 27.985 15.602 34.962 29.64 8.329 16.759 9.775 35.984 9.97 54.477.033 3.223.038 6.439.042 9.65.017 10.896.033 21.727 1.176 32.537m-8.992-105.019L54.2 220.111m-7.997-105.124c10.334 14.633 13.864 33.073 15.084 51.164.428 6.345.605 12.703.784 19.081.076 2.723.152 5.449.248 8.18.32 9.109.857 18.232 2.346 27.271v.001l.094.564c.458 2.74.888 5.315.41 7.81M46.203 114.987l19.449 105.534.1.604c.452 2.696.912 5.443.399 8.121m-10.956-9.24l-.995.105m.995-.105s0 0 0 0l-.995.105m.995-.105c.078.744.11 1.827.144 3.019l.007.235c.038 1.308.084 2.77.195 4.203.111 1.438.286 2.808.57 3.933.296 1.166.666 1.889 1.043 2.223.829.735 1.652 1.015 2.422 1.024.787.009 1.602-.264 2.384-.78 1.59-1.047 2.857-2.974 3.209-4.805M54.2 220.111c.075.704.105 1.751.14 2.968.113 3.929.278 9.628 2.15 11.289 3.977 3.524 8.857-.936 9.66-5.122m-.981-.188l.982.188m-.982-.188v-.001l.982.189" fill="#F7F6F2" stroke="#264432" stroke-width="2"/><path d="M46.126 199.849h0c1.044 5.53 2.637 10.882 4.278 16.395l.032.109v.001l1.35 4.543v.001c.45 1.514.901 3.028 1.35 4.544.227.76.544 1.586.891 2.487.208.539.426 1.105.64 1.7.288.798.566 1.639.764 2.473 3.236-4.08 3.337-10.439 1.455-15.816h0c-1.055-3.016-2.585-5.84-4.222-8.698-.265-.464-.534-.928-.803-1.395-1.381-2.39-2.792-4.831-3.955-7.383v-.001c-2.427-5.328-4.022-11.008-5.13-16.707a365.883 365.883 0 01-.553-2.827 72.2 72.2 0 00.188 2.882l3.715 17.692zm0 0c-.007-.045-.015-.083-.02-.109a1.383 1.383 0 01-.012-.06l-.002-.009-.002-.009c-.434-2.336-1.015-4.613-1.585-6.848-.166-.652-.332-1.301-.492-1.947-.716-2.878-1.346-5.727-1.602-8.71l3.715 17.692zM73.591 97.99c0-28.315 1.51-56.628 4.54-84.782l.082.464c.227 1.28.471 2.545.71 3.785.522 2.703 1.022 5.291 1.278 7.675a809.42 809.42 0 012.261 24.664 811.091 811.091 0 012.267 49.48 820.58 820.58 0 01-.74 49.528c-.063 1.38-.052 3.609-.038 6.315.005 1.022.01 2.112.012 3.25.007 4.178-.032 9.055-.302 13.762-.27 4.719-.768 9.216-1.663 12.654-.448 1.721-.982 3.124-1.603 4.144-.372.611-.752 1.049-1.135 1.343-2.357-5.668-3.25-13.164-3.618-20.959-.189-3.996-.239-8.036-.286-11.912l-.004-.31c-.05-3.961-.1-7.752-.302-11.102v-.001a791.837 791.837 0 01-1.459-47.999zm49.593 108.741l.003.002c-1.721 5.246-2.708 10.715-3.318 16.24l3.315-16.242zm0 0c2.156-6.565 4.847-12.862 7.558-19.203l.027-.063c2.698-6.31 5.416-12.664 7.599-19.298v-.001c3.389-10.313 6.225-21.375 7.757-32.371.231 2.096.449 4.16.6 6.22.387 5.252.343 10.423-.975 15.82-.821 3.357-1.555 6.746-2.288 10.133-1.727 7.976-3.451 15.941-6.311 23.436-.861 2.254-1.882 4.443-2.919 6.667l-.563 1.209c-1.219 2.629-2.419 5.32-3.304 8.145-1.147 3.657-1.725 7.505-2.29 11.264-.136.906-.272 1.807-.414 2.698-.741 4.639-1.675 9.086-3.827 13.113v.001a13.509 13.509 0 01-1.31 2.034c-.481.601-.927.997-1.293 1.181-.32.161-.48.125-.623.031-.233-.151-.616-.595-.996-1.715h0c-.627-1.847-.699-4.022-.534-6.321.105-1.461.295-2.884.481-4.276.111-.831.221-1.651.31-2.462l3.315-16.242z" fill="#F7F6F2" stroke="#264432" stroke-width="2"/><path d="M76.268 100.34c5.775-20.142 10.75-41.032 10.38-62.043 4.381 16.76 4.62 34.145 3.127 51.78-1.063 12.554-2.992 25.149-4.918 37.726-1.21 7.91-2.42 15.813-3.414 23.694l.853.108-.853-.108c-2.586 20.527-2.268 40.654-1.948 60.843.136 8.617.272 17.245.183 25.92-5.17-1.014-9.133-4.36-12.169-9.239-3.262-5.243-5.403-12.186-6.741-19.656-2.676-14.933-2.098-31.663-1.177-40.264l.006-.054v-.005c2.065-19.215 7.568-37.813 13.09-56.472 1.204-4.072 2.41-8.146 3.581-12.23zm75.12-6.475c1.094-1.23 2.19-2.461 3.276-3.701L126.128 195.21c-.016 2.552.016 5.09.048 7.618.087 6.858.173 13.634-.702 20.372l-.111.873c-.3 2.381-.749 5.947-1.674 9.182-.523 1.83-1.182 3.489-2.01 4.741-.829 1.252-1.758 1.997-2.803 2.215h0c-1.283.267-2.282.033-3.105-.484-.852-.535-1.579-1.417-2.195-2.537-1.239-2.253-1.87-5.18-2.243-7.193h0c-2.432-13.102-1.736-27.584-.325-40.88h0c2.863-27.013 11.694-53.4 25.753-76.649 3.889-6.43 8.826-12.082 13.847-17.728l.78-.876z" fill="#F7F6F2" stroke="#264432" stroke-width="2"/><path d="M85.522 237.515h0c.867-1.447.996-3.241 1.132-5.268l-1.132 5.268zm0 0c-.527.88-1.075 1.347-1.55 1.568m1.55-1.568l-1.55 1.568m0 0c-.463.214-.92.227-1.361.085m1.361-.085l-1.361.085m0 0c-.923-.298-1.877-1.334-2.245-2.864m2.245 2.864l-2.245-2.864m0 0c-.406-1.695-.453-3.924-.435-6.327l.014-1.273c.024-1.956.049-3.952-.118-5.644l.54 13.244zm8.625-27.148c-.914 7.659-1.831 15.354-2.337 23.091l-8.42-41.522a333.63 333.63 0 016.254-64.366l-.981-.193.981.193c.204-1.039.41-2.107.62-3.196 1.866-9.704 4.071-21.161 8.743-29.819-1.855 10.591-.592 20.153.764 30.42.29 2.194.584 4.42.853 6.696 1.445 12.242-.136 25.492-1.62 37.936l-.187 1.572c-1.555 13.065-3.11 26.123-4.67 39.187v.001zm-9.164 13.903a331.538 331.538 0 01-1.592-32.334l1.592 32.334z" fill="#F7F6F2" stroke="#264432" stroke-width="2"/><path d="M98.773 166.041l.038-1.036h-.086c-.114-.987-.423-1.992-.838-2.973-.565-1.334-1.352-2.687-2.21-3.977-.92-1.388-1.952-2.746-2.906-3.961.754.586 1.542 1.349 2.315 2.206 1.982 2.199 3.698 4.827 4.304 6.121h0c1.791 3.82 3.188 6.826 3.178 10.767v.001c-.015 7.734-2.251 14.132-4.672 21.056l-.473 1.356c-1.466 4.212-2.937 8.63-3.923 13.619-.233-9.619.565-19.321 3.56-28.083 1.443-4.22 1.542-8.376 1.642-12.569.02-.84.04-1.682.071-2.527z" fill="#F7F6F2" stroke="#264432" stroke-width="2"/><path d="M97.932 192.974c1.867-4.089 3.564-8.283 4.591-12.707l-.05.3c-.41 2.449-.835 4.986-.872 7.56-.046 3.075.46 6.084 1.021 9.008l.271 1.396c.482 2.459.951 4.858 1.154 7.286h.001c.302 3.592-.362 9.776-2.177 15.429-.905 2.819-2.081 5.458-3.531 7.556-1.453 2.103-3.132 3.594-5.022 4.247-1.26.435-2.126.39-2.729.14-.6-.249-1.112-.773-1.519-1.646-.84-1.804-1.058-4.723-.85-8.097.412-6.692 2.436-14.397 3.263-16.433l.25-.616-.004-.003c1.182-2.851 2.512-5.628 3.853-8.432.788-1.647 1.58-3.303 2.35-4.988z" fill="#F7F6F2" stroke="#264432" stroke-width="2"/><path d="M45.688 229.588l.01-.013c.794-.178 2.563-.331 5.198-.443 2.73-.116 6.274-.186 10.37-.22 8.187-.069 18.542.003 28.9.12 7.186.081 14.384.185 20.861.278 12 .172 21.525.309 23.904.204.048.044.147.158.286.428.274.534.549 1.403.8 2.622.497 2.42.848 5.954 1.051 10.292.406 8.659.215 20.356-.505 32.362s-1.966 24.29-3.663 34.124c-.848 4.92-1.806 9.202-2.858 12.52-.526 1.659-1.07 3.058-1.626 4.167-.562 1.12-1.106 1.884-1.607 2.33-.248.221-.689.482-1.374.756-.672.27-1.522.53-2.539.777-2.033.493-4.661.916-7.722 1.26-6.118.689-13.876 1.059-21.872 1.095-7.993.035-16.201-.263-23.217-.906-7.056-.646-12.786-1.631-15.902-2.918-.587-.242-1.222-.771-1.882-1.673-.656-.897-1.293-2.104-1.902-3.604-1.219-3-2.275-7.046-3.172-11.813-1.79-9.526-2.913-21.769-3.47-33.916-.558-12.141-.55-24.149-.087-33.193.231-4.526.574-8.284 1.011-10.938.22-1.332.456-2.344.698-3.024.121-.342.229-.556.31-.674zm89.211-.099l.008.005-.008-.005zm-89.163.036l.006-.006-.006.006z" fill="#F7F6F2" stroke="#264432" stroke-width="2"/><g opacity=".5"><g opacity=".5"><mask id="a" fill="#fff"><path d="M42.591 246.865c.016-.41.032-.82.053-1.224-.016.399-.037.809-.053 1.224z"/></mask><path d="M42.591 246.865c.016-.41.032-.82.053-1.224-.016.399-.037.809-.053 1.224z" fill="#F7F6F2"/><path d="M42.591 246.865l-1.998-.076 3.997.152-1.999-.076zm.053-1.224l1.998.079-3.995-.183 1.997.104zm1.946 1.3c.016-.412.03-.808.051-1.197l-3.994-.207c-.022.42-.039.843-.054 1.251l3.997.153zm-3.945-1.379c-.012.313-.039.864-.052 1.227l3.997.151c.018-.467.033-.735.052-1.22l-3.997-.158z" fill="#264432" mask="url(#a)"/></g><path opacity=".5" d="M59.979 246.718c3.824-.626 7.78-1.272 11.672-1.14 1.702.057 4.16.294 5.904 1.691 1.445 1.156 2.285 3.462 1.224 5.043-.599.893-1.634 1.392-2.737 1.917-.93.447-1.89.904-2.668 1.639-1.392 1.313-1.865 3.257-1.292 5.337.74 2.711 3.046 5.006 5.605 5.589.814.184 1.623.258 2.421.242 3.761-.084 7.317-2.164 10.128-4.108l1.14-.798c3.125-2.191 6.356-4.455 10.038-4.807 2.753-.262 5.416.552 8.226 1.413 1.839.562 3.741 1.146 5.684 1.408 5.027.667 10.065-.877 14.509-2.238 2.726-.835 5.652-1.744 8.457-2.994 0-.483.005-.972.011-1.45-2.9 1.345-5.989 2.301-8.852 3.178-4.312 1.324-9.203 2.821-13.946 2.191-1.834-.242-3.683-.809-5.474-1.361-2.81-.861-5.715-1.754-8.741-1.465-4.024.389-7.401 2.752-10.669 5.043l-1.134.793c-3.184 2.201-7.37 4.607-11.51 3.666-2.106-.478-4.008-2.39-4.622-4.648-.258-.935-.478-2.706.924-4.029.63-.594 1.46-.993 2.333-1.414 1.213-.577 2.463-1.181 3.262-2.374 1.507-2.253.394-5.284-1.497-6.802-2.05-1.645-4.796-1.918-6.687-1.981-4.03-.142-8.043.52-11.93 1.161-3.315.541-6.734 1.119-10.112 1.156a24.105 24.105 0 01-7.008-.941v.011c-.015.399-.036.809-.052 1.224v.126c2.338.651 4.785.945 7.081.909 3.477-.048 6.944-.625 10.306-1.177l.006-.01zm52.997-1.445c-2.994-.467-5.91-1.602-8.73-2.705a105.287 105.287 0 00-3.693-1.387c-13.259-4.602-27.652-3.577-41.567-2.59l-2.39.168c-4.907.342-9.298.499-13.28-1.024a4.168 4.168 0 00-.147-.063c-.042.441-.084.893-.12 1.361 4.175 1.544 8.651 1.392 13.636 1.045l2.39-.168c13.784-.977 28.04-1.991 41.042 2.521 1.224.426 2.432.899 3.645 1.371 2.884 1.124 5.868 2.291 9.004 2.779 1.376.216 2.742.3 4.092.268 7.38-.163 14.351-3.735 20.98-8.231a93.561 93.561 0 00-.131-1.503c-7.795 5.364-16.037 9.513-24.736 8.163l.005-.005z" fill="#F7F6F2"/></g><path d="M46.836 398.942l9.591-78.593s0 0 0 0c.077-.627.24-.834.315-.902.069-.062.215-.143.605-.144.402-.001.906.083 1.572.213l.289.056c.57.113 1.222.242 1.9.325.686.084 1.347.115 1.917.141l.263.013c.657.032 1.13.069 1.483.16.332.086.417.184.453.242.05.082.15.332.07.977l-.001.019-.002.015v.005l-.006.038v.003l-.01.064-.006.054-12.713 79.264s0 0 0 0a2.317 2.317 0 01-.051.247c-.188-.047-.391-.124-.677-.232l-.376-.141a8.752 8.752 0 00-1.658-.461v-.001c-.63-.1-1.235-.091-1.74-.068-.167.007-.316.015-.45.023-.312.017-.55.03-.771.021a1.745 1.745 0 01-.143-.012c0-.049.004-.117.014-.207l.135-1.119h-.003zm-.135 1.446l-.002-.007a.02.02 0 01.002.007zm5.97.78h-.005.006zm75.742-.229l-.014-.088-12.644-79.304v-.001c-.099-.62.006-.827.038-.876.027-.041.117-.145.495-.234.386-.091.887-.127 1.566-.166l.09-.006c.626-.036 1.361-.079 2.118-.199.766-.122 1.475-.311 2.072-.47l.064-.017c.643-.171 1.102-.288 1.47-.317.352-.029.435.04.456.057.043.036.202.21.303.846l.002.011.002.011c.005.027.012.079.015.11l.001.011.002.011 9.802 79.704h0c.01.082.014.145.014.192a1.92 1.92 0 01-.196.008c-.242 0-.503-.024-.835-.055a26.88 26.88 0 00-.479-.043c-.531-.044-1.163-.078-1.81.002h-.001c-.648.081-1.21.27-1.664.451-.179.071-.351.145-.5.208a9.078 9.078 0 01-.367.154zm5.842-.599s0-.004.003-.01l-.003.01z" fill="#F7F6F2" stroke="#264432" stroke-width="2"/></svg>