<svg width="198" height="395" viewBox="0 0 198 395" fill="none" xmlns="http://www.w3.org/2000/svg"><path d="M104.597 182.608v1.075l.056 20.133v.001l.163 40.258v.002c.025 13.415.019 26.835-.138 40.237v.001c-.081 6.697-.194 13.398-.404 20.077a332.01 332.01 0 01-.178 5.003c-.05 1.401-.122 2.794-.193 4.176l-.042.807c-.03.655-.073 1.306-.115 1.945l-.036.542-.001.008h0c-.019.266-.037.544-.054.828-.035.544-.07 1.109-.122 1.645l-.001.006-.208 2.416-.002.014-.001.014-.157 1.362 6.145.691.115-1.599.109-2.58.001-.009c.027-.54.036-1.052.046-1.581.006-.312.012-.631.021-.964l.012-.515c.016-.683.032-1.352.032-2.017v-.01c.016-1.697.028-3.391.016-5.07v-.008c0-1.689-.016-3.372-.041-5.054v-.002c-.087-6.741-.269-13.457-.481-20.177l-4.542-101.655zm0 0l.046 1.064v.004l.938 20.106v.001l1.929 40.222v.002c.613 13.413 1.198 26.824 1.629 40.256l-4.542-101.655zM4.565 105.653c10.911-2.746 22.912-.748 33.206 4.244 11.64 5.644 21.306 14.787 29.677 24.818 19.882 23.828 35.186 56.839 35.778 88.539-3.34-12.078-9.646-22.226-16.818-33.77l-1.017-1.638c-8.723-14.06-17.553-28.185-27.211-41.722l-.71.506.71-.506c-13.22-18.531-31.166-36.444-53.615-40.471z" fill="#F7F6F2" stroke="#264432" stroke-width="2" stroke-linecap="round"/><mask id="a" fill="#fff"><path d="M104.016 257.061c-.976-12.091-3.055-31.35-15.681-45.565-12.627-14.214-31.779-22.388-50.778-21.669.776-.028 16.263 11.232 18.652 12.801 7.135 4.688 15.81 15.128 21.563 21.457 18.117 19.928 24.64 51.897 26.025 50.109"/></mask><path d="M104.016 257.061c-.976-12.091-3.055-31.35-15.681-45.565-12.627-14.214-31.779-22.388-50.778-21.669.776-.028 16.263 11.232 18.652 12.801 7.135 4.688 15.81 15.128 21.563 21.457 18.117 19.928 24.64 51.897 26.025 50.109" fill="#F7F6F2"/><path d="M102.022 257.222a2 2 0 003.987-.321l-3.987.321zm-64.465-67.395l-.076-1.999.149 3.998-.073-1.999zm18.652 12.801L55.11 204.3l1.098-1.672zm21.563 21.457l-1.48 1.346 1.48-1.346zm27.606 51.333a2 2 0 10-3.162-2.449l3.162 2.449zm.631-18.517c-.973-12.068-3.063-31.966-16.18-46.733l-2.99 2.657c12.137 13.663 14.206 32.281 15.183 44.397l3.987-.321zm-16.18-46.733c-13.023-14.662-32.751-23.081-52.348-22.34l.152 3.998c18.401-.697 36.977 7.231 49.206 20.999l2.99-2.657zm-52.2-18.342a1.824 1.824 0 01-.528-.057c-.084-.021-.142-.044-.162-.051-.04-.016-.042-.02.008.006.093.049.253.14.49.285a58.43 58.43 0 011.909 1.245 359.501 359.501 0 015.78 4.009c4.22 2.974 8.754 6.229 9.985 7.037l2.196-3.343c-1.158-.761-5.562-3.922-9.877-6.963a360.5 360.5 0 00-5.85-4.058 61.659 61.659 0 00-2.05-1.336 13.083 13.083 0 00-.74-.426 3.886 3.886 0 00-.385-.178c-.05-.019-.437-.185-.92-.168l.145 3.998zM55.112 204.3c3.361 2.208 7.18 5.845 10.946 9.817 3.768 3.975 7.3 8.085 10.235 11.314l2.96-2.691c-2.819-3.101-6.5-7.375-10.292-11.375-3.793-4.002-7.879-7.929-11.653-10.408l-2.196 3.343zm21.181 21.131c8.813 9.693 14.866 22.397 18.908 32.589 2.017 5.087 3.51 9.485 4.61 12.572.538 1.511 1.008 2.782 1.402 3.625.174.374.432.887.785 1.275.152.166.598.627 1.336.746.985.159 1.7-.374 2.045-.82l-3.162-2.449a1.854 1.854 0 011.755-.68c.631.102.96.483.983.508.097.107.054.097-.118-.272-.299-.641-.707-1.728-1.258-3.275-1.079-3.027-2.609-7.531-4.66-12.704-4.095-10.328-10.362-23.572-19.666-33.806l-2.96 2.691z" fill="#264432" mask="url(#a)"/><path d="M109.176 268.955c-.049-7.548.581-15.507 3.569-22.014h0c.406-.884.808-1.767 1.21-2.648 3.485-7.643 6.905-15.143 11.756-21.931 4.888-6.837 11.151-12.853 18.567-16.454-.404.53-.79 1.059-1.14 1.539l-.031.042c-.479.656-.873 1.194-1.174 1.553 0 0 0 0 0 0l.766.643m-33.523 59.27l8.68-14.23c.743-1.83 1.463-3.67 2.184-5.511 2.002-5.114 4.004-10.23 6.499-15.129a128.527 128.527 0 0110.284-16.857m-27.647 51.727c.084-.122.169-.243.254-.363.432-.609.892-1.221 1.315-1.784.162-.216.32-.425.468-.624.557-.749.963-1.326 1.16-1.708h.001c1.693-3.278 3.155-6.679 4.555-10.127h0a456.44 456.44 0 002.164-5.46c2.007-5.128 4.036-10.311 6.555-15.258l-16.472 35.324zm33.523-59.27a127.742 127.742 0 00-5.876 7.543m5.876-7.543c.334-.398.761-.983 1.243-1.643.706-.967 1.53-2.097 2.357-3.043l-3.6 4.686zm-5.876 7.543l-.811-.585.811.585zm42.012-125.003a287.11 287.11 0 00-16.499 19.625c-6.343 8.265-11.634 17.071-16.732 25.966-1.134 1.978-2.257 3.959-3.381 5.941-3.936 6.942-7.869 13.879-12.226 20.648l.796.512-.796-.512c-9.311 14.471-15.872 30.161-21.764 46.189-1.569-4.289-1.413-9.717-.497-15.378.755-4.662 1.993-9.317 3.095-13.463.465-1.75.906-3.409 1.277-4.94 3.119-12.882 7.679-25.425 13.825-37.159l-.886-.464.886.464c14.062-26.849 36.919-49.515 64.765-61.061a64.271 64.271 0 00-3.463 3.651c-1.635 1.848-3.212 3.778-4.639 5.524l-.005.005c-1.434 1.756-2.705 3.31-3.756 4.452h0z" fill="#F7F6F2" stroke="#264432" stroke-width="2" stroke-linecap="round"/><path d="M131.475 147.859l.446-.545c14.529-17.511 34.937-30.047 57.091-35.196-18.701 11.642-36.48 25.09-50.913 41.8-16.248 18.81-25.189 45.318-31.035 68.927-.612-1.487-.948-3.47-1.024-5.862-.114-3.546.346-7.762 1.091-12.056 1.488-8.582 4.081-17.308 5.299-21.29h0c3.975-13.003 10.437-25.256 19.045-35.778z" fill="#F7F6F2" stroke="#264432" stroke-width="2" stroke-linecap="round"/><path d="M37.557 33.535c16.125 6.2 40.843 33.22 48.848 47.632 5.629 10.134 10.538 22.632 12.774 34.005 2.42 12.329 4.668 24.734 5.669 37.272.703 8.784 2.845 23.193-1.163 31.147-4.281-6.744-4.569-17.541-6.814-25.24-3.536-12.117-7.454-22.957-11.663-34.855-13.374-37.789-35.584-82.56-47.648-89.96h-.003z" fill="#F7F6F2" stroke="#264432" stroke-width="2" stroke-miterlimit="10" stroke-linecap="round"/><mask id="b" fill="#fff"><path d="M108.178 164.234C135.404 115.063 120.945 52.416 141.229 0 122.249 14.227 113.816 38.436 109 61.662c-6.926 33.424-6.832 88.022-2.939 121.933 2.114-19.365 3.658-22.263 6.726-29.811"/></mask><path d="M108.178 164.234C135.404 115.063 120.945 52.416 141.229 0 122.249 14.227 113.816 38.436 109 61.662c-6.926 33.424-6.832 88.022-2.939 121.933 2.114-19.365 3.658-22.263 6.726-29.811" fill="#F7F6F2"/><path d="M106.428 163.265a2 2 0 003.499 1.937l-3.499-1.937zM141.229 0l1.865.722 2.518-6.507-5.583 4.185 1.2 1.6zM109 61.662l-1.958-.406 1.958.406zm-2.939 121.933l-1.987.228 3.975-.011-1.988-.217zm8.579-29.059a2 2 0 10-3.706-1.505l3.706 1.505zm-4.713 10.666c13.846-25.005 17.05-53.363 19.373-81.705 2.334-28.481 3.781-56.901 13.794-82.775l-3.73-1.444c-10.271 26.542-11.737 55.654-14.051 83.893-2.325 28.378-5.504 55.928-18.885 80.094l3.499 1.937zM140.029-1.6c-19.605 14.696-28.156 39.553-32.987 62.856l3.917.812c4.799-23.15 13.115-46.71 31.47-60.468l-2.4-3.2zm-32.987 62.856c-6.984 33.702-6.876 88.529-2.968 122.567l3.974-.456c-3.879-33.784-3.958-88.154 2.911-121.299l-3.917-.812zm1.007 122.556c1.054-9.658 1.957-15.113 2.956-19.064.993-3.926 2.084-6.396 3.635-10.212l-3.706-1.505c-1.517 3.733-2.732 6.485-3.807 10.737-1.068 4.227-1.995 9.904-3.054 19.61l3.976.434z" fill="#264432" mask="url(#b)"/><path d="M90.056 8.178c18.73 42.295 22.493 93.41 18.686 139.105l-.001.003c-.264 3.281-.473 6.771-.689 10.358-.612 10.224-1.273 21.239-3.398 30.48-1.433-3.12-2.151-7.233-2.603-11.601-.216-2.085-.368-4.188-.516-6.233-.043-.599-.086-1.193-.13-1.78-.193-2.575-.409-5.023-.776-7.097h0c-1.01-5.695-1.454-11.376-1.865-17.092l-.084-1.183c-.38-5.313-.761-10.661-1.577-16.009A647.796 647.796 0 0190.056 8.178zm21.418 278.041c6.92.017 13.333-.495 18.326-.894l.633-.05c2.55-.203 4.677-.365 6.289-.402.807-.019 1.456-.005 1.949.045.369.037.586.089.699.127a.616.616 0 01.021.054c.064.174.131.454.189.862.116.81.174 1.97.171 3.457-.005 2.964-.251 7.091-.689 12.018-.875 9.847-2.511 22.804-4.485 35.864-1.973 13.061-4.281 26.205-6.499 36.427-1.11 5.113-2.193 9.477-3.196 12.727-.502 1.627-.977 2.953-1.418 3.948-.46 1.039-.824 1.574-1.047 1.766-.195.168-.729.403-1.748.606-.967.193-2.209.328-3.647.414-2.871.171-6.419.139-9.89.018a262.15 262.15 0 01-9.334-.509 305.159 305.159 0 01-3.838-.302l-.012-.001c-.211-.199-.53-.616-.927-1.373-.474-.904-.986-2.143-1.526-3.689-1.08-3.088-2.235-7.296-3.416-12.271-2.36-9.944-4.795-22.858-6.898-35.788-2.102-12.929-3.868-25.855-4.89-35.818-.51-4.984-.833-9.211-.92-12.319-.044-1.557-.027-2.81.05-3.728.037-.46.09-.812.148-1.064.042-.179.078-.266.09-.296a.852.852 0 01.177-.103c.157-.075.387-.153.704-.227.635-.149 1.51-.256 2.614-.321 2.203-.131 5.16-.089 8.606.029 2.114.073 4.406.174 6.805.28 5.38.238 11.293.5 16.909.513zm0 0l.003-1-.003 1zm27.86-1.248a.03.03 0 000 0z" fill="#F7F6F2" stroke="#264432" stroke-width="2" stroke-linecap="round"/><g opacity=".3"><g opacity=".3"><mask id="c" fill="#fff"><path d="M83.713 359.298c.081.428.166.853.25 1.279a132.798 132.798 0 0034.856 4.662c4.043 0 8.089-.185 12.126-.557.075-.397.153-.797.228-1.197a131.536 131.536 0 01-47.457-4.187h-.003z"/></mask><path d="M83.713 359.298c.081.428.166.853.25 1.279a132.798 132.798 0 0034.856 4.662c4.043 0 8.089-.185 12.126-.557.075-.397.153-.797.228-1.197a131.536 131.536 0 01-47.457-4.187h-.003z" fill="#F7F6F2"/><path d="M83.713 359.298v-2h-2.415l.45 2.373 1.965-.373zm.25 1.279l-1.962.389.242 1.215 1.195.326.525-1.93zm46.982 4.105l.183 1.992 1.502-.139.28-1.481-1.965-.372zm.228-1.197l1.966.368.489-2.609-2.643.25.188 1.991zm-47.457-4.187l.534-1.928-.262-.072h-.272v2zm-1.968.373c.083.438.17.871.253 1.295l3.924-.779c-.085-.426-.168-.843-.247-1.262l-3.93.746zm1.69 2.836a134.776 134.776 0 0035.381 4.732v-4a130.772 130.772 0 01-34.33-4.592l-1.051 3.86zm35.381 4.732c4.104 0 8.211-.187 12.309-.565l-.367-3.983c-3.975.366-7.96.548-11.942.548v4zm14.091-2.185c.069-.368.156-.812.229-1.201l-3.932-.737c-.077.412-.147.769-.228 1.195l3.931.743zm-1.925-3.56a129.517 129.517 0 01-46.735-4.124l-1.068 3.855a133.514 133.514 0 0048.179 4.251l-.376-3.982zm-47.269-4.196h-.003v4h.003v-4z" fill="#264432" mask="url(#c)"/></g><g opacity=".3"><mask id="d" fill="#fff"><path d="M86.818 374.053c.094.4.185.798.278 1.192 2.983.203 5.973.309 8.962.309a132.68 132.68 0 0033.57-4.318c.088-.422.175-.847.266-1.279a131.436 131.436 0 01-43.076 4.099v-.003z"/></mask><path d="M86.818 374.053c.094.4.185.798.278 1.192 2.983.203 5.973.309 8.962.309a132.68 132.68 0 0033.57-4.318c.088-.422.175-.847.266-1.279a131.436 131.436 0 01-43.076 4.099v-.003z" fill="#F7F6F2"/><path d="M86.818 374.053l1.947-.456-3.947.456h2zm.278 1.192l-1.945.463.34 1.432 1.47.1.135-1.995zm42.532-4.009l.507 1.935 1.2-.314.252-1.215-1.959-.406zm.266-1.279l1.957.411.669-3.181-3.141.838.515 1.932zm-43.076 4.099h-2v1.864l1.859.131.141-1.995zm-1.947.454c.09.382.186.802.28 1.198l3.891-.927c-.093-.392-.179-.766-.277-1.184l-3.894.913zm2.09 2.73c3.026.206 6.06.314 9.097.314v-4c-2.942 0-5.886-.104-8.826-.305l-.272 3.991zm9.097.314a134.7 134.7 0 0034.077-4.383l-1.013-3.87a130.667 130.667 0 01-33.064 4.253v4zm35.529-5.912c.088-.426.174-.846.264-1.274l-3.914-.822c-.092.435-.18.865-.267 1.284l3.917.812zm-2.208-3.617a129.472 129.472 0 01-42.42 4.036l-.282 3.99a133.453 133.453 0 0043.732-4.162l-1.03-3.864zm-40.56 6.031v-.003h-4v.003h4z" fill="#264432" mask="url(#d)"/></g><g opacity=".3"><mask id="e" fill="#fff"><path d="M126.886 383.062c.116-.431.228-.872.344-1.326-12.145 3.799-25.315 4.603-37.832 2.308.128.428.253.847.378 1.251a80.656 80.656 0 0037.11-2.233z"/></mask><path d="M126.886 383.062c.116-.431.228-.872.344-1.326-12.145 3.799-25.315 4.603-37.832 2.308.128.428.253.847.378 1.251a80.656 80.656 0 0037.11-2.233z" fill="#F7F6F2"/><path d="M126.886 383.062l.579 1.914 1.065-.322.288-1.074-1.932-.518zm.344-1.326l1.938.495.886-3.474-3.421 1.071.597 1.908zm-37.832 2.308l.36-1.967-3.213-.589.937 3.129 1.916-.573zm.378 1.251l-1.91.592.362 1.167 1.203.211.345-1.97zm39.042-1.715c.119-.445.235-.898.35-1.349l-3.876-.989c-.116.455-.226.884-.338 1.302l3.864 1.036zm-2.185-3.752c-11.835 3.702-24.677 4.485-36.875 2.249l-.721 3.934c12.836 2.354 26.335 1.53 38.79-2.366l-1.194-3.817zm-39.151 4.789c.127.425.255.855.384 1.27l3.82-1.185c-.121-.391-.243-.8-.372-1.231l-3.832 1.146zm1.949 2.648a82.04 82.04 0 0014.15 1.227v-4a78.01 78.01 0 01-13.46-1.167l-.69 3.94zm14.15 1.227c8.08 0 16.17-1.182 23.884-3.516l-1.158-3.828a78.67 78.67 0 01-22.726 3.344v4z" fill="#264432" mask="url(#e)"/></g></g></svg>