<svg width="297" height="227" viewBox="0 0 297 227" fill="none" xmlns="http://www.w3.org/2000/svg"><g clip-path="url(#clip0_53_1565)"><path d="M257.112 20.749l-10.143 8.931 13.983-2.829 1.859 12.245 6.041-11.82 11.195-.182-10.427-6.689 3.657-10.649-9.315 5.153-12.75-6.163 5.9 12.043v-.04zM74.607 148.171c-34.007-15.236-55.345 13.761-55.123 38.311.182 20.793 11.922 33.644 31.4 38.271 12.57-.464 31.664-24.631 24.269-35.098 14.063-6.082 20.671-31.967-.546-41.484z" fill="#264432"/><path d="M88.855 185.796c-19.019 6.007-29.474 19.948-35.476 35.229-5.77 14.688-7.386 30.518-8.514 41.566-.06.597-.12 1.18-.179 1.749v.008l-.002.008c-.308 2.568-1.827 5.89-3.74 9.597a329.998 329.998 0 01-2.39 4.514c-1.37 2.555-2.827 5.275-4.246 8.154-4.568 9.271-8.447 19.657-6.826 29.444l.007.039.003.04c.08.946-.06 2.161-.332 3.523-.276 1.38-.7 2.983-1.232 4.734-1.063 3.502-2.57 7.655-4.21 11.904-2.021 5.233-4.28 10.69-6.175 15.271-1.167 2.823-2.197 5.313-2.95 7.212l-.004.012c-2.21 5.362-3.727 8.121-5.185 10.775a108.75 108.75 0 00-1.939 3.64c-1.527 3.882-2.568 7.133-3.078 9.836-.513 2.722-.471 4.799.076 6.376 1.037 2.995 4.134 4.723 10.801 5.154h0c4.385.286 7.531.121 9.787-.396 2.239-.512 3.53-1.354 4.314-2.382.797-1.046 1.176-2.419 1.316-4.204.116-1.485.064-3.148.004-5.03l-.037-1.228m60.207-195.545L87.48 285.898c3.147-1.003 3.463-3.448 3.798-6.041.259-2.003.529-4.094 2.122-5.678l-.707-.708s0 0 0 0m-3.837-87.675c8.45 9.912 13.686 27.379 14.675 44.675.5 8.763-.094 17.419-1.883 24.946-1.792 7.539-4.764 13.863-8.954 18.054m-3.838-87.675l3.838 87.675m-64.045 107.87l1-.028-1 .029v-.001zm0 0c-.064-2.267.413-5.371 1.063-8.536.655-3.188 1.505-6.523 2.222-9.283l.01-.034.01-.034c.64-1.889 1.267-3.807 1.897-5.735 1.617-4.944 3.256-9.958 5.183-14.747 2.685-6.674 5.964-13.009 10.616-18.291l.117-.133.156-.085c7.323-3.983 14.66-10.618 21.104-17.856 6.438-7.23 11.936-15.007 15.591-21.216l.194-.329.364-.116c1.178-.376 1.81-.955 2.206-1.626.424-.718.627-1.617.788-2.728.038-.263.073-.54.11-.827.248-1.979.559-4.448 2.414-6.294" fill="#F7F6F2" stroke="#264432" stroke-width="2"/><path d="M86.993 77.142C83.233 66.97 77.064 45.67 81.019 38.8c3.794-6.584 30.095 9.341 33.357 16.363 13.788-4.502 35.077-8.63 51.618-7.037 6.561-12.336 21.979-29.013 27.775-25.195 7.843 5.143 7.874 28.166 7.377 35.526 11.38 25.283 17.38 39.712 14.962 57.045 1.444 12.466 6.071 32.277 7.052 45.17 6.316 12.608 20.908 37.434 19.992 61.492-.677 17.831-1.286 32.407-4.466 46.084-2.115 27.338-8.992 77.455-13.061 106.376-1.494 10.578 3.806 21.958-15.199 20.78-12.9-.798-15.367-6.044-13.979-23.029 2.681-32.534 3.687-59.18-1.244-89.623-15.374 7.298-41.128 12.029-64.655 2.177-6.048 24.583-5.426 59.025-7.017 86.118 4.896 16.374 2.682 23.7-10.618 23.935-9.844.18-16.238-1.674-17.809-20.487-2.567-30.654-5.25-75.336-8.247-102.128-3.707-12.113-4.285-35.519-2.097-54.771 1.934-16.926 4.857-39.355 9.983-51.706 3.383-8.119 1.867-18.523-.661-23.89-8.721-17.571-10.631-40.506-7.07-64.838l-.02-.02z" fill="#264432"/><path d="M107.018 57.16c-2.95-5.111-14.973-14.548-18.994-11.436-4.405 3.435 1.92 18.934 4.628 24.207 2.465-4.708 9.517-10.123 14.387-12.77h-.021zm53.992 40.798c-7.961-8.77-19.984-7.254-23.52 3.455-7.295-5.153-20.53-7.739-27.037-4.344-7.334 3.819-21.459 13.599-21.883 21.802-.505 9.659 10.548 21.197 30.35 27.784 5.698 16.57 24.147 19.742 26.369 24.511 4.608 13.498-8.062 24.652 1.9 43.1 3.94 9.275-7.658 29.037-10.023 43.222-21.621 16.872-23.985 44.818-13.194 72.561 1.576-13.902 1.353-34.553 6.951-45.727 23.621 7.315 44.797 6.668 64.256-2.02 2.203 16.892 4.708 35.462 2.91 51.95 18.348-34.512 14.367-52.375-2.021-76.683-2.424-16.044-15.639-37.301-11.012-44.859 7.961-15.276-5.254-30.269-2.465-44.999 2.95-6.285 16.529-17.136 16.529-33.907 11.942-13.114 14.77-34.775 12.346-42.231-1.395-4.264-11.76-9.599-30.876-8.305-5.435.363-12.386 6.264-19.58 14.73v-.04zm-41.1-28.217c-.707 3.758 9.073 7.254 12.023 4.526 2.586-2.384-.626-8.163-4.607-9.436-3.233-1.05-6.85 1.94-7.416 4.93v-.02zM50.137 182.199c2.041 8.911 18.125 11.598 24.086 8.264 8.891-4.971 19.762-16.327 12.63-30.593-5.982-11.962-26.754-17.377-36.776-15.821-16.812 6.405-25.279 17.115-27.198 24.086 7.88-6.85 14.71-10.952 18.59-11.619 5.374-3.112 10.79-1.455 14.63-1.455 7.334 0 8.91 4.911 9.577 6.244 1.677 3.496 1.88 7.032.566 9.133-2.223 4.203-4.365 5.577-6.81 6.972-2.708 2.364-6.587 2.404-9.295 4.768v.021zM170.285 65.093c2.142 3.173-5.436 10.265-9.234 8.932-3.314-1.172-2.668-7.72.464-10.488 2.546-2.242 7.052-.95 8.75 1.577l.02-.02z" fill="#F7F6F2"/><path d="M98.511 61.04c-6.587.89-8.527-6.99-7.88-11.679 5.335.526 11.235 4.648 7.88 11.68z" fill="#264432"/><path d="M176.852 49.422c1.132-5.8 9.477-18.61 14.286-16.953 5.294 1.818 4.304 18.529 3.455 24.389-3.859-3.658-12.285-6.507-17.741-7.436z" fill="#F7F6F2"/><path d="M186.167 50.371c6.527-1.273 5.799-9.375 3.678-13.599-4.87 2.223-9.113 8.023-3.678 13.6zm-20.065 68.905c-.808 5.092.243 16.003 1.212 19.701 1.597 6.102 1.172 18.125-9.678 19.095-10.851.97-13.559-9.153-14.105-15.417-.323-3.82-2.485-14.529-4.789-19.156 5.598-1.213 8.022-3.213 12.791-5.618 4.708.99 9.821 2.203 14.569 1.395zm-77.148 64.337c-19.358 5.415-33.381 22.389-39.1 41.141-4.627 13.255-5.758 27.319-7.597 41.1-6.244 15.478-18.004 29.925-17.115 47.485 1.152 8.911-3.94 17.155-6.567 25.379-4.81 11.397-8.77 22.995-14.973 33.684-3.052 7.153-7.416 19.742 2.97 23.076 7.476 1.455 20.61 2.87 23.177-3.637 2.04-7.961.303-16.61 3.374-24.531 4.466-14.245 8.204-29.481 17.964-41.18 15.963-9.457 28.026-24.43 37.463-40.151.08-1.899-2.769-1.152-2.668.505-9.436 14.832-20.974 29.078-36.27 38.13-10.326 12.265-14.286 28.309-18.873 43.303-2.768 7.436-1.334 15.458-2.89 22.974-2.89 5.678-15.235 3.92-22.085 1.96-7.275-4.768-1.94-15.033.566-21.176 7.617-14.205 13.114-29.461 18.771-44.535 3.516-6.79 1.536-14.185 2.526-21.338 2.223-14.751 12.104-26.693 16.953-40.433 2.344-22.975 5.537-47.95 21.884-65.651 6.264-7.012 14.892-11.397 23.56-14.509.567-.727-.14-1.859-1.05-1.656l-.02.06z" fill="#264432"/><path d="M95.117 141.422c-3.072 1.01.97 5.112.323 7.072 2.627 12.609-5.516 23.682-6.87 35.887-5.294 29.683-9.558 60.579-2.708 90.343 3.658 35.24 4.749 70.723 8.366 105.963.303 11.821 10.992 17.256 22.833 14.832 13.053-1.92 9.437-17.176 7.315-26.047 1.758-27.703.95-55.81 6.991-83.048 20.025 7.9 43.081 6.526 62.701-1.92 5.173 31.482 2.708 63.469.323 95.072-2.627 13.538 11.801 19.822 22.975 16.852 13.235-3.031 6.769-19.095 10.023-28.592 4.991-33.846 9.254-67.813 13.033-101.78 3.253-17.338 4.304-35.139 3.778-52.739-2.182-19.58-11.336-37.544-20.045-54.821-2.727-.909-1.798 3.577-.404 4.365 10.346 20.995 20.995 43.606 17.964 67.692-.323 13.619-2.041 27.157-4.506 40.514-3.274 36.048-9.053 71.814-13.559 107.68 3.658 15.276-8.911 19.116-19.6 14.65-10.427-3.556-6.648-17.014-6.446-25.379 2.344-28.572 3.617-57.71-1.596-85.979-3.516-1.313-7.214 3.496-10.912 3.374-17.822 5.557-37.543 5.133-54.86-1.859-2.688 1.859-1.455 6.669-2.769 9.396-4.445 25.824-4.041 52.153-5.516 78.22 3.799 8.668 4.85 23.015-9.537 22.328-13.498.323-16.772-9.861-16.53-19.439-2.747-34.108-4.323-68.318-7.88-102.346-6.628-28.632-1.96-58.396 3.01-86.928 1.436-12.447 9.72-23.763 6.932-36.634-.89-1.859-.142-6.244-2.769-6.729h-.06z" fill="#264432"/><path d="M192.007 21.395c-8.244 2.021-13.842 9.295-19.095 15.519-4.001 4.627-5.597 12.387-13.054 9.76-14.993-.081-29.925 2.627-44.252 6.991-5.779-7.678-14.589-12.548-23.278-16.306-6.81-4.507-14.993.424-12.992 8.608.565 10.669 3.617 21.014 7.072 31.057-2.99 21.5-3.01 44.596 6.526 64.56 1.314 1.353 3.032-.99 1.657-2.142-8.85-19.681-8.486-42.07-5.758-63.024-3.638-11.094-7.76-22.672-6.81-34.513 1.576-7.638 10.992-1.435 15.418.445 6.425 3.556 12.891 7.739 17.175 13.74 3.617-.101 7.153-2.223 10.811-2.708 13.659-3.314 27.824-5.051 41.827-4.102 2.667-3.556 4.728-7.8 7.739-11.214 4.809-5.597 9.78-12.104 17.115-14.306 7.052 1.859 7.052 11.8 8.204 17.781.727 5.84.465 11.76.444 17.6 7.073 16.731 16.368 34.028 14.63 52.8.283 1.576-1.859 5.092.747 5.455 2.324-.707 1.071-4.283 1.758-6.041 1.435-18.833-7.678-36.17-14.811-52.982.323-11.174.566-23.156-4.87-33.26-1.354-2.101-3.536-4.223-6.243-3.758l.04.04z" fill="#264432"/><path d="M121.062 82.54c-7.295 2.122-5.961 11.478 1.637 10.67 7.597-.788 5.637-12.791-1.637-10.67z" fill="#F7F6F2"/><path d="M150.846 110.021c-10.386 1.96-17.539-12.67-3.051-15.316 14.488-2.668 13.417 13.356 3.051 15.316z" fill="#264432"/><path d="M150.826 108.991c-1.778.282-.889 2.404-.788 3.556.445 1.435 0 3.294 1.031 4.466 1.151.848 2.445-.667 1.818-1.819-.444-1.92-.343-4.021-1.111-5.82a1.257 1.257 0 00-.97-.404l.02.021zm-11.881 14.245c-2.728.344-5.355.222-7.396-.465-5.88-1.454-11.72-3.657-15.619-4.91 4.809 8.184 13.74 16.933 20.206 19.742 3.779 1.738 3.556 1.798 6.709 1.94.262-5.86-2.344-11.639-3.9-16.327v.02z" fill="#264432"/><path d="M165.941 118.043c-1.839.586-.93 3.213-1.314 4.627-.222 6.608.748 13.195 2.041 19.641.606 5.294-.768 12.306-6.587 14.084-4.628 1.536-10.407.04-12.67-4.567-3.172-5.496-2.404-12.103-4.142-18.044-.99-3.799-1.738-7.82-3.738-11.235-1.192-1.03-2.728.808-1.677 1.9 2.889 7.092 4.041 14.73 5.092 22.267 1.01 5.799 5.011 11.74 11.275 12.447 5.637.97 11.942-1.94 13.821-7.577 2.122-5.213.99-10.831-.101-16.125-.768-5.496-1.091-11.114-.667-16.63-.182-.545-.747-.909-1.313-.808l-.02.02z" fill="#264432"/><path d="M166.628 118.932c2.384-.525 4.566-1.354 6.122-2.505 5.173-3.153 10.063-7.012 13.417-9.396-2.101 9.254-8.001 20.287-13.296 24.914-3.091 2.789-2.849 2.789-5.799 3.88-2.586-5.436-1.172-11.882-.444-16.893z" fill="#264432"/><path d="M186.046 105.818c-3.092 1.738-5.799 4.223-8.81 6.183-3.96 2.728-8.022 5.779-13.013 6.123-4.142.525-8.648.141-12.225-2.182-1.778.06-2.263 2.546-4.001 2.99-5.456 3.213-12.326 4.284-18.327 2.081-4.688-1.212-9.174-3.071-13.821-4.344-1.334.121-1.334 1.899-.465 2.607 4.951 7.719 11.396 14.811 19.58 19.176 2.566 1.03 5.557 2.909 8.527 2.142 1.253-.748.202-2.668-1.131-2.264-3.92-.242-7.416-2.586-10.589-4.748-4.95-3.779-9.234-8.386-12.811-13.458 5.436 1.718 10.771 3.961 16.428 4.506 5.941 0 12.427-1.596 16.61-6.082 5.981 3.274 13.579 2.667 19.641-.06 4.324-2.486 8.345-5.456 12.346-8.426-3.011 8.931-7.396 18.044-15.195 23.762-1.011.485-3.536.829-2.789 2.546.95 1.475 2.849-.101 3.961-.464 8.628-6.103 13.619-16.044 16.69-25.905.162-1.253 1.617-3.415-.141-4.142a1.242 1.242 0 00-.465-.041z" fill="#264432"/><path d="M177.398 76.479c-5.234.788-10.427 3.698-13.337 8.183-.808 1.455 1.718 2.546 2.223.97 2.789-3.799 7.295-6.122 11.881-6.87 1.152-.647.546-2.445-.767-2.263v-.02z" fill="#F7F6F2"/><path d="M216.901 114.042c-1.071.142-1.151 1.415-.929 2.243 1.374 15.519 5.193 30.734 6.345 46.293.242 1.233 2.202 1.152 2.364-.101-.445-8.062-1.859-16.044-3.112-24.025-1.273-7.84-2.627-15.701-3.294-23.622-.181-.545-.788-.909-1.353-.808l-.021.02zM56.866 142.897c-12.589-.404-24.39 7.072-30.896 17.6-8.89 13.862-10.406 32.755-2.101 47.243 5.718 9.759 16.306 15.882 27.198 18.064 1.374-.242.93-2.323-.425-2.182-11.255-2.566-22.146-9.477-26.793-20.409-7.558-17.801-1.92-40.594 13.74-52.173 8.85-6.648 20.954-7.577 31.219-4.001 7.234 2.162 14.69 6.507 17.135 14.105 3.678 11.234-2.829 24.752-13.72 29.157-6.365 1.172-13.538.142-18.772-3.879-2.728-2.081-4.89-7.638-.869-9.578 2.142-1.172 5.072-3.172 4.587-5.981-.404-.95-2-.627-1.98.404-.99 3.799-7.052 4.041-6.971 8.547-.122 6.183 5.577 10.467 11.073 11.862 6.041 1.636 13.215 2.242 18.388-1.981 10.386-7.234 15.175-22.914 7.9-33.906-5.01-7.578-14.245-10.77-22.772-12.387a38.882 38.882 0 00-5.941-.525v.02zM252.263 37.823c-10.043 3.617-19.176 9.962-25.844 18.328-2.102 2.727-4.022 5.657-5.254 8.89-.323 1.334 1.495 2.344 2.445 1.354.828-1.192 1.212-2.667 2.041-3.88 4.385-7.334 10.972-13.154 18.226-17.559 2.991-1.818 6.203-3.273 9.497-4.445 1.192-.627.727-2.647-.606-2.688-.162 0-.344 0-.505.04v-.04zm-1.213-30.33c-1.03.142-1.293 1.435-.707 2.162 1.758 3.597 3.496 7.194 5.254 10.77-3.193 2.83-6.426 5.658-9.618 8.507-.809.87.222 2.365 1.333 1.94 4.203-.848 8.426-1.697 12.629-2.566.586 3.738 1.091 7.476 1.738 11.194.364 1.092 2.061.95 2.344-.141l5.577-10.912c3.597-.06 7.214-.06 10.81-.181 1.152-.223 1.213-1.96.142-2.344-3.173-2.021-6.325-4.042-9.497-6.062 1.152-3.334 2.324-6.648 3.455-9.982.222-1.071-1.192-1.84-2-1.132-2.849 1.576-5.719 3.173-8.568 4.749-4.142-1.98-8.244-4.042-12.407-5.981a1.307 1.307 0 00-.485-.02zm2.829 3.84c3.254 1.556 6.507 3.152 9.78 4.687.97.182 1.738-.687 2.587-1.03 1.616-.89 3.253-1.798 4.869-2.688-.889 2.648-1.818 5.274-2.687 7.921-.141 1.193 1.233 1.516 1.98 2.122 1.879 1.192 3.738 2.405 5.597 3.597-2.465.06-4.95.04-7.415.121-1.011.283-1.132 1.495-1.657 2.263l-3.516 6.85c-.465-2.93-.869-5.86-1.374-8.77-.324-.95-1.435-.848-2.203-.606-2.889.607-5.799 1.193-8.689 1.799 2.304-2.061 4.668-4.041 6.931-6.143.627-.97-.363-1.9-.667-2.809-1.172-2.445-2.364-4.87-3.536-7.314z" fill="#264432"/></g><defs><clipPath id="clip0_53_1565"><path fill="#fff" transform="translate(0 .055)" d="M0 0h297v226H0z"/></clipPath></defs></svg>