<svg width="249" height="379" viewBox="0 0 249 379" fill="none" xmlns="http://www.w3.org/2000/svg"><path d="M.454 186.174c4.415-3.869 9.5-7.872 14.533-10.961 6.279-3.859 13.906-5.543 20.802-7.975 11.868-4.188 25.67-3.469 38.053-2.895 5.002.237 11.487 1.499 16.16 3.398 2.295.934 4.642 2.248 6.916 3.192 3.263 1.355 6.752 2.997 9.789 4.844 6.093 3.695 12.248 8.837 17.004 14.739h.051c.587.041.844.544.824 1.037h.01c-.031-2.166 0-4.342.144-6.518.566-8.478 2.851-15.96 6.093-23.637.196-1.068.402-2.125.638-3.172.505-2.196 1.431-4.126 2.368-6.086-.865-5.861-.896-11.834-1.884-17.664-5.856-5.173-16.973-3.059-23.859-1.991-8.543 1.334-16.787 3.633-25.557 2.268-16.9-2.648-35.726-10.715-48.51 5.204-.175.215-.443.154-.587-.021l.093.975c.03.319-.443.37-.504.062-.988-5.758-1.884-11.649-1.37-17.428 0-.041-.03-.061-.03-.103.535-12.049 8.11-25.217 18.712-31.191 7.37-4.157 13.865-6.61 22.562-7.267 7.39-.554 14.987 1.776 22.068 3.5 15.357 3.736 28.882 13.302 36.993 26.881 2.768 4.639 5.774 9.976 7.287 15.447.669-3.634 1.05-7.277 2.254-10.839 1.698-5.008 4.23-9.709 5.815-14.759 1.359-4.311 1.503-8.796 1.822-13.25-.072-.236-.154-.462-.226-.698-5.805-2.094-11.58-1.92-17.591-3.623-4.498-1.283-8.944-2.751-13.02-5.081-8.677-4.957-16.582-12.665-21.914-21.01-2.717-4.239-5.867-8.252-8.08-12.799-2.233-4.567-3.53-9.576-5.352-14.318-2.326-6.066-3.561-12.521-6.103-18.495-2.059-4.844-4.9-9.104-5.95-14.328C70.702.575 71.732-.02 72.586 0c3.695.082 7.329 2.33 10.406 4.187 6.444 3.89 12.599 5.491 19.587 7.996 4.004 1.437 7.648 4.197 11.436 6.148 6.196 3.202 11.713 8.015 16.901 12.593 9.099 8.026 17.096 15.478 20.338 27.569 1.328 4.947 2.666 11.238 2.368 16.36-.227 3.92-1.338 7.77-1.441 11.71 0 .124-.072.206-.144.288l-.093 1.673a77.578 77.578 0 00-.082 2.248.933.933 0 01-.021.667 482.958 482.958 0 01-.113 3.746v.185c0 .01-.01.02-.01.031-.062 1.663-.165 3.315-.371 4.927-.648 4.926-2.47 9.473-4.241 14.04 2.152-2.668 4.57-5.101 7.01-7.749 4.014-4.362 7.524-9.073 11.723-13.353 6.989-7.113 16.767-12.07 26.185-15.108 11.456-3.705 23.406-3.336 34.492 1.437 4.899 2.104 9.191 5.48 12.639 9.514 3.839 4.496 6.011 9.69 9.593 14.308.762.985-.35 2.125-1.4 1.765-9.747-3.356-19.782 2.053-28.727 5.204-7.74 2.73-15.892 5.265-23.89 7.154-4.899 1.16-9.84 1.755-14.811 2.412-4.23.554-8.183 1.97-12.465 1.991-7.75.041-15.254-2.669-22.922-.123-.587 2.042-1.05 4.126-1.245 6.291-.381 4.168-2.079 7.965-2.718 12.091-.185 1.18-.339 2.31-.514 3.418a40.091 40.091 0 01-.597 4.044c7.009-8.067 16.582-14.636 26.102-17.192 6.619-1.786 14.277-1.827 20.02 2.371 5.702 4.177 10.077 11.978 8.975 19.255-1.05 6.959-10.879 3.726-15.511 3.962-9.541.482-19.258 6.076-25.835 12.747-7.154 7.267-14.039 18.701-17.343 28.338-1.781 5.194-3.5 10.295-4.9 15.601-.237.883-.391 1.868-.638 2.813.051 1.252.103 2.504.206 3.756.494 6.24.844 12.491 1.225 18.742 1.451-9.587 3.242-18.804 8.316-27.579 5.661-9.781 19.567-16.391 29.911-19.265 14.204-3.952 28.45-4.916 42.767-1.139 5.311 1.396 10.067 4.403 14.194 8.046 3.613 3.192 5.085 6.785 7.39 10.685.34.246.69.472 1.019.76.35.297 0 .944-.432.708-.196-.103-.391-.165-.587-.267a.418.418 0 01-.329-.144c-13.041-6.22-21.317 6.076-29.777 13.949-6.814 6.343-16.047 12.798-25.197 15.169-5.003 1.294-9.778 2.967-14.925 3.541-5.28.596-10.581 1.068-15.707 2.525-5.836 1.663-11.116 4.28-12.917 10.469-.711 2.453-1.235 5.142-1.596 7.78 1.06 7.657 2.419 15.303 2.326 23.042-.123 10.418.33 20.661.35 31.11.021 10.263-.36 20.394-.504 30.555-.021 1.745-1.194 4.064-1.441 5.624-.401 2.566-.268 5.214-.432 7.801-.381 6.076-3.016 11.351-3.85 17.325-.051.39-.617.287-.597-.092.278-4.865 2.11-9.31 2.676-14.113.536-4.537.175-9.114.834-13.651.597-4.105.391-8.016.782-12.193.299-3.202-.494-6.004-.483-9.135.01-2.607.658-5.101.514-7.749-.226-4.259-.154-8.365-.113-12.635.052-5.645-1.832-11.033-1.42-16.688.782-10.777-1.174-20.928-2.522-31.582a169.808 169.808 0 01-.597-5.625c-.607-2.309-1.112-4.587-1.657-6.804-4.992-5.266-13.525-5.964-20.205-2.002-6.32 3.757-10.375 10.202-14.626 16.053-2.748 3.787-5.98 7.759-10.025 10.263-4.807 2.977-11.848 5.83-17.591 5.738-.268 0-.401-.185-.412-.37a4.799 4.799 0 01-.7.667c-.473.349-1.317-.195-.967-.769.072-.113.093-.257.154-.37-.175-.154-.257-.4-.072-.646.237-.298.474-.575.7-.863 1.801-5.614-.967-13.712-1.214-19.172-.258-5.635.257-10.9 2.017-16.248 3.603-10.9 11.549-18.516 23.272-19.891 10.633-1.242 22.912 1.899 31.064 8.96 4.076 3.531 7.617 7.195 9.15 12.512.124.431.227.872.33 1.303-.319-6.261-.577-12.521-1.194-18.762-.361-3.623-.536-7.215-.638-10.807-.875-5.799-1.678-11.65-2.028-17.521-1.369-1.467-2.831-2.822-4.323-4.136-2.779-.277-5.589-.831-8.296-.328-4.159.769-8.626 4.577-12.825 6.014-11.27 3.849-22.356 3.141-34.09 3.941-9.202.637-19.855-2.217-28.593-5.029-11.26-3.623-23.231-10.387-35.305-8.601-1.307.195-1.76-1.457-.895-2.227l.01-.021zM148.763 58.422c-3.767-12.122-12.855-19.768-22.304-27.661-4.673-3.9-9.789-8.16-15.419-10.623-4.323-1.889-8.049-4.516-12.588-5.953-4.786-1.509-9.614-2.864-13.988-5.43C81.304 6.908 78 4.137 74.305 3.213c1.42 4.916 4.333 9.227 6.042 14.061 1.884 5.337 3.098 10.818 5.146 16.125 1.822 4.721 3.12 9.781 5.373 14.307 2.296 4.619 5.569 8.724 8.317 13.076 5.476 8.684 15.099 17.172 24.569 21.37 5.414 2.39 10.972 3.797 16.849 4.238 2.728.206 5.075.637 7.308 1.653-2.419-7.308-5.085-14.287-9.397-21.051-4.858-7.595-11.796-13.579-18.61-19.409-12.423-10.623-25.855-20.147-36.148-32.926-.32-.39.298-.841.617-.462 12.506 14.677 29.088 24.93 43.488 37.627 9.212 8.129 18.527 19.388 22.222 31.807.401-3.007.834-6.014 1.215-9.032-.196-5.45-.886-10.951-2.512-16.186l-.021.01zm12.661 60.453c6.165.821 11.116-.328 17.106-1.273 6.063-.954 12.043-1.498 18.013-3.058 9.51-2.484 19.237-5.481 28.264-9.33 6.104-2.607 13.669-4.331 20.4-3.017-1.821-3.11-3.232-6.436-5.475-9.279-3.747-4.732-8.43-9.001-14.112-11.26-11.271-4.484-23.406-4.207-34.676-.04-9.326 3.438-17.869 8.088-24.94 15.19-3.572 3.582-6.577 7.585-10.077 11.208-3.16 3.264-6.659 6.466-9.5 10.089 2.501-1.755 4.848-3.417 7.195-5.717 3.098-3.038 6.289-6.301 9.901-8.724 2.934-1.97 6.361-3.058 9.573-4.454 5.321-2.31 9.819-6.004 15.418-7.626 16.829-4.855 37.672-7.523 51.341 5.86.309.308-.092.842-.432.544-14.688-12.778-42.067-10.88-57.918-1.18-6.618 4.054-14.204 6.056-20.195 11.095-4.158 3.5-7.884 7.041-12.052 10.213 4.055-.473 8.512.266 12.186.749l-.02.01zm-59.946 55.681c-10.89-5.276-21.924-8.478-34.12-8.622-6.156-.072-11.95-.523-18.106.277-6.114.801-11.301 2.792-17.055 4.609-10.262 3.253-19.145 8.18-27.328 14.872.422.01.834.041 1.246.082 5.229-1.806 10.262-4.67 15.44-6.394 6.33-2.104 12.886-3.982 19.267-5.933 6.773-2.063 14.287-2.227 21.307-1.96 5.63.205 11.507-.031 17.106.544 10.345 1.067 20.257 4.557 29.51 9.217 2.635 1.334 5.702 2.966 8.728 4.906-4.889-4.773-9.665-8.54-15.995-11.608v.01zm26.998 4.239c-.514 3.438-.71 6.856-.731 10.253.093-.41.175-.821.268-1.221.34-3.87.618-7.79.957-11.721-.185.903-.36 1.796-.494 2.689zm1.379-63.461c-8.481-13.096-22.119-21.574-37.167-25.084-13.906-3.244-27.297-4.558-39.875 3.469-11.147 7.123-15.892 16.606-19.299 29.036a39.236 39.236 0 00-.39 2.453c-.546 4.824-.176 9.525.287 14.307 7.803-19.008 32.248-10.489 47.4-8.036 12.608 2.042 24.558-2.135 37.095-2.874 3.921-.226 9.15-.123 12.927 1.961-4.004-9.669-16.201-17.757-24.486-22.293-21.193-11.609-56.282-4.486-67.974 17.756-.258.493-1.05.164-.803-.349 10.468-22.344 44.125-31.787 66.121-21.79 11.116 5.05 23.21 13.969 28.872 25.033.751 1.478 1.266 3.11 1.646 4.804.309.503.587 1.026.803 1.621.144.401-.041.75-.329.965.597 4.229.514 8.765.463 13.004.041-.092.082-.174.113-.256 1.801-4.342 1.75-9.217 2.954-13.743-1.029-7.175-4.395-13.826-8.368-19.974l.01-.01zm52.082 17.951c-5.62-2.832-12.958-1.991-18.64.298-9.253 3.726-18.97 11.69-24.559 19.758a59.088 59.088 0 00-1.883 2.904 67.023 67.023 0 01-1.4 3.244c-.072.154-.237.164-.35.082-1.153 4.68-1.657 9.514-2.069 14.379 3.078-6.178 7.133-11.823 12.043-16.493 7.719-7.329 14.862-13.056 25.927-14.021 8.862-.759 14.379 2.084 19.917 8.345 4.374-5.03-5.044-16.525-8.986-18.516v.02zm-35.654 39.382c4.724-6.784 10.776-12.008 18.352-15.334 3.613-1.58 7.061-3.202 10.983-3.797 3.551-.534 9.438 1.016 12.598-.041a6.584 6.584 0 001.894-.996c-2.337-2.124-4.93-4.218-7.576-5.707-4.333-2.432-9.798-1.796-14.554-1.005-9.963 1.662-17.261 8.631-23.992 15.601-5.836 6.055-9.46 13.178-11.673 20.794-.596 5.891-1.245 11.772-1.667 17.664.319.79.556 1.601.741 2.422.69-2.084 1.431-4.147 2.12-6.189 2.769-8.242 7.813-16.299 12.774-23.422v.01zm-15.378 31.12c-.175 0-.35-.051-.463-.216l-.02-.02c-.042.718-.072 1.427-.103 2.145.185-.636.381-1.273.576-1.899l.01-.01zm1.596 45.581c.082-2.75.226-5.501.751-8.231-.329 1.201-.71 2.34-1.091 3.541.103 1.56.216 3.13.329 4.69h.011zm94.241-48.722c-4.693-4.372-10.077-7.071-16.304-8.406-13.278-2.843-26.699-1.673-39.72 1.92-11.219 3.089-23.54 9.986-29.242 20.353-2.625 4.772-4.91 9.319-6.093 14.677-.649 2.925-1.081 5.84-1.472 8.806-.072.554-.185 1.037-.288 1.529 1.441-6.035 3.849-11.208 7.297-16.37 5.97-8.93 14.235-15.119 23.777-20.025 5.29-2.72 11.806-6.076 17.559-7.441 5.497-1.304 12.342-1.242 17.982-.955 10.046.524 21.913 3.398 29.89 9.874-.998-1.385-2.048-2.74-3.376-3.972l-.01.01zm-86.8 44.935c10.314-5.902 23.118-5.081 34.327-8.129 14.554-3.962 25.948-12.563 36.406-23.216 5.527-5.635 14.153-10.1 21.512-6.703-.484-.667-.947-1.334-1.42-2.001-.093.102-.258.154-.402.051-9.778-6.835-21.522-8.888-33.174-9.063-6.186-.092-12.186-.267-18.012 2.084-6.124 2.473-12.31 5.101-17.889 8.57-7.226 4.496-13.226 9.843-18.146 16.761-4.457 6.261-7.144 13.332-8.132 20.938-.267 2.104-.401 4.269-.648 6.415 1.328-2.299 3.129-4.301 5.568-5.697l.01-.01zm-52.236 18.834c5.188-5.758 9.079-12.635 14.935-17.756 5.795-5.071 15.851-6.651 22.614-3.233a22.216 22.216 0 00-4.725-4.003c-3.88-2.464-7.781-4.681-12.362-5.368-9.294-1.396-17.56.082-24.033 7.01-9.542 10.202-7.02 26.275-18.27 35.266a5.57 5.57 0 01-.741 1.458c.03-.011.03-.031.062-.041 8.522-2.043 16.787-6.99 22.51-13.333h.01zm30.858-32.331c-9.397-7.544-24.198-11.988-36.056-7.913-12.67 4.352-17.549 18.31-17.353 30.473.092 5.522 1.297 11.013 1.255 16.504 0 .667 0 1.386-.04 2.114 2.212-2.689 4.332-5.388 5.825-8.724 2.306-5.163 2.769-10.787 4.848-16.001 2.45-6.138 7.215-12.471 13.442-15.139 7.277-3.11 17.786-3.336 24.899.185 3.623 1.786 6.659 3.623 9.191 5.768-1.369-2.617-3.242-5.06-6-7.277l-.011.01zm-86.305-38.52c10.354 3.798 22.83 6.744 33.832 5.789 12.516-1.088 24.405-.298 36.221-5.481 4.179-1.837 6.392-4.629 11.126-4.772 1.102-.031 2.182.092 3.253.256-13.329-10.017-30.282-14.687-47.296-15.026-5.774-.113-11.548-.667-17.323-.328-7.472.451-14.029 3.192-21.13 5.214-5.456 1.56-10.654 3.325-15.965 5.327-1.688.636-3.304 1.334-4.93 1.929 1.595.411 3.2.944 4.94 1.54 5.713 1.96 11.61 3.469 17.282 5.542l-.01.01z" fill="#38664A"/></svg>