<svg width="64" height="64" viewBox="0 0 64 64" fill="none" xmlns="http://www.w3.org/2000/svg">
<path d="M35.4358 42.5365C39.7536 40.9866 43.7587 38.9268 45.6251 34.3773C47.6226 29.5178 47.2594 24.7282 43.91 20.5887C40.3488 16.1891 35.2441 15.6791 30.1091 16.5091C24.4091 17.439 19.7987 20.5887 16.4897 25.2182C12.8983 30.2277 13.2816 36.6371 16.9942 41.2666C24.964 51.1856 43.8192 50.7057 49.7411 39.5468C55.9455 27.8579 56.0262 15.1492 38.1697 11.3696C24.5806 8.49985 10.0432 19.3588 9.22608 33.0274C8.55016 44.3363 14.6032 52.1155 26.0031 53.6654C30.664 54.3053 35.5165 53.8154 40.258 53.5054C45.7461 53.1354 49.61 50.1457 52.011 45.2862C53.0602 43.1564 53.9581 40.9466 55.1485 38.9068C55.5521 38.2169 56.6214 37.9069 57.3881 37.417C57.5899 38.2469 58.1851 39.2268 57.943 39.8967C54.8761 48.1059 50.5381 55.2952 40.5405 55.7552C34.4471 56.0351 27.9905 56.3951 22.2401 54.8053C7.17813 50.6257 1.70013 35.7971 9.60944 22.3085C16.5906 10.4097 37.0701 3.26037 50.3263 14.9792C54.0791 18.2989 56.2179 22.1085 55.9455 27.398C55.4411 37.337 51.9505 45.1862 41.9529 48.8059C31.814 52.4755 22.795 49.8858 15.0572 42.8964C11.7078 39.8667 10.7696 35.5472 11.4254 31.1676C13.4128 17.8989 30.6337 9.87971 42.3262 16.689C51.5268 22.0485 52.1623 35.0172 43.5166 41.2066C38.8053 44.5763 33.6501 45.9861 27.8291 44.9762C22.8555 44.1163 19.4759 41.4566 18.1543 36.6671C16.8126 31.7775 17.5591 26.868 21.4129 23.5584C24.1166 21.2386 27.8695 19.6687 31.4105 18.8688C36.1621 17.7889 40.2984 20.3087 42.3968 24.3383C44.4346 28.2479 43.7991 33.5774 41.0449 36.967C39.3803 39.0168 37.8973 41.2266 36.3336 43.3564C36.0411 43.0864 35.7384 42.8165 35.4459 42.5365H35.4358ZM29.6753 33.6974C30.0889 33.8673 30.5025 34.0473 30.9061 34.2173C31.5921 33.4174 32.7422 32.6675 32.8531 31.7975C33.0852 30.0077 33.3576 27.7179 32.4496 26.4581C31.8947 25.6881 28.9388 25.9481 27.4861 26.6281C24.5504 27.9979 22.9665 32.3975 24.0964 35.3872C25.3373 38.6569 28.0309 40.1867 31.4609 40.2367C34.5883 40.2867 39.3702 36.5071 40.4295 33.0674C41.5796 29.3178 41.5292 25.5882 38.4522 22.6185C35.345 19.6087 31.7434 20.2887 28.2629 21.8085C26.558 22.5585 24.9136 23.5784 23.5113 24.7882C20.2124 27.638 19.3548 33.2174 21.3322 37.567C23.249 41.7766 26.6589 43.5664 32.2176 42.8664C30.4824 42.3865 29.2919 42.1265 28.1519 41.7266C21.3624 39.3068 19.3448 32.6075 23.6828 26.978C26.4773 23.3384 31.0372 22.4785 34.326 24.9782C37.2719 27.218 37.2214 31.3076 33.9225 34.8272C32.954 35.8671 31.3096 36.2971 29.9779 36.997C29.1608 35.1672 27.8392 33.3874 27.698 31.5076C27.587 30.0777 28.9691 28.5479 29.6955 27.058C30.1192 27.248 30.5429 27.438 30.9666 27.628C30.5429 29.6578 30.1192 31.6876 29.6955 33.7174L29.6753 33.6974Z" fill="#372120"/>
</svg>
