<svg width="32" height="32" viewBox="0 0 32 32" fill="none" xmlns="http://www.w3.org/2000/svg">
<path d="M6.66666 26.6668V25.3335C6.66666 22.8581 7.64999 20.4842 9.40033 18.7338C11.1507 16.9835 13.5246 16.0002 16 16.0002V16.0002C18.4753 16.0002 20.8493 16.9835 22.5997 18.7338C24.35 20.4842 25.3333 22.8581 25.3333 25.3335V26.6668H6.66666ZM16 16.0002C17.4145 16.0002 18.771 15.4383 19.7712 14.4381C20.7714 13.4379 21.3333 12.0813 21.3333 10.6668C21.3333 9.25234 20.7714 7.89579 19.7712 6.89559C18.771 5.8954 17.4145 5.3335 16 5.3335C14.5855 5.3335 13.2289 5.8954 12.2288 6.89559C11.2286 7.89579 10.6667 9.25234 10.6667 10.6668C10.6667 12.0813 11.2286 13.4379 12.2288 14.4381C13.2289 15.4383 14.5855 16.0002 16 16.0002V16.0002Z" stroke="#264432" stroke-width="1.5" stroke-linecap="round" stroke-linejoin="round"/>
</svg>
