<svg width="40" height="40" viewBox="0 0 40 40" fill="none" xmlns="http://www.w3.org/2000/svg">
<path fill-rule="evenodd" clip-rule="evenodd" d="M19.9988 0C9.06365 0 0.199219 8.85643 0.199219 19.7817C0.199219 30.707 9.06365 39.5634 19.9988 39.5634C30.9339 39.5634 39.7983 30.707 39.7983 19.7817C39.7983 8.85643 30.9339 0 19.9988 0ZM21.3546 24.4697C20.0841 24.3728 19.552 23.7443 18.5579 23.1426C18.0113 26.0089 17.3431 28.7578 15.3631 30.194C14.7506 25.8585 16.2582 22.6069 16.9595 19.1513C15.7653 17.1422 17.1018 13.1014 19.6221 14.0946C22.722 15.3227 16.9368 21.5642 20.8204 22.3452C24.8752 23.1571 26.5313 15.3144 24.0172 12.7676C20.3832 9.08528 13.443 12.6831 14.2969 17.9541C14.5031 19.2419 15.8375 19.6335 14.829 21.4117C12.5046 20.8966 11.8095 19.0647 11.9003 16.6229C12.0426 12.6254 15.4951 9.82503 18.9559 9.4397C23.3345 8.9534 27.4429 11.0449 28.0122 15.162C28.6495 19.8065 26.0343 24.8323 21.3546 24.4697Z" fill="white"/>
</svg>
