<svg width="41" height="40" viewBox="0 0 41 40" fill="none" xmlns="http://www.w3.org/2000/svg">
<path fill-rule="evenodd" clip-rule="evenodd" d="M26.5876 19.7818C26.5876 23.1962 23.8177 25.9636 20.4002 25.9636C16.9827 25.9636 14.2128 23.1962 14.2128 19.7818C14.2128 19.4294 14.25 19.0853 14.3139 18.7515H12.1504V26.9877C12.1504 27.5605 12.6144 28.0242 13.1878 28.0242H27.6147C28.186 28.0242 28.65 27.5605 28.65 26.9877V18.7515H26.4865C26.5505 19.0853 26.5876 19.4294 26.5876 19.7818ZM20.4003 23.903C22.6772 23.903 24.5252 22.0567 24.5252 19.7818C24.5252 17.5069 22.6772 15.6606 20.4003 15.6606C18.1234 15.6606 16.2754 17.5069 16.2754 19.7818C16.2754 22.0567 18.1234 23.903 20.4003 23.903ZM25.3493 15.4543H27.8222C28.1646 15.4543 28.443 15.1761 28.443 14.8362V12.3655C28.443 12.0234 28.1646 11.7453 27.8222 11.7453H25.3493C25.007 11.7453 24.7285 12.0234 24.7285 12.3655V14.8362C24.7306 15.1761 25.009 15.4543 25.3493 15.4543ZM20.3992 0C9.46404 0 0.599609 8.85643 0.599609 19.7817C0.599609 30.707 9.46404 39.5634 20.3992 39.5634C31.3343 39.5634 40.1987 30.707 40.1987 19.7817C40.1987 8.85643 31.3343 0 20.3992 0ZM30.7124 27.7952C30.7124 29.0543 29.6812 30.0846 28.4211 30.0846H12.3793C11.1191 30.0846 10.0879 29.0543 10.0879 27.7952V11.768C10.0879 10.5089 11.1191 9.47864 12.3793 9.47864H28.4211C29.6812 9.47864 30.7124 10.5089 30.7124 11.768V27.7952Z" fill="white"/>
</svg>
