<svg width="35" height="24" viewBox="0 0 35 24" fill="none" xmlns="http://www.w3.org/2000/svg">
<path d="M24.4176 9.93905L18.142 10.8276L18.1381 13.1026L24.4131 12.2141L24.4007 19.0381L16.0336 20.223L16.0376 17.948L22.3131 17.0595L22.3171 14.7846L16.042 15.6735L16.0545 8.84905L24.4216 7.66455L24.4176 9.93905Z" fill="#E8E5DE"/>
<path d="M7.68668 10.034L7.68269 12.309L5.59116 12.605L5.57422 21.704L13.9413 20.519L13.9623 9.14551L7.68668 10.034ZM11.8618 13.991L11.8578 16.2655L11.8538 18.54L9.76226 18.836L7.67073 19.132L7.67472 16.8575L7.6787 14.583L7.68269 12.3085L9.77422 12.0125L11.8657 11.7165L11.8618 13.991Z" fill="#E8E5DE"/>
<path d="M32.7797 11.029L28.5962 11.6215L28.6047 7.07197L26.5126 7.36797L26.4917 18.742L28.5837 18.4455L28.5922 13.896L32.7758 13.3035L32.7673 17.853L34.8593 17.557L34.8802 6.18347L32.7882 6.47947L32.7797 11.029Z" fill="#E8E5DE"/>
<path d="M34.8837 3.9085L31.4018 2L2.11694 6.147L2.11296 8.4215L0.0209302 8.718L0 20.0915L3.48189 22L3.50282 10.6265L5.59485 10.33L5.59884 8.055L34.8837 3.9085Z" fill="#E8E5DE"/>
</svg>
