<svg width="64" height="64" viewBox="0 0 64 64" fill="none" xmlns="http://www.w3.org/2000/svg">
<path d="M38.6758 45.7423C38.5105 51.2077 35.5768 54.6379 30.7525 56.5286C29.8228 56.8902 28.4179 56.9212 27.6328 56.4356C27.0853 56.105 26.8477 54.5345 27.0956 53.708C29.265 46.5275 29.5646 43.3143 19.1 43.6656C14.6993 43.8206 11.2387 41.5786 9.01771 37.6112C5.88765 32.0528 5.17486 26.1327 6.96199 20.099C8.27393 15.6771 11.28 12.3812 16.0113 11.4617C24.2238 9.86031 32.4364 7.89729 40.7419 7.2464C51.0824 6.44053 60.7929 16.2763 57.2599 28.9739C54.915 37.3839 50.1011 43.459 40.9072 45.0087C40.1634 45.1327 39.4609 45.4737 38.6862 45.7423H38.6758ZM35.7214 42.7358C44.1818 41.6716 50.4833 38.2415 53.8923 30.3791C58.8818 18.8695 52.8696 9.64335 40.4216 10.6352C33.0045 11.2241 25.5977 12.5569 18.3149 14.148C10.8978 15.77 7.85039 21.5661 9.03837 30.2861C10.1437 38.3654 12.7676 40.5351 21.3933 40.5144C27.4262 40.5041 30.7732 43.8102 30.8248 49.782C30.8248 50.5672 30.9798 51.3524 31.0934 52.4682C34.926 50.1229 36.4755 47.1577 35.7214 42.7254V42.7358Z" fill="#372120"/>
<path d="M29.0461 35.6737C27.2486 33.7314 25.6784 32.223 24.3561 30.5182C23.1991 29.0305 21.8252 27.4084 21.4843 25.6727C21.1228 23.8646 21.2261 21.0441 22.3314 20.1039C23.6743 18.9674 26.2879 19.2567 28.3746 19.0914C30.0481 18.9571 29.1184 23.4204 30.8022 23.5753C32.5583 23.7406 37.5685 19.1017 38.4982 20.1452C39.6139 21.385 39.7482 23.7406 39.7792 25.621C39.7998 26.5715 38.8288 27.7493 38.0024 28.4622C35.1099 30.9418 32.0831 33.2561 29.0564 35.6841L29.0461 35.6737Z" fill="#372120"/>
</svg>
