<svg width="32" height="32" viewBox="0 0 32 32" fill="none" xmlns="http://www.w3.org/2000/svg">
<path d="M9.33331 16.6666L13.3333 20.6666L22.6666 11.3333" stroke="#264432" stroke-width="1.5" stroke-linecap="round" stroke-linejoin="round"/>
<path d="M14.1532 3.47771C15.1037 2.30188 16.8963 2.30188 17.8468 3.47771C18.8104 4.66972 20.3861 5.18169 21.8663 4.78371C23.3264 4.39113 24.7767 5.44484 24.8545 6.9548C24.9334 8.48553 25.9073 9.82589 27.3387 10.374C28.7507 10.9146 29.3047 12.6195 28.4801 13.8868C27.6442 15.1716 27.6442 16.8284 28.4801 18.1132C29.3047 19.3805 28.7507 21.0854 27.3387 21.626C25.9073 22.1741 24.9334 23.5145 24.8545 25.0452C24.7767 26.5552 23.3264 27.6089 21.8663 27.2163C20.3861 26.8183 18.8104 27.3303 17.8468 28.5223C16.8963 29.6981 15.1037 29.6981 14.1532 28.5223C13.1896 27.3303 11.6139 26.8183 10.1337 27.2163C8.6736 27.6089 7.22329 26.5552 7.14546 25.0452C7.06656 23.5145 6.09273 22.1741 4.66129 21.626C3.2493 21.0854 2.69532 19.3805 3.51989 18.1132C4.3558 16.8284 4.3558 15.1716 3.51989 13.8868C2.69532 12.6195 3.24929 10.9146 4.66129 10.374C6.09273 9.82589 7.06656 8.48553 7.14546 6.9548C7.22329 5.44484 8.6736 4.39113 10.1337 4.78371C11.6139 5.18169 13.1896 4.66972 14.1532 3.47771Z" stroke="#264432" stroke-width="1.5"/>
</svg>
