<svg width="80" height="64" viewBox="0 0 80 64" fill="none" xmlns="http://www.w3.org/2000/svg">
<path d="M39.5145 15C39.668 15.8023 40.002 16.4283 39.8124 16.781C38.5846 19.0117 37.2484 21.1454 34.9461 22.5738C31.9036 24.4518 28.8791 26.3827 25.9991 28.4811C24.5275 29.548 23.2454 30.9411 22.1259 32.3782C20.8529 34.0182 21.0064 35.3672 22.3697 36.9718C24.067 38.9645 26.3241 40.2429 28.6624 41.3362C30.6035 42.2444 32.6891 42.8528 34.6663 43.6992C36.3726 44.4222 38.0609 45.2245 39.677 46.1238C40.4354 46.5471 40.8958 47.3406 40.4354 48.284C40.0923 48.9982 39.1895 49.2186 38.1693 48.7601C34.901 47.2965 31.5876 45.9034 28.4096 44.2635C25.9991 43.0203 23.7149 41.539 21.4939 39.9961C20.0855 39.0174 19.0653 37.6067 18.4875 35.9491C17.8916 34.2562 17.8194 32.5986 19.0382 31.1527C20.3112 29.6361 21.6113 28.1284 23.0558 26.7706C24.0851 25.8008 25.3129 25.0161 26.5318 24.2666C30.5674 21.7891 34.4496 19.1263 37.8172 15.8023C38.1602 15.4585 38.7561 15.3527 39.5325 15H39.5145Z" fill="#372120"/>
<path d="M30.0244 36.8925C29.5639 36.4693 28.9681 36.0813 28.5979 35.5435C28.1375 34.8822 28.7695 33.6479 29.5278 33.5244C29.8077 33.4803 30.1056 33.401 30.3765 33.4539C37.4276 34.9704 44.4607 33.7977 51.4937 33.3216C53.3626 33.1982 55.2315 33.0307 57.1003 32.8984C57.6781 32.8543 58.256 32.8191 58.8338 32.8455C60.1248 32.9072 60.9283 33.5068 61.0547 34.4414C61.1992 35.4994 60.3325 36.196 58.7254 36.2577C52.2431 36.5134 45.7608 36.8131 39.2784 36.9895C36.2539 37.0777 33.2204 36.9278 30.0334 36.8925H30.0244Z" fill="#372120"/>
</svg>
