<svg width="80" height="64" viewBox="0 0 80 64" fill="none" xmlns="http://www.w3.org/2000/svg">
<path d="M40.5558 49C40.4023 48.1977 40.0683 47.5717 40.2579 47.219C41.4858 44.9883 42.8219 42.8546 45.1242 41.4262C48.1667 39.5482 51.1912 37.6173 54.0712 35.5189C55.5428 34.452 56.8249 33.0589 57.9444 31.6218C59.2174 29.9818 59.0639 28.6328 57.7006 27.0282C56.0033 25.0355 53.7462 23.7571 51.4079 22.6638C49.4668 21.7556 47.3812 21.1472 45.404 20.3008C43.6977 19.5778 42.0094 18.7755 40.3933 17.8762C39.6349 17.4529 39.1745 16.6594 39.6349 15.716C39.978 15.0018 40.8809 14.7814 41.9011 15.2399C45.1693 16.7035 48.4827 18.0966 51.6607 19.7365C54.0712 20.9797 56.3554 22.461 58.5764 24.0039C59.9848 24.9826 61.005 26.3933 61.5828 28.0509C62.1787 29.7438 62.2509 31.4014 61.0321 32.8473C59.7591 34.3639 58.459 35.8716 57.0145 37.2294C55.9852 38.1992 54.7574 38.9839 53.5386 39.7334C49.5029 42.2109 45.6207 44.8737 42.2532 48.1977C41.9101 48.5415 41.3142 48.6473 40.5378 49H40.5558Z" fill="#372120"/>
<path d="M50.0459 27.1075C50.5064 27.5307 51.1022 27.9187 51.4724 28.4565C51.9328 29.1178 51.3009 30.3521 50.5425 30.4756C50.2626 30.5197 49.9647 30.599 49.6938 30.5461C42.6427 29.0296 35.6096 30.2023 28.5766 30.6784C26.7077 30.8018 24.8388 30.9693 22.97 31.1016C22.3922 31.1457 21.8144 31.1809 21.2365 31.1545C19.9455 31.0928 19.142 30.4932 19.0156 29.5586C18.8711 28.5006 19.7378 27.804 21.3449 27.7423C27.8272 27.4866 34.3096 27.1869 40.7919 27.0105C43.8164 26.9223 46.8499 27.0722 50.0369 27.1075H50.0459Z" fill="#372120"/>
</svg>
