<svg width="41" height="40" viewBox="0 0 41 40" fill="none" xmlns="http://www.w3.org/2000/svg">
<path fill-rule="evenodd" clip-rule="evenodd" d="M20.5983 0C9.66333 0 0.798828 8.85663 0.798828 19.7818C0.798828 30.7069 9.66333 39.5634 20.5983 39.5634C31.5334 39.5634 40.3979 30.7069 40.3979 19.7818C40.3979 8.85663 31.5334 0 20.5983 0ZM12.8264 13.6001H28.3352C29.1577 13.6001 28.7344 14.6546 28.2867 14.9252C27.8391 15.1949 21.6429 18.9372 21.4119 19.0761C21.1809 19.2149 20.882 19.2813 20.5812 19.2813C20.2804 19.2813 19.9814 19.2149 19.7505 19.0761C19.5195 18.9372 13.3232 15.1949 12.8756 14.9252C12.4281 14.6546 12.0046 13.6001 12.8264 13.6001ZM28.8473 24.9338C28.8473 25.3664 28.3282 25.9641 27.9306 25.9641H13.2643C12.8668 25.9641 12.3477 25.3664 12.3477 24.9338C12.3477 24.9338 12.3477 17.6095 12.3477 17.4193C12.3477 17.2302 12.3441 16.9837 12.7021 17.194C13.2106 17.4918 19.4373 21.1607 19.7489 21.3438C20.0603 21.5269 20.2787 21.5489 20.5796 21.5489C20.8803 21.5489 21.0987 21.5269 21.4103 21.3438C21.7219 21.1607 27.9844 17.4928 28.4928 17.195C28.8508 16.9847 28.8473 17.2312 28.8473 17.4203C28.8473 17.6105 28.8473 24.9338 28.8473 24.9338Z" fill="white"/>
</svg>
