<svg width="64" height="64" viewBox="0 0 64 64" fill="none" xmlns="http://www.w3.org/2000/svg">
<path d="M19.1081 36.9852C19.2574 35.2183 18.8741 30.1567 18.4867 28.3538C15.8073 28.0068 13.2087 29.0838 10.5777 28.9322C10.2791 29.5704 10.7149 29.71 11.0216 29.8855C11.5583 30.1926 12.1353 30.4279 12.6478 30.767C13.249 31.1658 13.4024 31.8439 13.0957 32.3704C12.7406 32.9846 11.9255 33.2798 11.296 32.9966C11.0902 32.9049 10.9167 32.7373 10.723 32.6177C9.67788 31.9636 8.62469 31.3174 7.58361 30.6553C7.19623 30.408 6.80078 30.1527 6.46183 29.8456C5.92111 29.355 5.86058 28.8046 6.252 28.1983C6.45779 27.8752 6.70797 27.5801 6.95412 27.2849C7.81765 26.2558 8.32205 25.0792 8.5682 23.7669C8.66504 23.2564 8.84663 22.7379 9.09681 22.2792C9.32681 21.8604 10.1177 21.7048 10.5535 22.0159C10.8198 22.2074 11.0983 22.6342 11.0741 22.9333C10.9974 23.8387 10.7754 24.7362 10.61 25.6336C10.5414 26.0085 10.4728 26.3835 10.376 26.914C12.9988 27.2051 15.4886 26.8023 18.0711 26.3196C18.1316 25.9886 18.2567 25.6974 18.2285 25.4222C17.833 21.6131 17.4174 17.8079 17.0098 13.9988C16.9695 13.6199 16.9049 13.237 16.9332 12.862C16.9695 12.3515 17.3205 12.0284 17.7967 11.8968C18.3132 11.7532 18.7651 12.0204 18.9629 12.4392C19.1808 12.9019 19.2695 13.4484 19.3099 13.9629C19.5641 17.094 19.778 20.229 20.0403 23.3561C20.1089 24.1817 20.2864 24.9954 20.4317 25.9367C20.924 25.9367 21.2992 25.9766 21.6664 25.9288C27.7959 25.139 33.9254 24.3373 40.1436 23.5276C40.4139 21.1504 39.6029 19.0643 39.163 16.6592C38.7837 17.0461 38.5658 17.2934 38.3197 17.5128C37.7991 17.9834 37.2019 17.9834 36.5926 17.7122C36.0963 17.4888 35.9793 17.0261 36.0237 16.5555C36.1931 14.7247 36.3424 12.8939 36.6007 11.0751C36.754 10.0102 37.8516 9.66713 38.7272 10.3612C39.3285 10.8398 39.8773 11.3902 40.4099 11.9446C41.4671 13.0495 42.3629 14.2939 43.7349 15.1156C44.6469 15.662 44.6791 16.5954 44.0375 17.2774C43.63 17.7082 43.1579 17.8957 42.5889 17.5686C42.3307 17.421 42.0805 17.2655 41.6084 16.9863C41.5398 19.184 42.2015 21.0467 42.3468 23.045C42.718 23.1248 43.0126 23.2644 43.287 23.2364C46.8339 22.8775 50.3809 22.5225 53.9197 22.1037C55.324 21.9361 55.3159 21.8683 56.5224 20.8074C57.3981 21.0307 58.0235 21.4775 57.9993 22.5703C57.0349 23.4678 55.7598 23.5755 54.5734 23.755C52.9674 23.9983 51.3332 24.0342 49.711 24.1857C47.7862 24.3692 45.8615 24.5686 43.9367 24.788C43.5654 24.8279 43.2063 24.9795 42.71 25.1151C42.4921 28.1305 42.9844 31.0581 43.1861 34.1334C46.035 34.3408 48.6821 33.7544 51.3291 33.8542C51.5188 32.9368 50.7642 32.8889 50.4414 32.5259C50.1024 32.147 49.9451 31.7601 50.0903 31.2735C50.2316 30.8108 50.8207 30.4758 51.4058 30.5516C51.7044 30.5915 52.0474 30.6393 52.2814 30.8069C53.6171 31.7641 55.1303 32.3425 56.6516 32.9208C56.8614 33.0006 57.0632 33.1282 57.2407 33.2718C57.8056 33.7345 57.8944 34.5482 57.4263 35.1225C57.1842 35.4177 56.926 35.7408 56.6031 35.9243C55.788 36.3949 55.0617 36.9294 54.4847 37.6832C54.3152 37.9066 53.9883 38.0382 53.7059 38.1379C52.9755 38.3892 52.2532 37.9824 52.1362 37.2325C52.0676 36.8018 52.1241 36.351 52.1241 35.9203C49.4528 35.4975 45.4216 35.6849 43.6502 36.3072C43.4282 40.1562 44.893 47.6987 46.7774 52.2736C46.5636 52.497 46.3578 52.84 46.0551 53.0155C45.3207 53.4343 44.8688 53.3067 44.5137 52.6406C44.2635 52.1699 43.9972 51.6793 43.8842 51.1648C43.5654 49.7448 43.2709 48.3169 43.057 46.877C42.5808 43.6941 42.1612 40.5072 41.7133 37.3203C41.6729 37.0291 41.5841 36.7419 41.5196 36.4428C41.2452 36.367 41.0313 36.2553 40.8134 36.2513C40.1153 36.2394 39.4092 36.2114 38.7232 36.2912C33.2676 36.9493 27.812 37.6314 22.3605 38.3214C22.0659 38.3573 21.7915 38.5129 21.4566 38.6325C21.2347 39.8012 21.1862 40.9459 21.4203 42.0747C21.8521 44.1448 21.3355 46.3705 22.4291 48.3568C22.9644 48.0191 23.4339 47.47 23.8374 46.7095C24.2167 45.9955 24.6121 45.7841 25.3102 45.9237C26.2423 46.1072 26.7266 47.0047 26.3271 47.8423C26.198 48.1135 26.0366 48.4087 25.8065 48.5921C24.6283 49.5414 24.2611 50.8377 24.136 52.2497C24.1158 52.4771 24.0956 52.7084 24.0391 52.9318C23.7647 53.9528 22.6349 54.3677 21.8642 53.6138C20.8029 52.5768 19.6529 51.6913 18.3697 50.9694C17.6998 50.5944 16.9614 50.3352 16.2835 49.9682C15.5894 49.5933 15.3231 48.9471 15.5814 48.4645C15.9284 47.8223 16.6789 47.4634 17.3326 47.6748C17.6958 47.7944 18.0267 48.0058 18.3818 48.1653C18.9225 48.4087 19.4673 48.636 20.0967 48.9072C19.7901 45.5009 19.4955 42.2422 19.1888 38.836C18.632 38.836 18.1881 38.808 17.7483 38.8399C15.198 39.0314 12.6478 39.2548 10.0975 39.4342C9.18558 39.4981 8.25345 39.6097 7.40203 39.2627C7.10342 38.5966 7.53115 38.2775 7.96695 38.1898C9.32681 37.9186 10.7028 37.6832 12.0829 37.5436C14.3829 37.3123 16.691 37.1647 19.1243 36.9733L19.1081 36.9852ZM40.5794 25.0872C38.0937 25.3664 35.8663 25.5818 33.655 25.8769C31.5123 26.1641 29.3817 26.551 27.239 26.8621C25.0479 27.1812 22.8245 27.3048 20.5204 27.8792C20.7706 30.7829 20.8715 33.575 21.3154 36.4508C23.6598 36.5106 25.8671 36.1676 28.0743 35.9522C30.2251 35.7408 32.3637 35.4017 34.5145 35.1744C36.7217 34.9391 38.9371 34.7676 41.1201 34.5681C41.2492 34.2371 41.4147 34.0257 41.3985 33.8262C41.1564 31.0262 41.1322 28.1983 40.5794 25.0911V25.0872Z" fill="#372120"/>
</svg>
