<svg width="64" height="64" viewBox="0 0 64 64" fill="none" xmlns="http://www.w3.org/2000/svg">
<path d="M22.4736 16.8442C24.0492 14.2299 25.5641 10.949 27.8235 8.30875C29.0873 6.82846 31.6324 5.61653 33.5368 5.7031C36.03 5.81563 36.8264 8.41263 37.1553 10.8019C37.441 12.8275 37.8392 14.8445 38.2374 16.8615C39.2502 21.917 39.8129 22.3845 45.0502 22.7827C47.0931 22.9385 49.1707 22.9212 51.1704 23.3194C53.8107 23.8474 56.6501 24.4014 57.1695 27.7949C57.5763 30.4438 55.0919 34.4345 52.2006 35.482C50.5039 36.0966 48.634 36.287 46.8248 36.5467C43.163 37.0748 42.9206 37.6721 43.9075 41.178C44.6779 43.9222 45.3878 46.8568 45.2233 49.6615C45.0069 53.3406 42.5138 54.4054 39.6744 52.1027C37.0255 49.9559 34.818 47.2463 32.524 44.684C29.1046 40.8664 28.6458 40.7885 24.5512 43.6192C22.7766 44.8398 21.002 46.1296 19.0456 47.0039C16.6304 48.086 13.9642 48.0168 12.1809 45.8699C10.363 43.6711 11.6788 41.3858 12.9427 39.3082C13.1678 38.9446 13.4707 38.6243 13.7651 38.3127C18.6128 33.1706 17.8077 33.2745 13.2543 28.5566C11.6528 26.8946 10.0773 24.9468 9.25495 22.8346C8.04302 19.7182 9.46271 17.3809 12.7869 16.9481C15.9292 16.5412 19.1582 16.8615 22.4563 16.8615L22.4736 16.8442ZM23.2787 20.7397C20.4393 19.9606 18.102 19.0257 15.7042 18.7919C14.2931 18.6534 11.826 19.294 11.5143 20.177C11.0555 21.4842 11.6875 23.5877 12.5618 24.8689C13.8776 26.7993 15.834 28.2796 17.4701 29.9936C19.565 32.2011 19.8853 34.4345 17.6173 36.8064C16.3534 38.1309 15.0722 39.5073 14.1892 41.0828C13.6439 42.0523 13.3063 44.078 13.817 44.5022C14.7865 45.3159 16.6477 45.9305 17.7471 45.5323C20.0411 44.7186 22.1534 43.2989 24.205 41.9312C28.6891 38.936 29.9184 39.0918 33.2945 43.2816C35.121 45.5496 36.9216 47.8523 38.9386 49.9386C39.7523 50.7782 41.1114 51.0985 42.2281 51.6526C42.7735 50.432 43.8469 49.1768 43.7603 48.0081C43.5872 45.6881 42.8687 43.3855 42.2195 41.1174C41.1114 37.2393 42.0463 35.8369 46.1063 35.2742C47.9069 35.0232 50.1749 35.1184 51.3522 34.0709C53.1268 32.4954 54.1223 30.0542 55.4555 27.9853C53.6722 26.9898 51.9928 25.5788 50.0797 25.1113C47.4914 24.4794 44.7299 24.6006 42.0377 24.3495C39.3281 24.0985 37.7267 22.6442 37.2419 19.926C36.6792 16.7403 36.0905 13.5547 35.4153 10.395C34.7055 7.08816 32.3249 6.17056 30.1607 8.72427C27.91 11.3819 26.3518 14.6281 24.5859 17.6752C23.9193 18.8266 23.5211 20.1337 23.2787 20.7224V20.7397Z" fill="#372120"/>
<path d="M5.09045 36.8755C7.66148 34.9364 10.2325 33.006 12.8122 31.0669C13.0805 34.5036 8.39729 37.9403 5.09045 36.8755Z" fill="#372120"/>
<path d="M54.3821 5.57324C53.8627 8.1183 50.3741 11.7108 47.1365 13.2777C46.6517 11.1741 50.5472 6.91502 54.3821 5.57324Z" fill="#372120"/>
<path d="M49.9839 41.9053C52.6588 42.8835 55.3251 43.8617 58 44.8485C55.6973 46.5019 51.369 44.9784 49.5944 42.8921C49.7242 42.5632 49.8541 42.2342 49.9839 41.9053Z" fill="#372120"/>
<path d="M19.2264 15.0521C16.6727 12.1608 14.673 9.89279 12.4656 7.38236C15.5906 7.1746 19.0793 10.8796 19.2264 15.0521Z" fill="#372120"/>
<path d="M25.4775 59.426C26.1268 56.8636 26.7674 54.2926 27.5638 51.1416C29.3903 53.9464 28.4814 57.963 25.4775 59.426Z" fill="#372120"/>
</svg>
