<svg width="64" height="64" viewBox="0 0 64 64" fill="none" xmlns="http://www.w3.org/2000/svg"><path d="M22.474 16.844c1.575-2.614 3.09-5.895 5.35-8.535 1.263-1.48 3.808-2.692 5.713-2.606 2.493.113 3.29 2.71 3.618 5.099.286 2.026.684 4.043 1.082 6.06 1.013 5.055 1.576 5.523 6.813 5.92 2.043.157 4.12.14 6.12.537 2.64.528 5.48 1.082 6 4.476.406 2.649-2.078 6.64-4.97 7.687-1.696.615-3.566.805-5.375 1.065-3.662.528-3.904 1.125-2.918 4.631.77 2.744 1.48 5.679 1.316 8.483-.216 3.68-2.71 4.744-5.549 2.442-2.648-2.147-4.856-4.857-7.15-7.419-3.42-3.818-3.878-3.895-7.973-1.065-1.774 1.22-3.549 2.51-5.505 3.385-2.416 1.082-5.082 1.013-6.865-1.134-1.818-2.199-.502-4.484.762-6.562.225-.363.528-.684.822-.995 4.848-5.142 4.043-5.038-.51-9.756-1.602-1.662-3.178-3.61-4-5.722-1.212-3.117.208-5.454 3.532-5.887 3.142-.407 6.371-.087 9.67-.087l.017-.017zm.805 3.896c-2.84-.78-5.177-1.714-7.575-1.948-1.41-.139-3.878.502-4.19 1.385-.458 1.307.174 3.41 1.048 4.692 1.316 1.93 3.272 3.41 4.908 5.125 2.095 2.207 2.415 4.44.147 6.812-1.264 1.325-2.545 2.701-3.428 4.277-.545.97-.883 2.995-.372 3.42.97.813 2.83 1.428 3.93 1.03 2.294-.814 4.406-2.234 6.458-3.602 4.484-2.995 5.713-2.84 9.09 1.35 1.826 2.269 3.627 4.571 5.644 6.658.813.84 2.172 1.16 3.29 1.714.544-1.221 1.618-2.476 1.531-3.645-.173-2.32-.891-4.623-1.54-6.89-1.109-3.879-.174-5.281 3.886-5.844 1.8-.25 4.069-.156 5.246-1.203 1.775-1.576 2.77-4.017 4.104-6.086-1.784-.995-3.463-2.406-5.376-2.874-2.589-.632-5.35-.51-8.042-.762-2.71-.25-4.311-1.705-4.796-4.423-.563-3.186-1.151-6.371-1.827-9.531-.71-3.307-3.09-4.224-5.254-1.67-2.251 2.657-3.81 5.903-5.575 8.95-.667 1.152-1.065 2.459-1.307 3.047v.018z" fill="#372120"/><path d="M5.09 36.876c2.571-1.94 5.143-3.87 7.722-5.81.269 3.438-4.415 6.874-7.722 5.81zM54.382 5.573c-.52 2.545-4.008 6.138-7.245 7.705-.485-2.104 3.41-6.363 7.245-7.705zm-4.398 36.332c2.675.978 5.341 1.957 8.016 2.944-2.303 1.653-6.631.13-8.406-1.957l.39-.987zM19.226 15.052c-2.553-2.891-4.553-5.16-6.76-7.67 3.125-.207 6.613 3.498 6.76 7.67zm6.251 44.374c.65-2.562 1.29-5.133 2.087-8.284 1.826 2.804.917 6.821-2.087 8.284z" fill="#372120"/></svg>