<svg width="64" height="64" viewBox="0 0 64 64" fill="none" xmlns="http://www.w3.org/2000/svg"><path d="M38.676 45.742c-.166 5.466-3.1 8.896-7.924 10.787-.93.361-2.334.392-3.12-.093-.547-.331-.784-1.901-.536-2.728 2.169-7.18 2.469-10.394-7.996-10.042-4.4.155-7.861-2.087-10.082-6.055-3.13-5.558-3.843-11.478-2.056-17.512 1.312-4.422 4.318-7.718 9.05-8.637 8.212-1.602 16.424-3.565 24.73-4.216 10.34-.805 20.05 9.03 16.518 21.728-2.345 8.41-7.159 14.485-16.353 16.035-.744.124-1.446.465-2.22.733h-.011zm-2.955-3.006c8.46-1.064 14.762-4.494 18.171-12.357 4.99-11.51-1.022-20.736-13.47-19.744-7.417.59-14.824 1.922-22.107 3.513-7.417 1.622-10.465 7.418-9.277 16.138 1.106 8.08 3.73 10.25 12.355 10.228 6.033-.01 9.38 3.296 9.432 9.268 0 .785.155 1.57.268 2.686 3.833-2.345 5.382-5.31 4.628-9.743v.01z" fill="#372120"/><path d="M29.046 35.674c-1.797-1.943-3.368-3.451-4.69-5.156-1.157-1.488-2.53-3.11-2.872-4.845-.361-1.808-.258-4.629.847-5.57 1.343-1.136 3.957-.846 6.044-1.012 1.673-.134.743 4.33 2.427 4.484 1.756.166 6.767-4.473 7.696-3.43 1.116 1.24 1.25 3.596 1.281 5.476.02.95-.95 2.128-1.777 2.841-2.892 2.48-5.919 4.794-8.946 7.222l-.01-.01z" fill="#372120"/></svg>