<svg width="32" height="32" viewBox="0 0 32 32" fill="none" xmlns="http://www.w3.org/2000/svg"><path d="M9.333 16.667l4 4 9.334-9.334" stroke="#264432" stroke-width="1.5" stroke-linecap="round" stroke-linejoin="round"/><path d="M14.153 3.478a2.375 2.375 0 013.694 0 3.875 3.875 0 004.02 1.306 2.375 2.375 0 012.988 2.17 3.875 3.875 0 002.484 3.42 2.375 2.375 0 011.141 3.513 3.875 3.875 0 000 4.226 2.375 2.375 0 01-1.141 3.513 3.875 3.875 0 00-2.484 3.42 2.375 2.375 0 01-2.989 2.17 3.875 3.875 0 00-4.02 1.306 2.375 2.375 0 01-3.693 0 3.875 3.875 0 00-4.02-1.306 2.375 2.375 0 01-2.988-2.17 3.875 3.875 0 00-2.484-3.42 2.375 2.375 0 01-1.141-3.513 3.875 3.875 0 000-4.226 2.375 2.375 0 011.141-3.513 3.875 3.875 0 002.484-3.42 2.375 2.375 0 012.989-2.17 3.875 3.875 0 004.02-1.306z" stroke="#264432" stroke-width="1.5"/></svg>