<svg width="80" height="64" viewBox="0 0 80 64" fill="none" xmlns="http://www.w3.org/2000/svg"><path d="M40.556 49c-.154-.802-.488-1.428-.298-1.781 1.228-2.23 2.564-4.364 4.866-5.793 3.043-1.878 6.067-3.809 8.947-5.907 1.472-1.067 2.754-2.46 3.873-3.897 1.273-1.64 1.12-2.99-.243-4.594-1.698-1.992-3.955-3.27-6.293-4.364-1.941-.908-4.027-1.517-6.004-2.363a52.206 52.206 0 01-5.01-2.425c-.76-.423-1.22-1.217-.76-2.16.344-.714 1.247-.935 2.267-.476 3.268 1.463 6.582 2.857 9.76 4.496 2.41 1.244 4.694 2.725 6.915 4.268 1.409.979 2.429 2.39 3.007 4.047.596 1.693.668 3.35-.55 4.796-1.274 1.517-2.574 3.025-4.019 4.382-1.029.97-2.257 1.755-3.475 2.504-4.036 2.478-7.918 5.14-11.286 8.465-.343.343-.939.45-1.715.802h.018z" fill="#372120"/><path d="M50.046 27.108c.46.423 1.056.81 1.426 1.348.46.662-.171 1.896-.93 2.02-.28.044-.577.123-.848.07-7.051-1.516-14.084-.344-21.117.132-1.87.124-3.738.291-5.607.424a14.24 14.24 0 01-1.733.052c-1.291-.061-2.095-.66-2.221-1.595-.145-1.058.722-1.755 2.329-1.817 6.482-.255 12.965-.555 19.447-.732 3.024-.088 6.058.062 9.245.098h.009z" fill="#372120"/></svg>