<svg width="80" height="64" viewBox="0 0 80 64" fill="none" xmlns="http://www.w3.org/2000/svg"><path d="M39.514 15c.154.802.488 1.428.298 1.781-1.227 2.23-2.564 4.364-4.866 5.793-3.042 1.878-6.067 3.809-8.947 5.907-1.471 1.067-2.754 2.46-3.873 3.897-1.273 1.64-1.12 2.99.244 4.594 1.697 1.992 3.954 3.27 6.292 4.364 1.942.908 4.027 1.517 6.004 2.363a52.206 52.206 0 015.011 2.425c.758.423 1.219 1.217.758 2.16-.343.714-1.245.935-2.266.476-3.268-1.463-6.581-2.857-9.76-4.496-2.41-1.244-4.694-2.725-6.915-4.268-1.409-.979-2.429-2.39-3.006-4.047-.596-1.693-.669-3.35.55-4.796 1.273-1.517 2.573-3.025 4.018-4.382 1.03-.97 2.257-1.755 3.476-2.504 4.035-2.478 7.918-5.14 11.285-8.465.343-.343.94-.45 1.715-.802h-.017z" fill="#372120"/><path d="M30.024 36.892c-.46-.423-1.056-.81-1.426-1.349-.46-.66.172-1.895.93-2.019.28-.044.578-.123.849-.07 7.05 1.516 14.084.344 21.117-.132 1.869-.124 3.737-.291 5.606-.424a14.351 14.351 0 011.734-.053c1.29.062 2.094.662 2.22 1.596.145 1.058-.721 1.755-2.329 1.817-6.482.255-12.964.555-19.447.731-3.024.089-6.058-.061-9.245-.096h-.009z" fill="#372120"/></svg>