<svg width="35" height="24" viewBox="0 0 35 24" fill="none" xmlns="http://www.w3.org/2000/svg"><path d="M24.418 9.94l-6.276.888-.004 2.275 6.275-.889-.012 6.824-8.367 1.185.004-2.275 6.275-.889.004-2.274-6.275.889.012-6.825 8.368-1.184-.004 2.274zm-16.731.094l-.004 2.275-2.092.296-.017 9.099 8.367-1.185.021-11.373-6.275.888zm4.175 3.957l-.004 2.274-.004 2.275-2.092.296-2.091.296.004-2.274.004-2.275.004-2.274 2.091-.296 2.092-.296-.004 2.274zm20.918-2.962l-4.184.592.009-4.549-2.092.296-.021 11.374 2.092-.297.008-4.549 4.184-.593-.009 4.55 2.092-.296.021-11.374-2.092.296-.008 4.55z" fill="#E8E5DE"/><path d="M34.884 3.909L31.402 2 2.117 6.147l-.004 2.274-2.092.297L0 20.091 3.482 22l.02-11.373 2.093-.297.004-2.275 29.285-4.146z" fill="#E8E5DE"/></svg>