<svg width="41" height="40" viewBox="0 0 41 40" fill="none" xmlns="http://www.w3.org/2000/svg"><path fill-rule="evenodd" clip-rule="evenodd" d="M20.598 0C9.663 0 .798 8.857.798 19.782s8.865 19.781 19.8 19.781 19.8-8.856 19.8-19.781C40.398 8.857 31.533 0 20.598 0zm-7.772 13.6h15.51c.822 0 .398 1.055-.05 1.325l-6.874 4.151c-.231.139-.53.205-.83.205-.302 0-.6-.066-.832-.205l-6.874-4.15c-.448-.271-.871-1.326-.05-1.326zm16.021 11.334c0 .432-.519 1.03-.916 1.03H13.264c-.397 0-.916-.598-.916-1.03v-7.515c0-.189-.004-.435.354-.225.509.298 6.735 3.967 7.047 4.15.311.183.53.205.83.205.301 0 .52-.022.831-.205l7.083-4.149c.358-.21.354.036.354.225v7.514z" fill="#fff"/></svg>