<svg width="64" height="64" viewBox="0 0 64 64" fill="none" xmlns="http://www.w3.org/2000/svg"><path d="M35.436 42.536c4.318-1.55 8.323-3.61 10.19-8.159 1.997-4.86 1.633-9.649-1.716-13.788-3.561-4.4-8.666-4.91-13.8-4.08-5.7.93-10.311 4.08-13.62 8.71-3.592 5.009-3.208 11.418.504 16.048 7.97 9.919 26.825 9.439 32.747-1.72 6.205-11.69 6.285-24.398-11.571-28.177C24.58 8.5 10.043 19.359 9.226 33.027c-.676 11.31 5.377 19.088 16.777 20.638 4.661.64 9.514.15 14.255-.16 5.488-.37 9.352-3.36 11.753-8.219 1.05-2.13 1.947-4.34 3.137-6.38.404-.69 1.473-1 2.24-1.489.202.83.797 1.81.555 2.48-3.067 8.209-7.405 15.398-17.402 15.858-6.094.28-12.55.64-18.3-.95C7.177 50.625 1.7 35.797 9.608 22.308 16.591 10.41 37.07 3.26 50.326 14.98c3.753 3.32 5.892 7.13 5.62 12.419-.505 9.939-3.995 17.788-13.993 21.408-10.139 3.67-19.158 1.08-26.896-5.91-3.35-3.03-4.287-7.349-3.632-11.728 1.988-13.27 19.209-21.288 30.901-14.479 9.2 5.36 9.836 18.328 1.19 24.518-4.71 3.37-9.866 4.78-15.687 3.77-4.974-.86-8.353-3.52-9.675-8.31-1.341-4.89-.595-9.799 3.259-13.109 2.704-2.32 6.456-3.89 9.997-4.69 4.752-1.08 8.888 1.44 10.987 5.47 2.038 3.91 1.402 9.24-1.352 12.629-1.665 2.05-3.148 4.26-4.711 6.39-.293-.27-.596-.54-.888-.82h-.01zm-5.76-8.839c.413.17.827.35 1.23.52.686-.8 1.836-1.55 1.947-2.42.232-1.79.505-4.08-.403-5.339-.555-.77-3.511-.51-4.964.17-2.936 1.37-4.52 5.77-3.39 8.76 1.241 3.269 3.935 4.799 7.365 4.849 3.127.05 7.91-3.73 8.968-7.17 1.15-3.75 1.1-7.479-1.977-10.448-3.107-3.01-6.709-2.33-10.19-.81a19.154 19.154 0 00-4.75 2.98c-3.3 2.849-4.157 8.428-2.18 12.778 1.917 4.21 5.327 6 10.886 5.3-1.736-.48-2.926-.74-4.066-1.14-6.79-2.42-8.807-9.12-4.47-14.749 2.795-3.64 7.355-4.5 10.644-2 2.946 2.24 2.895 6.33-.404 9.85-.968 1.04-2.612 1.47-3.944 2.169-.817-1.83-2.139-3.61-2.28-5.49-.111-1.43 1.271-2.96 1.997-4.449l1.272.57-1.271 6.09-.02-.02z" fill="#372120"/></svg>