<svg width="64" height="64" viewBox="0 0 64 64" fill="none" xmlns="http://www.w3.org/2000/svg"><path d="M19.108 36.985c.15-1.767-.234-6.828-.621-8.631-2.68-.347-5.278.73-7.91.578-.298.638.138.778.445.954.536.307 1.113.542 1.626.881.601.399.754 1.077.448 1.603-.355.615-1.17.91-1.8.627-.206-.092-.38-.26-.573-.38-1.045-.653-2.098-1.3-3.14-1.962-.387-.247-.782-.502-1.121-.81-.54-.49-.601-1.04-.21-1.647.206-.323.456-.618.702-.913.864-1.03 1.368-2.206 1.614-3.518.097-.51.279-1.03.529-1.488.23-.419 1.02-.574 1.457-.263.266.191.544.618.52.917-.077.906-.299 1.803-.464 2.7l-.234 1.281c2.623.291 5.113-.112 7.695-.594.06-.331.186-.623.157-.898-.395-3.809-.81-7.614-1.218-11.423-.04-.38-.105-.762-.077-1.137.037-.51.387-.834.864-.965.516-.144.968.123 1.166.542.218.463.306 1.01.347 1.524.254 3.131.468 6.266.73 9.393.069.826.246 1.64.392 2.58.492 0 .867.04 1.234-.007 6.13-.79 12.26-1.592 18.478-2.401.27-2.378-.541-4.464-.981-6.869-.38.387-.597.634-.843.854-.52.47-1.118.47-1.727.2-.497-.224-.614-.687-.57-1.158.17-1.83.32-3.661.578-5.48.153-1.065 1.25-1.408 2.126-.714.602.479 1.15 1.03 1.683 1.584 1.057 1.104 1.953 2.349 3.325 3.17.912.547.944 1.48.303 2.162-.408.431-.88.619-1.45.292-.257-.148-.508-.303-.98-.583-.068 2.198.594 4.06.739 6.059.371.08.666.22.94.191 3.547-.358 7.094-.713 10.633-1.132 1.404-.168 1.396-.236 2.602-1.297.876.224 1.502.67 1.477 1.763-.964.898-2.24 1.006-3.426 1.185-1.606.243-3.24.28-4.862.43-1.925.184-3.85.384-5.774.603-.372.04-.73.192-1.227.327-.218 3.016.274 5.943.476 9.018 2.849.208 5.496-.379 8.143-.279.19-.917-.565-.965-.888-1.328-.339-.379-.496-.766-.35-1.253.14-.462.73-.797 1.315-.721.298.04.641.087.875.255 1.336.957 2.85 1.536 4.37 2.114.21.08.412.207.59.35.565.463.653 1.277.185 1.852-.242.295-.5.618-.823.801-.815.47-1.541 1.005-2.118 1.76-.17.223-.497.354-.78.454-.73.251-1.452-.156-1.569-.905-.068-.431-.012-.882-.012-1.313-2.671-.422-6.702-.235-8.474.387-.222 3.85 1.243 11.392 3.127 15.967-.213.223-.42.566-.722.742-.734.418-1.186.29-1.541-.375-.25-.471-.517-.962-.63-1.476-.319-1.42-.613-2.848-.827-4.288-.476-3.183-.896-6.37-1.344-9.557-.04-.29-.129-.578-.193-.877-.275-.076-.489-.188-.707-.192-.698-.012-1.404-.04-2.09.04-5.455.658-10.911 1.34-16.363 2.03-.294.036-.569.192-.903.312-.222 1.168-.27 2.313-.037 3.442.432 2.07-.085 4.295 1.01 6.282.534-.338 1.004-.887 1.407-1.648.38-.714.775-.925 1.473-.785.932.183 1.417 1.08 1.017 1.918-.129.272-.29.567-.52.75-1.179.95-1.546 2.246-1.671 3.658-.02.227-.04.458-.097.682-.274 1.02-1.404 1.436-2.175.682a16.692 16.692 0 00-3.494-2.645c-.67-.375-1.409-.634-2.087-1-.694-.376-.96-1.022-.702-1.505.347-.642 1.098-1 1.752-.79.363.12.694.332 1.049.491.54.244 1.085.471 1.715.742-.307-3.406-.602-6.665-.908-10.071-.557 0-1-.028-1.44.004-2.551.191-5.101.415-7.651.594-.912.064-1.845.176-2.696-.171-.299-.666.13-.985.565-1.073 1.36-.271 2.736-.507 4.116-.646 2.3-.232 4.608-.38 7.041-.57l-.016.011zM40.58 25.087c-2.485.28-4.713.495-6.924.79-2.143.287-4.273.674-6.416.985-2.191.32-4.415.443-6.719 1.017.25 2.904.352 5.696.795 8.572 2.345.06 4.552-.283 6.76-.499 2.15-.211 4.289-.55 6.44-.778 2.207-.235 4.422-.406 6.605-.606.13-.33.295-.542.279-.742-.243-2.8-.267-5.628-.82-8.735v-.004z" fill="#372120"/></svg>