<svg width="41" height="40" viewBox="0 0 41 40" fill="none" xmlns="http://www.w3.org/2000/svg"><path fill-rule="evenodd" clip-rule="evenodd" d="M26.588 19.782a6.184 6.184 0 01-6.188 6.182 6.184 6.184 0 01-6.187-6.182c0-.353.037-.697.1-1.03H12.15v8.236c0 .573.464 1.036 1.038 1.036h14.427c.571 0 1.035-.463 1.035-1.036v-8.236h-2.163c.064.333.1.677.1 1.03zM20.4 23.903a4.125 4.125 0 004.125-4.121 4.125 4.125 0 00-8.25 0 4.125 4.125 0 004.125 4.121zm4.95-8.449h2.472a.62.62 0 00.621-.618v-2.47a.621.621 0 00-.62-.62h-2.474a.621.621 0 00-.62.62v2.47c.002.34.28.618.62.618zM20.4 0C9.463 0 .6 8.856.6 19.782c0 10.925 8.864 19.781 19.8 19.781 10.934 0 19.799-8.856 19.799-19.781C40.199 8.856 31.334 0 20.399 0zm10.312 27.795c0 1.26-1.03 2.29-2.29 2.29H12.378a2.297 2.297 0 01-2.291-2.29V11.768c0-1.26 1.031-2.29 2.291-2.29H28.42c1.26 0 2.291 1.03 2.291 2.29v16.027z" fill="#fff"/></svg>