<svg width="40" height="40" viewBox="0 0 40 40" fill="none" xmlns="http://www.w3.org/2000/svg"><path fill-rule="evenodd" clip-rule="evenodd" d="M19.999 0C9.064 0 .199 8.856.199 19.782.2 30.707 9.064 39.563 20 39.563s19.8-8.856 19.8-19.781C39.798 8.856 30.933 0 19.998 0zm1.356 24.47c-1.27-.097-1.803-.726-2.797-1.327-.547 2.866-1.215 5.615-3.195 7.051-.612-4.335.895-7.587 1.596-11.043-1.194-2.009.143-6.05 2.663-5.056 3.1 1.228-2.685 7.47 1.198 8.25 4.055.812 5.711-7.03 3.197-9.577-3.634-3.683-10.574-.085-9.72 5.186.206 1.288 1.54 1.68.532 3.458-2.324-.515-3.02-2.347-2.929-4.79.143-3.997 3.595-6.797 7.056-7.182 4.378-.487 8.487 1.605 9.056 5.722.637 4.644-1.978 9.67-6.657 9.308z" fill="#fff"/></svg>