<svg width="198" height="395" viewBox="0 0 198 395" fill="none" xmlns="http://www.w3.org/2000/svg">
<path d="M104.597 182.608C104.597 182.966 104.597 183.323 104.597 183.681C104.597 183.682 104.597 183.682 104.597 183.683L104.653 203.816L104.653 203.817L104.816 244.075L104.816 244.077C104.841 257.492 104.835 270.912 104.678 284.314L104.678 284.315C104.597 291.012 104.484 297.713 104.274 304.392C104.227 306.061 104.168 307.731 104.096 309.395C104.046 310.796 103.974 312.189 103.903 313.571C103.889 313.84 103.875 314.11 103.861 314.378C103.831 315.033 103.788 315.684 103.746 316.323C103.734 316.505 103.722 316.686 103.71 316.865L103.709 316.873H103.709C103.69 317.139 103.672 317.417 103.655 317.701C103.62 318.245 103.585 318.81 103.533 319.346C103.533 319.348 103.532 319.35 103.532 319.352L103.324 321.768L103.322 321.782L103.321 321.796L103.164 323.158L109.309 323.849L109.424 322.25L109.533 319.67L109.534 319.661C109.561 319.121 109.57 318.609 109.58 318.08C109.586 317.768 109.592 317.449 109.601 317.116C109.605 316.943 109.609 316.772 109.613 316.601C109.629 315.918 109.645 315.249 109.645 314.584V314.574C109.661 312.877 109.673 311.183 109.661 309.504L109.661 309.496C109.661 307.807 109.645 306.124 109.62 304.442L109.62 304.44C109.533 297.699 109.351 290.983 109.139 284.263L104.597 182.608ZM104.597 182.608C104.612 182.963 104.628 183.318 104.643 183.672L104.643 183.676L105.581 203.782L105.581 203.783L107.51 244.005C107.51 244.006 107.51 244.006 107.51 244.007C108.123 257.42 108.708 270.831 109.139 284.263L104.597 182.608Z" fill="#F7F6F2" stroke="#264432" stroke-width="2" stroke-linecap="round"/>
<path d="M4.56496 105.653C15.4765 102.907 27.4766 104.905 37.7711 109.897C49.4102 115.541 59.0775 124.684 67.4484 134.715C87.3296 158.543 102.634 191.554 103.226 223.254C99.8854 211.176 93.5804 201.028 86.4083 189.484C86.0712 188.941 85.7321 188.395 85.3914 187.846C76.6684 173.786 67.8382 159.661 58.18 146.124L57.4696 146.63L58.18 146.124C44.9597 127.593 27.0143 109.68 4.56496 105.653Z" fill="#F7F6F2" stroke="#264432" stroke-width="2" stroke-linecap="round"/>
<mask id="path-3-inside-1_265_94" fill="white">
<path d="M104.016 257.061C103.04 244.97 100.961 225.711 88.3346 211.496C75.7082 197.282 56.556 189.108 37.5571 189.827C38.3325 189.799 53.82 201.059 56.2089 202.628C63.3445 207.316 72.0185 217.756 77.772 224.085C95.8892 244.013 102.412 275.982 103.797 274.194"/>
</mask>
<path d="M104.016 257.061C103.04 244.97 100.961 225.711 88.3346 211.496C75.7082 197.282 56.556 189.108 37.5571 189.827C38.3325 189.799 53.82 201.059 56.2089 202.628C63.3445 207.316 72.0185 217.756 77.772 224.085C95.8892 244.013 102.412 275.982 103.797 274.194" fill="#F7F6F2"/>
<path d="M102.022 257.222C102.111 258.323 103.076 259.144 104.177 259.055C105.278 258.966 106.098 258.002 106.009 256.901L102.022 257.222ZM37.5571 189.827L37.4814 187.828L37.6296 191.826L37.5571 189.827ZM56.2089 202.628L55.1107 204.3L55.1109 204.3L56.2089 202.628ZM77.772 224.085L76.2921 225.431L76.2922 225.431L77.772 224.085ZM105.378 275.418C106.055 274.545 105.895 273.289 105.022 272.612C104.148 271.936 102.892 272.096 102.216 272.969L105.378 275.418ZM106.009 256.901C105.036 244.833 102.946 224.935 89.8299 210.168L86.8393 212.825C98.9756 226.488 101.045 245.106 102.022 257.222L106.009 256.901ZM89.8299 210.168C76.8064 195.506 57.078 187.087 37.4814 187.828L37.6327 191.826C56.0341 191.129 74.61 199.057 86.8393 212.825L89.8299 210.168ZM37.6296 191.826C37.3621 191.835 37.163 191.786 37.1007 191.769C37.0166 191.748 36.9588 191.725 36.9391 191.718C36.8999 191.702 36.8969 191.698 36.9466 191.724C37.0404 191.773 37.2005 191.864 37.4372 192.009C37.9029 192.295 38.553 192.72 39.3456 193.254C40.925 194.317 42.9935 195.761 45.1258 197.263C49.3454 200.237 53.8804 203.492 55.1107 204.3L57.3072 200.957C56.1486 200.196 51.7453 197.035 47.4301 193.994C45.295 192.489 43.1969 191.025 41.5797 189.936C40.774 189.393 40.0682 188.931 39.5292 188.6C39.2635 188.437 39.009 188.288 38.7896 188.174C38.6827 188.118 38.5484 188.052 38.4049 187.996C38.3556 187.977 37.9679 187.811 37.4845 187.828L37.6296 191.826ZM55.1109 204.3C58.4724 206.508 62.2916 210.145 66.0573 214.117C69.8249 218.092 73.3573 222.202 76.2921 225.431L79.2519 222.74C76.4332 219.639 72.7519 215.365 68.9602 211.365C65.1667 207.363 61.081 203.436 57.307 200.957L55.1109 204.3ZM76.2922 225.431C85.1049 235.124 91.1583 247.828 95.1999 258.02C97.217 263.107 98.7099 267.505 99.8101 270.592C100.348 272.103 100.818 273.374 101.212 274.217C101.386 274.591 101.644 275.104 101.997 275.492C102.149 275.658 102.595 276.119 103.333 276.238C104.318 276.397 105.033 275.864 105.378 275.418L102.216 272.969C102.474 272.635 103.092 272.148 103.971 272.289C104.602 272.391 104.931 272.772 104.954 272.797C105.051 272.904 105.008 272.894 104.836 272.525C104.537 271.884 104.129 270.797 103.578 269.25C102.499 266.223 100.969 261.719 98.9182 256.546C94.8228 246.218 88.5562 232.974 79.2518 222.74L76.2922 225.431Z" fill="#264432" mask="url(#path-3-inside-1_265_94)"/>
<path d="M109.176 268.955C109.127 261.407 109.757 253.448 112.745 246.941L112.745 246.941C113.151 246.057 113.553 245.174 113.955 244.293C117.44 236.65 120.86 229.15 125.711 222.362C130.599 215.525 136.862 209.509 144.278 205.908C143.874 206.438 143.488 206.967 143.138 207.447L143.107 207.489C142.628 208.145 142.234 208.683 141.933 209.042C141.933 209.042 141.933 209.042 141.933 209.042L142.699 209.685M109.176 268.955L117.856 254.725C118.599 252.895 119.319 251.055 120.04 249.214C122.042 244.1 124.044 238.984 126.539 234.085C129.528 228.212 132.971 222.571 136.823 217.228M109.176 268.955C109.26 268.833 109.345 268.712 109.43 268.592C109.862 267.983 110.322 267.371 110.745 266.808C110.907 266.592 111.065 266.383 111.213 266.184C111.77 265.435 112.176 264.858 112.373 264.476L112.374 264.476C114.067 261.198 115.529 257.797 116.929 254.349L116.929 254.349C117.662 252.545 118.376 250.721 119.093 248.889C121.1 243.761 123.129 238.578 125.648 233.631L109.176 268.955ZM142.699 209.685C140.647 212.124 138.687 214.642 136.823 217.228M142.699 209.685C143.033 209.287 143.46 208.702 143.942 208.042C144.648 207.075 145.472 205.945 146.299 204.999L142.699 209.685ZM136.823 217.228L136.012 216.643L136.823 217.228Z" fill="#F7F6F2" stroke="#264432" stroke-width="2" stroke-linecap="round"/>
<path d="M178.835 92.2255C173.046 98.517 167.539 105.069 162.336 111.85C155.993 120.115 150.702 128.921 145.604 137.816C144.47 139.794 143.347 141.775 142.223 143.757C138.287 150.699 134.354 157.636 129.997 164.405L130.793 164.917L129.997 164.405C120.686 178.876 114.125 194.566 108.233 210.594C106.664 206.305 106.82 200.877 107.736 195.216C108.491 190.554 109.729 185.899 110.831 181.753C111.296 180.003 111.737 178.344 112.108 176.813C115.227 163.931 119.787 151.388 125.933 139.654L125.047 139.19L125.933 139.654C139.995 112.805 162.852 90.1387 190.698 78.5925C189.527 79.7223 188.363 80.9688 187.235 82.2442C185.6 84.0924 184.023 86.0216 182.596 87.7682L182.591 87.7735C181.157 89.5288 179.886 91.0837 178.835 92.2254L178.835 92.2255Z" fill="#F7F6F2" stroke="#264432" stroke-width="2" stroke-linecap="round"/>
<path d="M131.475 147.859L131.921 147.314C146.45 129.803 166.858 117.267 189.012 112.118C170.311 123.76 152.532 137.208 138.099 153.918C121.851 172.728 112.91 199.236 107.064 222.845C106.452 221.358 106.116 219.375 106.04 216.983C105.926 213.437 106.386 209.221 107.131 204.927C108.619 196.345 111.212 187.619 112.43 183.637L112.43 183.637C116.405 170.634 122.867 158.381 131.475 147.859Z" fill="#F7F6F2" stroke="#264432" stroke-width="2" stroke-linecap="round"/>
<path d="M37.5571 33.5352C53.6824 39.7358 78.4005 66.7552 86.4053 81.167C92.0337 91.3013 96.9429 103.799 99.1787 115.172C101.599 127.501 103.847 139.906 104.848 152.444C105.551 161.228 107.693 175.637 103.685 183.591C99.4038 176.847 99.1161 166.05 96.871 158.351C93.3345 146.234 89.4165 135.394 85.2077 123.496C71.834 85.7073 49.6237 40.9365 37.5602 33.5352H37.5571Z" fill="#F7F6F2" stroke="#264432" stroke-width="2" stroke-miterlimit="10" stroke-linecap="round"/>
<mask id="path-9-inside-2_265_94" fill="white">
<path d="M108.178 164.234C135.404 115.063 120.945 52.416 141.229 0C122.249 14.2273 113.816 38.4357 109 61.6622C102.074 95.0856 102.168 149.684 106.061 183.595C108.175 164.23 109.719 161.332 112.787 153.784"/>
</mask>
<path d="M108.178 164.234C135.404 115.063 120.945 52.416 141.229 0C122.249 14.2273 113.816 38.4357 109 61.6622C102.074 95.0856 102.168 149.684 106.061 183.595C108.175 164.23 109.719 161.332 112.787 153.784" fill="#F7F6F2"/>
<path d="M106.428 163.265C105.893 164.231 106.243 165.448 107.209 165.983C108.175 166.518 109.392 166.169 109.927 165.202L106.428 163.265ZM141.229 0L143.094 0.721804L145.612 -5.78517L140.029 -1.60032L141.229 0ZM109 61.6622L107.042 61.2562L107.042 61.2564L109 61.6622ZM106.061 183.595L104.074 183.823L108.049 183.812L106.061 183.595ZM114.64 154.536C115.056 153.513 114.563 152.347 113.54 151.931C112.516 151.515 111.35 152.007 110.934 153.031L114.64 154.536ZM109.927 165.202C123.773 140.197 126.977 111.839 129.3 83.4973C131.634 55.0157 133.081 26.596 143.094 0.721804L139.364 -0.721804C129.093 25.82 127.627 54.932 125.313 83.1706C122.988 111.549 119.809 139.099 106.428 163.265L109.927 165.202ZM140.029 -1.60032C120.424 13.0959 111.873 37.9535 107.042 61.2562L110.959 62.0683C115.758 38.918 124.074 15.3588 142.429 1.60032L140.029 -1.60032ZM107.042 61.2564C100.058 94.9577 100.166 149.785 104.074 183.823L108.048 183.367C104.169 149.583 104.09 95.2134 110.959 62.0681L107.042 61.2564ZM108.049 183.812C109.103 174.154 110.006 168.699 111.005 164.748C111.998 160.822 113.089 158.352 114.64 154.536L110.934 153.031C109.417 156.764 108.202 159.516 107.127 163.768C106.059 167.995 105.132 173.672 104.073 183.378L108.049 183.812Z" fill="#264432" mask="url(#path-9-inside-2_265_94)"/>
<path d="M90.0558 8.17794C108.786 50.4733 112.549 101.588 108.742 147.283L108.741 147.286C108.477 150.567 108.268 154.057 108.052 157.644C107.44 167.868 106.779 178.883 104.654 188.124C103.221 185.004 102.503 180.891 102.051 176.523C101.835 174.438 101.683 172.335 101.535 170.29C101.492 169.691 101.449 169.097 101.405 168.51C101.212 165.935 100.996 163.487 100.629 161.413L100.629 161.413C99.6199 155.718 99.1748 150.037 98.7642 144.321C98.736 143.927 98.7078 143.533 98.6797 143.138C98.3005 137.825 97.9188 132.477 97.1028 127.129C95.0579 113.716 93.4344 100.241 92.2355 86.726C89.9217 60.6187 89.1907 34.3738 90.0558 8.17794Z" fill="#F7F6F2" stroke="#264432" stroke-width="2" stroke-linecap="round"/>
<path d="M111.474 286.219C118.394 286.236 124.807 285.724 129.8 285.325C130.014 285.308 130.225 285.292 130.433 285.275C132.983 285.072 135.11 284.91 136.722 284.873C137.529 284.854 138.178 284.868 138.671 284.918C139.04 284.955 139.257 285.007 139.37 285.045C139.377 285.061 139.384 285.078 139.391 285.099C139.455 285.273 139.522 285.553 139.58 285.961C139.696 286.771 139.754 287.931 139.751 289.418C139.746 292.382 139.5 296.509 139.062 301.436C138.187 311.283 136.551 324.24 134.577 337.3C132.604 350.361 130.296 363.505 128.078 373.727C126.968 378.84 125.885 383.204 124.882 386.454C124.38 388.081 123.905 389.407 123.464 390.402C123.004 391.441 122.64 391.976 122.417 392.168C122.222 392.336 121.688 392.571 120.669 392.774C119.702 392.967 118.46 393.102 117.022 393.188C114.151 393.359 110.603 393.327 107.132 393.206C103.666 393.085 100.299 392.876 97.7976 392.697C96.5471 392.607 95.5139 392.525 94.7936 392.466C94.4335 392.436 94.1518 392.412 93.9603 392.395L93.9484 392.394C93.7366 392.195 93.4183 391.778 93.0214 391.021C92.547 390.117 92.0351 388.878 91.4948 387.332C90.4157 384.244 89.2597 380.036 88.0792 375.061C85.7198 365.117 83.2837 352.203 81.1812 339.273C79.0788 326.344 77.3131 313.418 76.2919 303.455C75.781 298.471 75.4582 294.244 75.371 291.136C75.3274 289.579 75.3436 288.326 75.4201 287.408C75.4585 286.948 75.5101 286.596 75.5691 286.344C75.6108 286.165 75.6468 286.078 75.6597 286.048C75.6769 286.034 75.7272 285.996 75.836 285.945C75.9933 285.87 76.2231 285.792 76.5401 285.718C77.1755 285.569 78.0505 285.462 79.1545 285.397C81.3568 285.266 84.3147 285.308 87.7605 285.426C89.8736 285.499 92.1661 285.6 94.5646 285.706C99.9449 285.944 105.858 286.206 111.474 286.219ZM111.474 286.219L111.477 285.219L111.474 286.219ZM139.334 284.971C139.334 284.971 139.335 284.972 139.337 284.975C139.335 284.972 139.334 284.971 139.334 284.971Z" fill="#F7F6F2" stroke="#264432" stroke-width="2" stroke-linecap="round"/>
<g opacity="0.3">
<g opacity="0.3">
<mask id="path-13-inside-3_265_94" fill="white">
<path d="M83.7131 359.298C83.7944 359.726 83.8788 360.151 83.9632 360.577C95.3388 363.672 107.065 365.239 118.819 365.239C122.862 365.239 126.908 365.054 130.945 364.682C131.02 364.285 131.098 363.885 131.173 363.485C115.241 364.989 99.1474 363.572 83.7162 359.298H83.7131Z"/>
</mask>
<path d="M83.7131 359.298C83.7944 359.726 83.8788 360.151 83.9632 360.577C95.3388 363.672 107.065 365.239 118.819 365.239C122.862 365.239 126.908 365.054 130.945 364.682C131.02 364.285 131.098 363.885 131.173 363.485C115.241 364.989 99.1474 363.572 83.7162 359.298H83.7131Z" fill="#F7F6F2"/>
<path d="M83.7131 359.298V357.298H81.2978L81.7481 359.671L83.7131 359.298ZM83.9632 360.577L82.0015 360.966L82.2427 362.181L83.438 362.507L83.9632 360.577ZM130.945 364.682L131.128 366.674L132.63 366.535L132.91 365.054L130.945 364.682ZM131.173 363.485L133.139 363.853L133.628 361.244L130.985 361.494L131.173 363.485ZM83.7162 359.298L84.2501 357.37L83.9881 357.298H83.7162V359.298ZM81.7481 359.671C81.8313 360.109 81.9173 360.542 82.0015 360.966L85.9249 360.187C85.8402 359.761 85.7575 359.344 85.678 358.925L81.7481 359.671ZM83.438 362.507C94.9846 365.649 106.887 367.239 118.819 367.239V363.239C107.242 363.239 95.693 361.696 84.4884 358.647L83.438 362.507ZM118.819 367.239C122.923 367.239 127.03 367.052 131.128 366.674L130.761 362.691C126.786 363.057 122.801 363.239 118.819 363.239V367.239ZM132.91 365.054C132.979 364.686 133.066 364.242 133.139 363.853L129.207 363.116C129.13 363.528 129.06 363.885 128.979 364.311L132.91 365.054ZM130.985 361.494C115.296 362.975 99.4463 361.58 84.2501 357.37L83.1823 361.225C98.8485 365.565 115.187 367.003 131.361 365.476L130.985 361.494ZM83.7162 357.298H83.7131V361.298H83.7162V357.298Z" fill="#264432" mask="url(#path-13-inside-3_265_94)"/>
</g>
<g opacity="0.3">
<mask id="path-15-inside-4_265_94" fill="white">
<path d="M86.8181 374.053C86.9119 374.453 87.0026 374.851 87.0964 375.245C90.0795 375.448 93.0688 375.554 96.0581 375.554C107.371 375.554 118.678 374.103 129.628 371.236C129.716 370.814 129.803 370.389 129.894 369.957C115.883 373.694 101.277 375.079 86.8181 374.056V374.053Z"/>
</mask>
<path d="M86.8181 374.053C86.9119 374.453 87.0026 374.851 87.0964 375.245C90.0795 375.448 93.0688 375.554 96.0581 375.554C107.371 375.554 118.678 374.103 129.628 371.236C129.716 370.814 129.803 370.389 129.894 369.957C115.883 373.694 101.277 375.079 86.8181 374.056V374.053Z" fill="#F7F6F2"/>
<path d="M86.8181 374.053L88.7653 373.597L84.8181 374.053H86.8181ZM87.0964 375.245L85.1508 375.708L85.4918 377.14L86.9605 377.24L87.0964 375.245ZM129.628 371.236L130.135 373.171L131.335 372.857L131.587 371.642L129.628 371.236ZM129.894 369.957L131.851 370.368L132.52 367.187L129.379 368.025L129.894 369.957ZM86.8181 374.056H84.8181V375.92L86.677 376.051L86.8181 374.056ZM84.8709 374.51C84.9605 374.892 85.0566 375.312 85.1508 375.708L89.042 374.781C88.9486 374.389 88.8633 374.015 88.7653 373.597L84.8709 374.51ZM86.9605 377.24C89.9867 377.446 93.0214 377.554 96.0581 377.554V373.554C93.1162 373.554 90.1722 373.45 87.2324 373.249L86.9605 377.24ZM96.0581 377.554C107.542 377.554 119.019 376.081 130.135 373.171L129.122 369.301C118.337 372.125 107.201 373.554 96.0581 373.554V377.554ZM131.587 371.642C131.675 371.216 131.761 370.796 131.851 370.368L127.937 369.546C127.845 369.981 127.757 370.411 127.67 370.83L131.587 371.642ZM129.379 368.025C115.582 371.704 101.198 373.068 86.9592 372.061L86.677 376.051C101.356 377.089 116.184 375.683 130.409 371.889L129.379 368.025ZM88.8181 374.056V374.053H84.8181V374.056H88.8181Z" fill="#264432" mask="url(#path-15-inside-4_265_94)"/>
</g>
<g opacity="0.3">
<mask id="path-17-inside-5_265_94" fill="white">
<path d="M126.886 383.062C127.002 382.631 127.114 382.19 127.23 381.736C115.085 385.535 101.915 386.339 89.3977 384.044C89.5259 384.472 89.651 384.891 89.776 385.295C94.3225 386.092 98.9503 386.492 103.581 386.492C111.467 386.492 119.363 385.339 126.886 383.062Z"/>
</mask>
<path d="M126.886 383.062C127.002 382.631 127.114 382.19 127.23 381.736C115.085 385.535 101.915 386.339 89.3977 384.044C89.5259 384.472 89.651 384.891 89.776 385.295C94.3225 386.092 98.9503 386.492 103.581 386.492C111.467 386.492 119.363 385.339 126.886 383.062Z" fill="#F7F6F2"/>
<path d="M126.886 383.062L127.465 384.976L128.53 384.654L128.818 383.58L126.886 383.062ZM127.23 381.736L129.168 382.231L130.054 378.757L126.633 379.828L127.23 381.736ZM89.3977 384.044L89.7584 382.077L86.545 381.488L87.4817 384.617L89.3977 384.044ZM89.776 385.295L87.8658 385.887L88.2275 387.054L89.4306 387.265L89.776 385.295ZM128.818 383.58C128.937 383.135 129.053 382.682 129.168 382.231L125.292 381.242C125.176 381.697 125.066 382.126 124.954 382.544L128.818 383.58ZM126.633 379.828C114.798 383.53 101.956 384.313 89.7584 382.077L89.037 386.011C101.873 388.365 115.372 387.541 127.827 383.645L126.633 379.828ZM87.4817 384.617C87.6089 385.042 87.7371 385.472 87.8658 385.887L91.6863 384.702C91.5648 384.311 91.4429 383.902 91.3137 383.471L87.4817 384.617ZM89.4306 387.265C94.092 388.082 98.8354 388.492 103.581 388.492V384.492C99.0653 384.492 94.5531 384.102 90.1215 383.325L89.4306 387.265ZM103.581 388.492C111.661 388.492 119.751 387.31 127.465 384.976L126.307 381.148C118.974 383.367 111.274 384.492 103.581 384.492V388.492Z" fill="#264432" mask="url(#path-17-inside-5_265_94)"/>
</g>
</g>
</svg>
