<svg width="164" height="403" viewBox="0 0 164 403" fill="none" xmlns="http://www.w3.org/2000/svg">
<path d="M129.029 337.461H51.9258C51.9201 337.461 51.9146 337.461 51.9091 337.461C51.9294 337.329 51.9609 337.181 52.0012 336.993C52.0244 336.884 52.0506 336.762 52.0792 336.621C52.1643 336.202 52.2534 335.686 52.2534 335.125C52.2534 334.564 52.1643 334.048 52.0792 333.629C52.0506 333.488 52.0244 333.366 52.0012 333.258C51.9609 333.069 51.9294 332.922 51.9091 332.79C51.9146 332.79 51.9201 332.79 51.9258 332.79H129.029C129.049 332.79 129.067 332.79 129.084 332.79C129.067 332.938 129.034 333.106 128.99 333.332C128.972 333.425 128.952 333.529 128.93 333.645C128.853 334.059 128.77 334.571 128.77 335.125C128.77 335.68 128.853 336.191 128.93 336.606C128.952 336.722 128.972 336.825 128.99 336.919C129.034 337.144 129.067 337.313 129.084 337.46C129.067 337.461 129.049 337.461 129.029 337.461ZM51.662 337.437C51.662 337.437 51.6632 337.438 51.6654 337.438C51.663 337.438 51.662 337.437 51.662 337.437ZM51.8873 337.715C51.8881 337.719 51.8882 337.722 51.8881 337.722C51.888 337.722 51.8876 337.72 51.8873 337.715ZM51.8881 332.529C51.8882 332.529 51.8881 332.531 51.8873 332.536C51.8876 332.531 51.888 332.528 51.8881 332.529ZM51.6654 332.812C51.6632 332.813 51.662 332.813 51.662 332.813C51.662 332.813 51.663 332.813 51.6654 332.812ZM129.3 332.815C129.3 332.815 129.3 332.814 129.298 332.814L129.3 332.815ZM129.096 332.568C129.095 332.564 129.094 332.561 129.095 332.561C129.095 332.561 129.095 332.563 129.096 332.568ZM129.095 337.689C129.094 337.689 129.095 337.687 129.095 337.683C129.095 337.687 129.095 337.689 129.095 337.689ZM129.298 337.437C129.299 337.436 129.3 337.436 129.3 337.436C129.3 337.436 129.3 337.436 129.298 337.437Z" fill="#F7F6F2" stroke="#264432" stroke-width="2"/>
<g style="mix-blend-mode:multiply" opacity="0.2">
<g style="mix-blend-mode:multiply" opacity="0.2">
<path d="M129.029 337.461H51.9258C51.9201 337.461 51.9146 337.461 51.9091 337.461C51.9294 337.329 51.9609 337.181 52.0012 336.993C52.0244 336.884 52.0506 336.762 52.0792 336.621C52.1643 336.202 52.2534 335.686 52.2534 335.125C52.2534 334.564 52.1643 334.048 52.0792 333.629C52.0506 333.488 52.0244 333.366 52.0012 333.258C51.9609 333.069 51.9294 332.922 51.9091 332.79C51.9146 332.79 51.9201 332.79 51.9258 332.79H129.029C129.049 332.79 129.067 332.79 129.084 332.79C129.067 332.938 129.034 333.106 128.99 333.332C128.972 333.425 128.952 333.529 128.93 333.645C128.853 334.059 128.77 334.571 128.77 335.125C128.77 335.68 128.853 336.191 128.93 336.606C128.952 336.722 128.972 336.825 128.99 336.919C129.034 337.144 129.067 337.313 129.084 337.46C129.067 337.461 129.049 337.461 129.029 337.461ZM51.662 337.437C51.662 337.437 51.6632 337.438 51.6654 337.438C51.663 337.438 51.662 337.437 51.662 337.437ZM51.8873 337.715C51.8881 337.719 51.8882 337.722 51.8881 337.722C51.888 337.722 51.8876 337.72 51.8873 337.715ZM51.8881 332.529C51.8882 332.529 51.8881 332.531 51.8873 332.536C51.8876 332.531 51.888 332.528 51.8881 332.529ZM51.6654 332.812C51.6632 332.813 51.662 332.813 51.662 332.813C51.662 332.813 51.663 332.813 51.6654 332.812ZM129.3 332.815C129.3 332.815 129.3 332.814 129.298 332.814L129.3 332.815ZM129.096 332.568C129.095 332.564 129.094 332.561 129.095 332.561C129.095 332.561 129.095 332.563 129.096 332.568ZM129.095 337.689C129.094 337.689 129.095 337.687 129.095 337.683C129.095 337.687 129.095 337.689 129.095 337.689ZM129.298 337.437C129.299 337.436 129.3 337.436 129.3 337.436C129.3 337.436 129.3 337.436 129.298 337.437Z" fill="#F7F6F2"/>
<path d="M129.029 337.461H51.9258C51.9201 337.461 51.9146 337.461 51.9091 337.461C51.9294 337.329 51.9609 337.181 52.0012 336.993C52.0244 336.884 52.0506 336.762 52.0792 336.621C52.1643 336.202 52.2534 335.686 52.2534 335.125C52.2534 334.564 52.1643 334.048 52.0792 333.629C52.0506 333.488 52.0244 333.366 52.0012 333.258C51.9609 333.069 51.9294 332.922 51.9091 332.79C51.9146 332.79 51.9201 332.79 51.9258 332.79H129.029C129.049 332.79 129.067 332.79 129.084 332.79C129.067 332.938 129.034 333.106 128.99 333.332C128.972 333.425 128.952 333.529 128.93 333.645C128.853 334.059 128.77 334.571 128.77 335.125C128.77 335.68 128.853 336.191 128.93 336.606C128.952 336.722 128.972 336.825 128.99 336.919C129.034 337.144 129.067 337.313 129.084 337.46C129.067 337.461 129.049 337.461 129.029 337.461ZM51.662 337.437C51.662 337.437 51.6632 337.438 51.6654 337.438C51.663 337.438 51.662 337.437 51.662 337.437ZM51.8873 337.715C51.8881 337.719 51.8882 337.722 51.8881 337.722C51.888 337.722 51.8876 337.72 51.8873 337.715ZM51.8881 332.529C51.8882 332.529 51.8881 332.531 51.8873 332.536C51.8876 332.531 51.888 332.528 51.8881 332.529ZM51.6654 332.812C51.6632 332.813 51.662 332.813 51.662 332.813C51.662 332.813 51.663 332.813 51.6654 332.812ZM129.3 332.815C129.3 332.815 129.3 332.814 129.298 332.814L129.3 332.815ZM129.096 332.568C129.095 332.564 129.094 332.561 129.095 332.561C129.095 332.561 129.095 332.563 129.096 332.568ZM129.095 337.689C129.094 337.689 129.095 337.687 129.095 337.683C129.095 337.687 129.095 337.689 129.095 337.689ZM129.298 337.437C129.299 337.436 129.3 337.436 129.3 337.436C129.3 337.436 129.3 337.436 129.298 337.437Z" stroke="#264432" stroke-width="2"/>
</g>
</g>
<path d="M105.359 191.699L104.439 191.871C101.973 178.724 104.233 165.288 106.438 152.177C106.895 149.461 107.349 146.758 107.759 144.075C114.067 102.742 110.317 60.6165 105.238 18.8315C104.86 46.4363 100.877 73.9341 96.9157 101.279C96.0344 107.363 95.1543 113.438 94.3152 119.506C90.8447 144.618 88.0703 169.934 88.7666 195.284L88.7666 195.284C88.8778 199.363 88.2786 204.423 87.6606 209.643C87.4049 211.802 87.1459 213.989 86.9328 216.145C86.1913 223.643 85.9965 230.78 88.0666 235.809L88.0668 235.81C88.8176 237.637 90.0818 238.655 91.6289 239.106C93.2184 239.569 95.1765 239.448 97.2532 238.815C101.425 237.543 105.693 234.326 107.715 230.678C110.793 225.125 110.763 218.096 109.463 211.544L105.359 191.699ZM105.359 191.699L104.439 191.871C105.074 195.255 106.012 198.552 106.944 201.8M105.359 191.699L106.944 201.8M106.944 201.8L107.028 202.09M106.944 201.8L107.028 202.09M107.028 202.09C107.936 205.252 108.83 208.367 109.463 211.543L107.028 202.09Z" fill="#F7F6F2" stroke="#264432" stroke-width="2"/>
<path d="M120.128 145.393C121.956 132.19 123.487 118.888 123.897 105.513H123.904L123.93 104.54C124.127 97.1578 123.978 89.7706 123.83 82.412C123.809 81.4137 123.789 80.416 123.77 79.4189C123.609 71.0608 123.508 62.7378 123.971 54.4345C124.789 39.749 127.513 24.9167 134.27 12.0896C133.077 20.3904 133.28 28.7741 134.038 37.1441C134.504 42.2885 135.182 47.4405 135.879 52.5683C135.963 53.1891 136.048 53.8095 136.132 54.4294C136.747 58.937 137.359 63.423 137.842 67.8919C140.285 90.4875 139.39 113.444 135.19 135.778L136.067 135.943L135.19 135.778C134.301 140.51 133.262 145.235 132.211 149.975C132.145 150.273 132.079 150.571 132.013 150.868C131.028 155.308 130.039 159.763 129.167 164.227C127.304 173.756 125.956 183.378 126.275 193.148L126.275 193.148C126.395 196.816 126.754 200.508 127.108 204.159C127.268 205.808 127.428 207.448 127.564 209.075C128.005 214.34 128.212 219.525 127.493 224.657C127.131 227.237 125.604 232.612 123.223 237.268C122.033 239.594 120.661 241.678 119.162 243.14C117.66 244.604 116.137 245.345 114.608 245.251L114.608 245.251C114.144 245.223 113.711 244.994 113.282 244.449C112.836 243.884 112.44 243.025 112.112 241.884C111.457 239.607 111.152 236.495 111.054 233.163C110.907 228.134 111.233 222.829 111.441 219.452C111.508 218.352 111.563 217.457 111.585 216.842L111.585 216.842C112.233 198.536 114.943 180.438 117.661 162.289C118.503 156.665 119.346 151.035 120.128 145.393L120.128 145.393Z" fill="#F7F6F2" stroke="#264432" stroke-width="2"/>
<path d="M62.2923 23.8196C58.7611 29.8305 57.1543 36.9919 56.7854 44.1138L62.2923 23.8196ZM62.2923 23.8196C60.8193 38.7179 62.7349 53.5534 65.3142 68.3237C65.9685 72.0711 66.6649 75.8113 67.3605 79.5478C69.6672 91.9376 71.966 104.285 72.7011 116.712L72.7011 116.712C73.4769 129.812 72.5208 143.047 71.562 156.321C71.2475 160.674 70.9328 165.031 70.6787 169.389C69.653 186.982 69.6262 204.519 74.7489 221.451L75.706 221.161L74.7489 221.451C74.8727 221.86 74.9979 222.265 75.122 222.666C75.8837 225.127 76.6048 227.457 76.703 229.875L77.7022 229.834L76.703 229.875C76.7741 231.62 75.9291 234.433 74.4646 236.348C73.7405 237.294 72.941 237.921 72.1366 238.154C71.3834 238.372 70.4891 238.288 69.4194 237.529C68.9135 237.169 68.3229 236.347 67.7007 235.072C67.0976 233.835 66.5308 232.316 66.0074 230.726C65.4853 229.14 65.0156 227.514 64.6004 226.066L64.5352 225.839C64.1515 224.501 63.8083 223.304 63.5209 222.496C58.7793 209.15 57.0747 194.854 56.8969 180.675H56.8969C56.7413 168.55 57.6536 156.511 58.5701 144.417C59.1029 137.385 59.6372 130.335 59.9637 123.239C60.7855 105.413 60.2745 87.5242 58.4308 69.7772L58.4308 69.7771C58.2891 68.4148 58.1403 67.0561 57.9917 65.7002C57.1982 58.4567 56.4136 51.2951 56.7854 44.1138L62.2923 23.8196Z" fill="#F7F6F2" stroke="#264432" stroke-width="2"/>
<path d="M105.062 231.179C99.8776 223.173 99.0768 212.656 100.342 202.819C101.004 197.67 102.149 192.595 103.306 187.468C103.371 187.18 103.436 186.892 103.501 186.603C104.718 181.198 105.919 175.733 106.506 170.16C107.245 163.147 107.002 156.115 106.677 149.144C106.646 148.473 106.614 147.802 106.582 147.132C106.281 140.823 105.983 134.571 106.331 128.339C106.916 117.894 109.31 107.629 111.724 97.2835C112.006 96.0724 112.289 94.8603 112.569 93.6465C114.427 85.5943 116.168 77.4837 116.902 69.2645C121.882 104.35 121.283 140.223 115.101 175.118L115.101 175.118C114.824 176.683 114.534 178.257 114.243 179.837C112.115 191.404 109.918 203.341 112.023 215.066L112.023 215.067C112.19 215.988 112.375 216.881 112.558 217.759C113.005 219.913 113.433 221.973 113.505 224.11C113.605 227.069 112.879 230.045 110.956 231.969C109.837 233.087 109.55 233.078 109.391 233.061C109.233 233.044 109.006 232.968 108.552 232.755C108.428 232.697 108.287 232.628 108.129 232.552C107.766 232.375 107.32 232.159 106.816 231.938L106.603 232.424L106.601 232.424L106.811 231.936C106.698 231.887 106.586 231.838 106.471 231.788C106.357 231.738 106.241 231.688 106.123 231.637L105.062 231.179Z" fill="#F7F6F2" stroke="#264432" stroke-width="2"/>
<path d="M46.2027 114.987L46.2025 114.987C37.6255 102.837 23.4445 94.0012 9.04487 93.7022C24.1808 97.2313 37.0304 109.304 44.0068 123.342C52.3359 140.101 53.7818 159.326 53.9763 177.819C54.0099 181.042 54.0147 184.258 54.0194 187.469C54.0356 198.365 54.0516 209.196 55.1948 220.006M46.2027 114.987L54.2003 220.111M46.2027 114.987C56.5375 129.62 60.0669 148.06 61.2869 166.151C61.7149 172.496 61.8925 178.854 62.0707 185.232C62.1468 187.955 62.223 190.681 62.3188 193.412C62.6383 202.521 63.1758 211.644 64.6651 220.683L64.6653 220.684C64.6965 220.873 64.7279 221.061 64.7592 221.248C65.2167 223.988 65.6467 226.563 65.1687 229.058M46.2027 114.987L65.6518 220.521C65.6851 220.722 65.7188 220.923 65.7526 221.125C66.2041 223.821 66.664 226.568 66.1509 229.246M55.1948 220.006L54.2003 220.111M55.1948 220.006C55.1948 220.006 55.1948 220.006 55.1948 220.006L54.2003 220.111M55.1948 220.006C55.2735 220.75 55.3047 221.833 55.339 223.025L55.3458 223.26C55.3836 224.568 55.4296 226.03 55.5407 227.463C55.6523 228.901 55.827 230.271 56.1116 231.396C56.4067 232.562 56.7774 233.285 57.1539 233.619C57.983 234.354 58.8065 234.634 59.5764 234.643C60.3628 234.652 61.178 234.379 61.9603 233.863C63.5498 232.816 64.817 230.889 65.1687 229.058M54.2003 220.111C54.2749 220.815 54.305 221.862 54.3401 223.079C54.4533 227.008 54.6176 232.707 56.4906 234.368C60.4671 237.892 65.3472 233.432 66.1509 229.246M65.1687 229.058L66.1509 229.246M65.1687 229.058C65.1688 229.058 65.1688 229.057 65.1688 229.057L66.1509 229.246" fill="#F7F6F2" stroke="#264432" stroke-width="2"/>
<path d="M46.1263 199.849L46.1268 199.849C47.1698 205.379 48.763 210.731 50.4037 216.244L50.4363 216.353L50.4366 216.354C50.8856 217.869 51.3359 219.383 51.7864 220.897L51.7866 220.898C52.2369 222.412 52.6874 223.926 53.1365 225.442C53.3627 226.202 53.6805 227.028 54.0273 227.929C54.2347 228.468 54.4526 229.034 54.6675 229.629C54.9554 230.427 55.2335 231.268 55.4315 232.102C58.6665 228.022 58.7678 221.663 56.8862 216.286L56.8862 216.286C55.8315 213.27 54.3014 210.446 52.6641 207.588C52.3988 207.124 52.1303 206.66 51.8607 206.193C50.4798 203.803 49.0694 201.362 47.906 198.81L47.9059 198.809C45.4794 193.481 43.8837 187.801 42.7758 182.102C42.7055 181.741 42.6327 181.371 42.5585 180.994C42.4487 180.437 42.3357 179.862 42.2226 179.275C42.2662 180.237 42.3289 181.198 42.4109 182.157L46.1263 199.849ZM46.1263 199.849C46.1186 199.804 46.1108 199.766 46.1056 199.74C46.0975 199.701 46.0954 199.69 46.0938 199.68L46.0922 199.671L46.0905 199.662C45.6559 197.326 45.0752 195.049 44.5053 192.814C44.3389 192.162 44.1734 191.513 44.0127 190.867C43.2967 187.989 42.6666 185.14 42.4109 182.157L46.1263 199.849Z" fill="#F7F6F2" stroke="#264432" stroke-width="2"/>
<path d="M73.5911 97.9893C73.5911 69.6753 75.1008 41.3615 78.1311 13.2076C78.158 13.3627 78.1853 13.5177 78.2128 13.6725C78.4401 14.9522 78.6842 16.2168 78.9237 17.4574C79.4454 20.1597 79.9452 22.7482 80.2012 25.132C81.0825 33.3424 81.8328 41.5637 82.4624 49.7958C83.7216 66.2594 84.4771 82.7649 84.7289 99.2758C84.9807 115.787 84.7341 132.308 83.9891 148.804C83.9262 150.184 83.9373 152.413 83.9508 155.119C83.956 156.141 83.9614 157.231 83.9633 158.369C83.9704 162.547 83.9309 167.424 83.6614 172.131C83.3913 176.85 82.8926 181.347 81.9978 184.785C81.5499 186.506 81.0158 187.909 80.3951 188.929C80.0231 189.54 79.6426 189.978 79.2605 190.272C76.9035 184.604 76.0099 177.108 75.6419 169.313C75.4532 165.317 75.4034 161.277 75.3556 157.401L75.3518 157.091C75.3029 153.13 75.2522 149.339 75.0496 145.989L75.0496 145.988C74.079 130.008 73.5911 113.996 73.5911 97.9893Z" fill="#F7F6F2" stroke="#264432" stroke-width="2"/>
<path d="M123.184 206.731L123.187 206.733C121.466 211.979 120.479 217.448 119.869 222.973L123.184 206.731ZM123.184 206.731C125.34 200.166 128.031 193.869 130.742 187.528L130.769 187.465C133.467 181.155 136.185 174.801 138.368 168.167L138.368 168.166C141.757 157.853 144.593 146.791 146.125 135.795C146.356 137.891 146.574 139.955 146.725 142.015C147.112 147.267 147.068 152.438 145.75 157.835C144.929 161.192 144.195 164.581 143.462 167.968C141.735 175.944 140.011 183.909 137.151 191.404C136.29 193.658 135.269 195.847 134.232 198.071C134.044 198.473 133.857 198.876 133.669 199.28C132.45 201.909 131.25 204.6 130.365 207.425C129.218 211.082 128.64 214.93 128.075 218.689C127.939 219.595 127.803 220.496 127.661 221.387C126.92 226.026 125.986 230.473 123.834 234.5L123.834 234.501C123.443 235.234 122.993 235.948 122.524 236.535C122.043 237.136 121.597 237.532 121.231 237.716C120.911 237.877 120.751 237.841 120.608 237.747C120.375 237.596 119.992 237.152 119.612 236.032L119.612 236.032C118.985 234.185 118.913 232.01 119.078 229.711C119.183 228.25 119.373 226.827 119.559 225.435C119.67 224.604 119.78 223.784 119.869 222.973L123.184 206.731Z" fill="#F7F6F2" stroke="#264432" stroke-width="2"/>
<path d="M76.2681 100.34C82.0428 80.1982 87.0174 59.3078 86.6483 38.2968C91.0294 55.0578 91.2682 72.4421 89.7752 90.0761C88.7122 102.631 86.7835 115.226 84.8575 127.803C83.6462 135.713 82.4361 143.616 81.443 151.497L82.2959 151.605L81.443 151.497C78.8572 172.024 79.1754 192.151 79.4947 212.34C79.6309 220.957 79.7673 229.585 79.6782 238.26C74.5086 237.246 70.5449 233.9 67.5091 229.021C64.2466 223.778 62.1065 216.835 60.7679 209.365C58.092 194.432 58.6705 177.702 59.5914 169.101L59.5971 169.047V169.042C61.6619 149.827 67.1651 131.229 72.6868 112.57C73.8915 108.498 75.0971 104.424 76.2681 100.34Z" fill="#F7F6F2" stroke="#264432" stroke-width="2"/>
<path d="M151.388 93.8646C152.482 92.6351 153.578 91.4038 154.664 90.1637L126.128 195.211C126.112 197.763 126.144 200.301 126.176 202.829C126.263 209.687 126.349 216.463 125.474 223.201C125.439 223.47 125.402 223.762 125.363 224.074C125.063 226.455 124.614 230.021 123.689 233.256C123.166 235.086 122.507 236.745 121.679 237.997C120.85 239.249 119.921 239.994 118.876 240.212L118.876 240.212C117.593 240.479 116.594 240.245 115.771 239.728C114.919 239.193 114.192 238.311 113.576 237.191C112.337 234.938 111.706 232.011 111.333 229.998L111.333 229.998C108.901 216.896 109.597 202.414 111.008 189.118L111.008 189.118C113.871 162.105 122.702 135.718 136.761 112.469C140.65 106.039 145.587 100.387 150.608 94.7414C150.868 94.4492 151.128 94.157 151.388 93.8646Z" fill="#F7F6F2" stroke="#264432" stroke-width="2"/>
<path d="M85.5222 237.515L85.5224 237.515C86.3895 236.068 86.5184 234.274 86.6536 232.247L85.5222 237.515ZM85.5222 237.515C84.9953 238.395 84.4473 238.862 83.9722 239.083M85.5222 237.515L83.9722 239.083M83.9722 239.083C83.5094 239.297 83.0517 239.31 82.6108 239.168M83.9722 239.083L82.6108 239.168M82.6108 239.168C81.6882 238.87 80.7336 237.834 80.3661 236.304M82.6108 239.168L80.3661 236.304M80.3661 236.304C79.9601 234.609 79.9129 232.38 79.9314 229.977C79.9346 229.557 79.9399 229.131 79.9452 228.704C79.9694 226.748 79.994 224.752 79.8268 223.06L80.3661 236.304ZM88.9907 209.156C88.0773 216.815 87.1599 224.51 86.6536 232.247L78.2347 190.725C78.2295 169.137 80.3244 147.544 84.488 126.359L83.5068 126.166L84.488 126.359C84.6922 125.32 84.8976 124.252 85.1074 123.163C86.9744 113.459 89.179 102.002 93.8507 93.344C91.9965 103.935 93.2592 113.497 94.6151 123.764C94.9048 125.958 95.1988 128.184 95.4675 130.46C96.9131 142.702 95.3324 155.952 93.848 168.396C93.7853 168.922 93.7227 169.446 93.6606 169.968C92.1057 183.033 90.5509 196.091 88.9907 209.155L88.9907 209.156ZM79.8268 223.059C78.7689 212.318 78.2399 201.525 78.2347 190.725L79.8268 223.059Z" fill="#F7F6F2" stroke="#264432" stroke-width="2"/>
<path d="M98.7732 166.041L98.8112 165.005H98.7246C98.6109 164.018 98.3017 163.013 97.8868 162.032C97.3221 160.698 96.5347 159.345 95.6778 158.055C94.7562 156.667 93.7248 155.309 92.7711 154.094C93.5246 154.68 94.3129 155.443 95.0856 156.3C97.0679 158.499 98.784 161.127 99.3896 162.421L99.3899 162.421C101.181 166.241 102.578 169.247 102.568 173.188L102.568 173.189C102.553 180.923 100.317 187.321 97.8963 194.245C97.7391 194.695 97.5812 195.147 97.423 195.601C95.9573 199.813 94.4859 204.231 93.4998 209.22C93.2666 199.601 94.0652 189.899 97.0601 181.137C98.5029 176.917 98.6021 172.761 98.7021 168.568C98.7222 167.728 98.7423 166.886 98.7732 166.041Z" fill="#F7F6F2" stroke="#264432" stroke-width="2"/>
<path d="M97.9317 192.974C99.7987 188.885 101.496 184.691 102.523 180.267C102.506 180.367 102.489 180.467 102.473 180.567C102.063 183.016 101.638 185.553 101.601 188.127C101.555 191.202 102.061 194.211 102.622 197.135C102.712 197.603 102.803 198.068 102.893 198.531C103.375 200.99 103.844 203.389 104.047 205.817L104.048 205.817C104.35 209.409 103.686 215.593 101.871 221.246C100.966 224.065 99.7896 226.704 98.3398 228.802C96.8866 230.905 95.208 232.396 93.3185 233.049C92.0585 233.484 91.1924 233.439 90.589 233.189C89.9886 232.94 89.4771 232.416 89.07 231.543C88.2296 229.739 88.0115 226.82 88.2194 223.446C88.6317 216.754 90.6555 209.049 91.4827 207.013L91.7331 206.397L91.7295 206.394C92.9114 203.543 94.2406 200.766 95.582 197.962C96.3701 196.315 97.1625 194.659 97.9317 192.974Z" fill="#F7F6F2" stroke="#264432" stroke-width="2"/>
<path d="M45.6881 229.588C45.6912 229.583 45.6943 229.579 45.6972 229.575C46.4916 229.397 48.2611 229.244 50.8962 229.132C53.6254 229.016 57.1703 228.946 61.2651 228.912C69.4531 228.843 79.8077 228.915 90.1667 229.032C97.352 229.113 104.55 229.217 111.027 229.31C123.027 229.482 132.552 229.619 134.931 229.514C134.979 229.558 135.078 229.672 135.217 229.942C135.491 230.476 135.766 231.345 136.017 232.564C136.514 234.984 136.865 238.518 137.068 242.856C137.474 251.515 137.283 263.212 136.563 275.218C135.843 287.224 134.597 299.508 132.9 309.342C132.052 314.262 131.094 318.544 130.042 321.862C129.516 323.521 128.972 324.92 128.416 326.029C127.854 327.149 127.31 327.913 126.809 328.359C126.561 328.58 126.12 328.841 125.435 329.115C124.763 329.385 123.913 329.645 122.896 329.892C120.863 330.385 118.235 330.808 115.174 331.152C109.056 331.841 101.298 332.211 93.3024 332.247C85.3088 332.282 77.1007 331.984 70.0849 331.341C63.0288 330.695 57.2994 329.71 54.1829 328.423C53.5965 328.181 52.9612 327.652 52.3011 326.75C51.6451 325.853 51.0081 324.646 50.3989 323.146C49.1804 320.146 48.1239 316.1 47.2274 311.333C45.4361 301.807 44.3138 289.564 43.7563 277.417C43.1991 265.276 43.2079 253.268 43.6698 244.224C43.901 239.698 44.2444 235.94 44.6812 233.286C44.9006 231.954 45.137 230.942 45.3785 230.262C45.5002 229.92 45.608 229.706 45.6881 229.588ZM134.899 229.489C134.899 229.489 134.902 229.49 134.907 229.494C134.901 229.491 134.899 229.489 134.899 229.489ZM45.7358 229.525C45.7398 229.521 45.7418 229.519 45.7418 229.519C45.7418 229.52 45.7399 229.522 45.7358 229.525Z" fill="#F7F6F2" stroke="#264432" stroke-width="2"/>
<g opacity="0.5">
<g opacity="0.5">
<mask id="path-17-inside-1_265_66" fill="white">
<path d="M42.5912 246.865C42.607 246.455 42.6228 246.045 42.6438 245.641C42.628 246.04 42.607 246.45 42.5912 246.865Z"/>
</mask>
<path d="M42.5912 246.865C42.607 246.455 42.6228 246.045 42.6438 245.641C42.628 246.04 42.607 246.45 42.5912 246.865Z" fill="#F7F6F2"/>
<path d="M42.5912 246.865L40.5927 246.789L44.5898 246.941L42.5912 246.865ZM42.6438 245.641L44.6422 245.72L40.6465 245.537L42.6438 245.641ZM44.5898 246.941C44.6056 246.529 44.6209 246.133 44.6411 245.744L40.6465 245.537C40.6246 245.957 40.6084 246.38 40.5927 246.788L44.5898 246.941ZM40.6453 245.562C40.633 245.875 40.6065 246.426 40.5927 246.789L44.5898 246.94C44.6076 246.473 44.6231 246.205 44.6422 245.72L40.6453 245.562Z" fill="#264432" mask="url(#path-17-inside-1_265_66)"/>
</g>
<path opacity="0.5" d="M59.9786 246.718C63.8028 246.092 67.7583 245.446 71.6508 245.578C73.3527 245.635 75.8111 245.872 77.5551 247.269C78.9997 248.425 79.8402 250.731 78.7791 252.312C78.1802 253.205 77.1454 253.704 76.0423 254.229C75.1125 254.676 74.1512 255.133 73.3738 255.868C71.9817 257.181 71.5089 259.125 72.0815 261.205C72.8222 263.916 75.1283 266.211 77.6865 266.794C78.5007 266.978 79.3096 267.052 80.1081 267.036C83.8692 266.952 87.4255 264.872 90.2358 262.928L91.3757 262.13C94.5013 259.939 97.7319 257.675 101.414 257.323C104.167 257.061 106.83 257.875 109.64 258.736C111.479 259.298 113.381 259.882 115.324 260.144C120.351 260.811 125.389 259.267 129.833 257.906C132.559 257.071 135.485 256.162 138.29 254.912C138.29 254.429 138.295 253.94 138.301 253.462C135.401 254.807 132.312 255.763 129.449 256.64C125.137 257.964 120.246 259.461 115.503 258.831C113.669 258.589 111.82 258.022 110.029 257.47C107.219 256.609 104.314 255.716 101.288 256.005C97.2644 256.394 93.8867 258.757 90.6193 261.048L89.4847 261.841C86.3014 264.042 82.1147 266.448 77.9754 265.507C75.8689 265.029 73.9673 263.117 73.3527 260.859C73.0954 259.924 72.8747 258.153 74.2773 256.83C74.9076 256.236 75.7376 255.837 76.6096 255.416C77.823 254.839 79.0733 254.235 79.8717 253.042C81.3793 250.789 80.2657 247.758 78.3746 246.24C76.3259 244.595 73.5786 244.322 71.6876 244.259C67.6585 244.117 63.6452 244.779 59.758 245.42C56.4434 245.961 53.0237 246.539 49.646 246.576C47.3662 246.612 44.9393 246.303 42.6385 245.635C42.6385 245.635 42.6385 245.641 42.6385 245.646C42.6228 246.045 42.6018 246.455 42.586 246.87V246.996C44.9236 247.647 47.3715 247.941 49.667 247.905C53.1445 247.857 56.6115 247.28 59.9734 246.728L59.9786 246.718Z" fill="#F7F6F2"/>
<path opacity="0.5" d="M112.976 245.273C109.982 244.806 107.066 243.671 104.246 242.568C103.022 242.09 101.792 241.612 100.553 241.181C87.2942 236.579 72.901 237.604 58.9858 238.591L56.5957 238.759C51.6894 239.101 47.2979 239.258 43.3162 237.735C43.2689 237.714 43.2216 237.693 43.1691 237.672C43.1271 238.113 43.085 238.565 43.0483 239.033C47.2244 240.577 51.7 240.425 56.685 240.078L59.0751 239.91C72.859 238.933 87.1156 237.919 100.117 242.431C101.341 242.857 102.549 243.33 103.762 243.802C106.646 244.926 109.63 246.093 112.766 246.581C114.142 246.797 115.508 246.881 116.858 246.849C124.238 246.686 131.209 243.114 137.838 238.618C137.796 238.098 137.754 237.599 137.707 237.115C129.912 242.479 121.67 246.628 112.971 245.278L112.976 245.273Z" fill="#F7F6F2"/>
</g>
<path d="M46.8357 398.942L56.4274 320.349C56.4274 320.349 56.4274 320.349 56.4274 320.349C56.5043 319.722 56.667 319.515 56.7424 319.447C56.811 319.385 56.9567 319.304 57.3468 319.303C57.749 319.302 58.253 319.386 58.9188 319.516C59.0125 319.534 59.109 319.553 59.2078 319.572C59.7783 319.685 60.4302 319.814 61.1072 319.897C61.7944 319.981 62.4554 320.012 63.025 320.038C63.1148 320.042 63.2024 320.046 63.2875 320.051C63.9452 320.083 64.4174 320.12 64.7708 320.211C65.1035 320.297 65.1882 320.395 65.2237 320.453C65.2747 320.535 65.3742 320.785 65.2949 321.43L65.2926 321.449L65.2913 321.464C65.2912 321.465 65.291 321.467 65.2907 321.469L65.2852 321.507L65.2848 321.51C65.2824 321.526 65.2789 321.55 65.2756 321.574C65.2736 321.59 65.2713 321.608 65.2691 321.628L52.5564 400.892C52.5564 400.892 52.5564 400.892 52.5564 400.892C52.5391 400.999 52.5209 401.08 52.5045 401.139C52.317 401.092 52.1136 401.015 51.8283 400.907C51.7167 400.865 51.5925 400.818 51.4519 400.766C50.9926 400.596 50.4291 400.407 49.7944 400.305L49.7931 400.304C49.1645 400.204 48.5591 400.213 48.0534 400.236C47.887 400.243 47.7385 400.251 47.6037 400.259C47.292 400.276 47.0532 400.289 46.8328 400.28C46.7739 400.277 46.727 400.273 46.6903 400.268C46.6902 400.219 46.6936 400.151 46.7044 400.061L46.8387 398.942H46.8357ZM46.7014 400.388C46.7013 400.388 46.7005 400.386 46.6994 400.381C46.701 400.385 46.7015 400.387 46.7014 400.388ZM52.6717 401.168C52.6717 401.168 52.67 401.169 52.6664 401.168C52.6698 401.168 52.6716 401.168 52.6717 401.168Z" fill="#F7F6F2" stroke="#264432" stroke-width="2"/>
<path d="M128.413 400.939L128.399 400.851L115.755 321.547C115.755 321.547 115.755 321.547 115.755 321.546C115.656 320.926 115.761 320.719 115.793 320.67C115.82 320.629 115.91 320.525 116.288 320.436C116.674 320.345 117.175 320.309 117.854 320.27C117.883 320.268 117.914 320.266 117.944 320.264C118.57 320.228 119.305 320.185 120.062 320.065C120.828 319.943 121.537 319.754 122.134 319.595C122.156 319.589 122.177 319.584 122.198 319.578C122.841 319.407 123.3 319.29 123.668 319.261C124.02 319.232 124.103 319.301 124.124 319.318C124.167 319.354 124.326 319.528 124.427 320.164L124.429 320.175L124.431 320.186C124.436 320.213 124.443 320.265 124.446 320.296L124.447 320.307L124.449 320.318L134.251 400.022L134.251 400.022C134.261 400.104 134.265 400.167 134.265 400.214C134.218 400.219 134.154 400.222 134.069 400.222C133.827 400.222 133.566 400.198 133.234 400.167C133.09 400.153 132.931 400.138 132.755 400.124C132.224 400.08 131.592 400.046 130.945 400.126L130.944 400.126C130.296 400.207 129.734 400.396 129.28 400.577C129.101 400.648 128.929 400.722 128.78 400.785C128.744 400.801 128.709 400.816 128.675 400.83C128.574 400.874 128.488 400.909 128.413 400.939ZM134.255 400.34C134.255 400.34 134.255 400.336 134.258 400.33C134.256 400.337 134.255 400.34 134.255 400.34Z" fill="#F7F6F2" stroke="#264432" stroke-width="2"/>
</svg>
