<svg width="297" height="227" viewBox="0 0 297 227" fill="none" xmlns="http://www.w3.org/2000/svg">
<g clip-path="url(#clip0_53_1565)">
<path d="M257.112 20.7488L246.969 29.6801L260.952 26.8512L262.811 39.0963L268.852 27.2755L280.047 27.0936L269.62 20.4053L273.277 9.75648L263.962 14.9091L251.212 8.74615L257.112 20.7892V20.7488Z" fill="#264432"/>
<path d="M74.6072 148.171C40.5997 132.935 19.2616 161.932 19.4839 186.482C19.6658 207.275 31.4057 220.126 50.8848 224.753C63.4532 224.289 82.5483 200.122 75.1528 189.655C89.2165 183.573 95.824 157.688 74.6072 148.171Z" fill="#264432"/>
<path d="M88.8551 185.796C69.8365 191.803 59.3812 205.744 53.379 221.025C47.6096 235.713 45.9933 251.543 44.8652 262.591C44.8042 263.188 44.7447 263.771 44.686 264.34L44.6852 264.348L44.6842 264.356C44.3763 266.924 42.857 270.246 40.944 273.953C40.2001 275.395 39.3935 276.9 38.5536 278.467C37.1846 281.022 35.7271 283.742 34.3082 286.621C29.7396 295.892 25.8608 306.278 27.4821 316.065L27.4886 316.104L27.492 316.144C27.5723 317.09 27.4315 318.305 27.1597 319.667C26.8843 321.047 26.4592 322.65 25.9278 324.401C24.8649 327.903 23.3587 332.056 21.7175 336.305C19.6965 341.538 17.4386 346.995 15.5435 351.576C14.3757 354.399 13.3457 356.889 12.5937 358.788L12.5887 358.8C10.379 364.162 8.86242 366.921 7.40377 369.575C6.76426 370.739 6.13589 371.882 5.46517 373.215C3.93798 377.097 2.89718 380.348 2.38713 383.051C1.87366 385.773 1.91601 387.85 2.46267 389.427C3.50048 392.422 6.59706 394.15 13.2642 394.581L13.2646 394.581C17.6488 394.867 20.7953 394.702 23.051 394.185C25.2898 393.673 26.5808 392.831 27.3649 391.803C28.1624 390.757 28.5406 389.384 28.6808 387.599C28.7975 386.114 28.7449 384.451 28.6854 382.569C28.6728 382.169 28.6599 381.76 28.6482 381.341M88.8551 185.796L87.4787 285.898C90.6259 284.895 90.9418 282.45 91.2769 279.857C91.5356 277.854 91.8058 275.763 93.3993 274.179L92.6921 273.471C92.6923 273.471 92.6925 273.471 92.6926 273.471M88.8551 185.796C97.3049 195.708 102.541 213.175 103.53 230.471C104.03 239.234 103.436 247.89 101.647 255.417C99.8546 262.956 96.8829 269.28 92.6926 273.471M88.8551 185.796L92.6926 273.471M28.6482 381.341L29.6478 381.313L28.6482 381.342C28.6482 381.342 28.6482 381.341 28.6482 381.341ZM28.6482 381.341C28.5841 379.074 29.0611 375.97 29.7114 372.805C30.3662 369.617 31.2156 366.282 31.9332 363.522L31.9422 363.488L31.9538 363.454C32.5929 361.565 33.2198 359.647 33.8502 357.719C35.4666 352.775 37.1059 347.761 39.0329 342.972C41.7183 336.298 44.9973 329.963 49.6494 324.681L49.7664 324.548L49.922 324.463C57.2448 320.48 64.5816 313.845 71.0264 306.607C77.4635 299.377 82.9618 291.6 86.617 285.391L86.8109 285.062L87.175 284.946C88.3526 284.57 88.9846 283.991 89.3814 283.32C89.8053 282.602 90.0085 281.703 90.1692 280.592C90.2072 280.329 90.2421 280.052 90.2782 279.765C90.527 277.786 90.8375 275.317 92.6926 273.471" fill="#F7F6F2" stroke="#264432" stroke-width="2"/>
<path d="M86.9926 77.1424C83.233 66.9696 77.0642 45.6685 81.0191 38.8004C84.8134 32.2159 111.114 48.1412 114.376 55.1626C128.164 50.661 149.453 46.5338 165.994 48.1258C172.555 35.7897 187.973 19.1129 193.769 22.9305C201.612 28.0742 201.643 51.0975 201.146 58.4572C212.526 83.74 218.526 98.169 216.108 115.502C217.552 127.968 222.179 147.779 223.16 160.672C229.476 173.28 244.068 198.106 243.152 222.164C242.475 239.995 241.866 254.571 238.686 268.248C236.571 295.586 229.694 345.703 225.625 374.624C224.131 385.202 229.431 396.582 210.426 395.404C197.526 394.606 195.059 389.36 196.447 372.375C199.128 339.841 200.134 313.195 195.203 282.752C179.829 290.05 154.075 294.781 130.548 284.929C124.5 309.512 125.122 343.954 123.531 371.047C128.427 387.421 126.213 394.747 112.913 394.982C103.069 395.162 96.6746 393.308 95.1042 374.495C92.5369 343.841 89.8533 299.159 86.8566 272.367C83.1499 260.254 82.572 236.848 84.7597 217.596C86.6938 200.67 89.6167 178.241 94.7425 165.89C98.1265 157.771 96.6096 147.367 94.0819 142C85.3607 124.429 83.4506 101.494 87.0129 77.1625L86.9926 77.1424Z" fill="#264432"/>
<path d="M107.018 57.1609C104.068 52.0486 92.0454 42.6122 88.0243 45.724C83.6193 49.1591 89.944 64.6575 92.6516 69.9314C95.1168 65.2233 102.169 59.8079 107.039 57.1609H107.018Z" fill="#F7F6F2"/>
<path d="M161.01 97.9577C153.049 89.1881 141.026 90.7036 137.49 101.413C130.195 96.2604 116.96 93.674 110.453 97.0687C103.119 100.888 88.9942 110.668 88.5698 118.871C88.0647 128.53 99.1176 140.068 118.92 146.655C124.618 163.225 143.067 166.397 145.289 171.166C149.897 184.664 137.227 195.818 147.189 214.266C151.129 223.541 139.531 243.303 137.166 257.488C115.545 274.36 113.181 302.306 123.972 330.049C125.548 316.147 125.325 295.496 130.923 284.322C154.544 291.637 175.72 290.99 195.179 282.302C197.382 299.194 199.887 317.764 198.089 334.252C216.437 299.74 212.456 281.877 196.068 257.569C193.644 241.525 180.429 220.268 185.056 212.71C193.017 197.434 179.802 182.441 182.591 167.711C185.541 161.426 199.12 150.575 199.12 133.804C211.062 120.69 213.89 99.0287 211.466 91.5725C210.071 87.3089 199.706 81.9744 180.59 83.2676C175.155 83.6313 168.204 89.5316 161.01 97.9982V97.9577Z" fill="#F7F6F2"/>
<path d="M119.91 69.741C119.203 73.4994 128.983 76.9951 131.933 74.2672C134.519 71.8829 131.307 66.1038 127.326 64.8308C124.093 63.7801 120.476 66.7706 119.91 69.7612V69.741Z" fill="#F7F6F2"/>
<path d="M50.1372 182.199C52.178 191.11 68.2624 193.797 74.2233 190.463C83.1141 185.492 93.9852 174.136 86.8523 159.87C80.8712 147.908 60.099 142.493 50.0765 144.049C33.2647 150.454 24.7982 161.164 22.8786 168.135C30.7591 161.285 37.5889 157.183 41.4686 156.516C46.8435 153.404 52.2588 155.061 56.0981 155.061C63.433 155.061 65.0091 159.972 65.6759 161.305C67.3531 164.801 67.5551 168.337 66.2417 170.438C64.019 174.641 61.8771 176.015 59.4321 177.41C56.7245 179.774 52.8448 179.814 50.1372 182.178V182.199Z" fill="#F7F6F2"/>
<path d="M170.285 65.0934C172.427 68.2659 164.849 75.3583 161.051 74.0247C157.737 72.8527 158.383 66.3058 161.515 63.5375C164.061 61.2946 168.567 62.5878 170.265 65.1136L170.285 65.0934Z" fill="#F7F6F2"/>
<path d="M98.5115 61.0405C91.9242 61.9296 89.9843 54.0491 90.6309 49.3612C95.9655 49.8866 101.866 54.0087 98.5115 61.0405Z" fill="#264432"/>
<path d="M176.852 49.4218C177.984 43.6225 186.329 30.8116 191.138 32.4685C196.432 34.2871 195.442 50.9979 194.593 56.8578C190.734 53.2004 182.308 50.3513 176.852 49.4218Z" fill="#F7F6F2"/>
<path d="M186.167 50.3715C192.694 49.0985 191.966 40.9957 189.845 36.7725C184.975 38.9953 180.732 44.7945 186.167 50.3715Z" fill="#264432"/>
<path d="M166.102 119.276C165.294 124.368 166.345 135.279 167.314 138.977C168.911 145.079 168.486 157.102 157.636 158.072C146.785 159.042 144.077 148.919 143.531 142.655C143.208 138.835 141.046 128.126 138.742 123.499C144.34 122.286 146.764 120.286 151.533 117.881C156.241 118.871 161.354 120.084 166.102 119.276Z" fill="#264432"/>
<path d="M88.9539 183.613C69.5961 189.028 55.5727 206.002 49.8543 224.754C45.227 238.009 44.0955 252.073 42.2567 265.854C36.0129 281.332 24.2527 295.779 25.1418 313.339C26.2935 322.25 21.2015 330.494 18.5747 338.718C13.7655 350.115 9.80505 361.713 3.60166 372.402C0.550477 379.555 -3.81413 392.144 6.57201 395.478C14.0484 396.933 27.1826 398.348 29.7489 391.841C31.7897 383.88 30.0519 375.231 33.1233 367.31C37.589 353.065 41.3272 337.829 51.0869 326.13C67.05 316.673 79.1133 301.7 88.5497 285.979C88.6306 284.08 85.7814 284.827 85.8825 286.484C76.4461 301.316 64.9081 315.562 49.6118 324.614C39.2863 336.879 35.3258 352.923 30.739 367.917C27.9707 375.353 29.4053 383.375 27.8494 390.891C24.9599 396.569 12.6138 394.811 5.76375 392.851C-1.51059 388.083 3.82393 377.818 6.32953 371.675C13.9474 357.47 19.4435 342.214 25.1014 327.14C28.6173 320.35 26.6371 312.955 27.6272 305.802C29.8499 291.051 39.7309 279.109 44.5804 265.369C46.9244 242.394 50.117 217.419 66.464 199.718C72.7281 192.706 81.3562 188.321 90.0248 185.209C90.5906 184.482 89.8834 183.35 88.9741 183.553L88.9539 183.613Z" fill="#264432"/>
<path d="M95.1168 141.422C92.0455 142.432 96.0868 146.534 95.4401 148.494C98.067 161.103 89.9238 172.176 88.5699 184.381C83.2758 214.064 79.0123 244.96 85.8623 274.724C89.5196 309.964 90.6108 345.447 94.2278 380.687C94.5309 392.508 105.22 397.943 117.061 395.519C130.114 393.599 126.498 378.343 124.376 369.472C126.134 341.769 125.326 313.662 131.367 286.424C151.392 294.324 174.448 292.95 194.068 284.504C199.241 315.986 196.776 347.973 194.391 379.576C191.764 393.114 206.192 399.398 217.366 396.428C230.601 393.397 224.135 377.333 227.389 367.836C232.38 333.99 236.643 300.023 240.422 266.056C243.675 248.718 244.726 230.917 244.2 213.317C242.018 193.737 232.864 175.773 224.155 158.496C221.428 157.587 222.357 162.073 223.751 162.861C234.097 183.856 244.746 206.467 241.715 230.553C241.392 244.172 239.674 257.71 237.209 271.067C233.935 307.115 228.156 342.881 223.65 378.747C227.308 394.023 214.739 397.863 204.05 393.397C193.623 389.841 197.402 376.383 197.604 368.018C199.948 339.446 201.221 310.308 196.008 282.039C192.492 280.726 188.794 285.535 185.096 285.413C167.274 290.97 147.553 290.546 130.236 283.554C127.548 285.413 128.781 290.223 127.467 292.95C123.022 318.774 123.426 345.103 121.951 371.17C125.75 379.838 126.801 394.185 112.414 393.498C98.9157 393.821 95.6422 383.637 95.8847 374.059C93.1366 339.951 91.5605 305.741 88.0042 271.713C81.3764 243.081 86.0441 213.317 91.0149 184.785C92.4496 172.338 100.734 161.022 97.9458 148.151C97.0567 146.292 97.8043 141.907 95.1775 141.422H95.1168Z" fill="#264432"/>
<path d="M192.007 21.3954C183.763 23.4161 178.165 30.6904 172.912 36.914C168.911 41.5413 167.315 49.3006 159.858 46.6738C144.865 46.5929 129.933 49.3006 115.606 53.6652C109.827 45.9867 101.017 41.117 92.3283 37.3586C85.5187 32.8525 77.3351 37.7829 79.3356 45.9665C79.9013 56.6356 82.9525 66.9813 86.4078 77.0239C83.4173 98.5236 83.3971 121.62 92.9345 141.584C94.248 142.937 95.9655 140.594 94.5915 139.442C85.741 119.761 86.1047 97.3718 88.8326 76.4177C85.1954 65.3243 81.0733 53.746 82.023 41.905C83.5991 34.267 93.0154 40.4704 97.4406 42.3496C103.866 45.9059 110.332 50.0886 114.616 56.09C118.233 55.9889 121.769 53.8673 125.427 53.3823C139.086 50.0684 153.251 48.3307 167.254 49.2804C169.921 45.7241 171.982 41.4807 174.993 38.0658C179.802 32.4686 184.773 25.9621 192.108 23.7596C199.16 25.6186 199.16 35.5602 200.312 41.5413C201.039 47.381 200.777 53.3015 200.756 59.1412C207.829 75.8721 217.124 93.1689 215.386 111.941C215.669 113.517 213.527 117.033 216.133 117.396C218.457 116.689 217.204 113.113 217.891 111.355C219.326 92.5223 210.213 75.1851 203.08 58.3733C203.403 47.1991 203.646 35.2167 198.21 25.1134C196.856 23.012 194.674 20.8903 191.967 21.355L192.007 21.3954Z" fill="#264432"/>
<path d="M121.062 82.5407C113.767 84.6624 115.101 94.018 122.699 93.2097C130.296 92.4217 128.336 80.419 121.062 82.5407Z" fill="#F7F6F2"/>
<path d="M150.846 110.021C140.46 111.981 133.307 97.3516 147.795 94.7046C162.283 92.0373 161.212 108.061 150.846 110.021Z" fill="#264432"/>
<path d="M150.826 108.991C149.048 109.273 149.937 111.395 150.038 112.547C150.483 113.982 150.038 115.841 151.069 117.013C152.22 117.861 153.514 116.346 152.887 115.194C152.443 113.274 152.544 111.173 151.776 109.374C151.533 109.112 151.17 108.95 150.806 108.97L150.826 108.991Z" fill="#264432"/>
<path d="M138.945 123.236C136.217 123.58 133.59 123.458 131.549 122.771C125.669 121.317 119.829 119.114 115.93 117.861C120.739 126.045 129.67 134.794 136.136 137.603C139.915 139.341 139.692 139.401 142.845 139.543C143.107 133.683 140.501 127.904 138.945 123.216V123.236Z" fill="#264432"/>
<path d="M165.941 118.043C164.102 118.629 165.011 121.256 164.627 122.67C164.405 129.278 165.375 135.865 166.668 142.311C167.274 147.605 165.9 154.617 160.081 156.395C155.453 157.931 149.674 156.435 147.411 151.828C144.239 146.332 145.007 139.725 143.269 133.784C142.279 129.985 141.531 125.964 139.531 122.549C138.339 121.519 136.803 123.357 137.854 124.449C140.743 131.541 141.895 139.179 142.946 146.716C143.956 152.515 147.957 158.456 154.221 159.163C159.858 160.133 166.163 157.223 168.042 151.586C170.164 146.373 169.032 140.755 167.941 135.461C167.173 129.965 166.85 124.347 167.274 118.831C167.092 118.286 166.527 117.922 165.961 118.023L165.941 118.043Z" fill="#264432"/>
<path d="M166.628 118.932C169.012 118.407 171.194 117.578 172.75 116.427C177.923 113.274 182.813 109.415 186.167 107.031C184.066 116.285 178.166 127.318 172.871 131.945C169.78 134.734 170.022 134.734 167.072 135.825C164.486 130.389 165.9 123.943 166.628 118.932Z" fill="#264432"/>
<path d="M186.046 105.818C182.954 107.556 180.247 110.041 177.236 112.001C173.276 114.729 169.214 117.78 164.223 118.124C160.081 118.649 155.575 118.265 151.998 115.942C150.22 116.002 149.735 118.488 147.997 118.932C142.541 122.145 135.671 123.216 129.67 121.013C124.982 119.801 120.496 117.942 115.849 116.669C114.515 116.79 114.515 118.568 115.384 119.276C120.335 126.995 126.78 134.087 134.964 138.452C137.53 139.482 140.521 141.361 143.491 140.594C144.744 139.846 143.693 137.926 142.36 138.33C138.44 138.088 134.944 135.744 131.771 133.582C126.821 129.803 122.537 125.196 118.96 120.124C124.396 121.842 129.731 124.085 135.388 124.63C141.329 124.63 147.815 123.034 151.998 118.548C157.979 121.822 165.577 121.215 171.639 118.488C175.963 116.002 179.984 113.032 183.985 110.062C180.974 118.993 176.589 128.106 168.79 133.824C167.779 134.309 165.254 134.653 166.001 136.37C166.951 137.845 168.85 136.269 169.962 135.906C178.59 129.803 183.581 119.862 186.652 110.001C186.814 108.748 188.269 106.586 186.511 105.859C186.349 105.818 186.187 105.798 186.046 105.818Z" fill="#264432"/>
<path d="M177.398 76.4788C172.164 77.2668 166.971 80.1765 164.061 84.6624C163.253 86.1173 165.779 87.2084 166.284 85.6323C169.073 81.8335 173.579 79.5097 178.165 78.7621C179.317 78.1155 178.711 76.3171 177.398 76.499V76.4788Z" fill="#F7F6F2"/>
<path d="M216.901 114.042C215.83 114.184 215.75 115.457 215.972 116.285C217.346 131.804 221.165 147.019 222.317 162.578C222.559 163.811 224.519 163.73 224.681 162.477C224.236 154.415 222.822 146.433 221.569 138.452C220.296 130.612 218.942 122.751 218.275 114.83C218.094 114.285 217.487 113.921 216.922 114.022L216.901 114.042Z" fill="#264432"/>
<path d="M56.866 142.897C44.2773 142.493 32.4767 149.969 25.9703 160.497C17.0794 174.359 15.5639 193.252 23.8688 207.74C29.5872 217.499 40.1754 223.622 51.0667 225.804C52.4408 225.562 51.9962 223.481 50.6424 223.622C39.3874 221.056 28.4961 214.145 23.8486 203.213C16.2913 185.412 21.929 162.619 37.589 151.04C46.4394 144.392 58.5431 143.463 68.808 147.039C76.0419 149.201 83.4981 153.546 85.9431 161.144C89.6207 172.378 83.1142 185.896 72.2229 190.301C65.8579 191.473 58.6846 190.443 53.4511 186.422C50.7232 184.341 48.5611 178.784 52.5822 176.844C54.7241 175.672 57.654 173.672 57.1691 170.863C56.7649 169.913 55.1686 170.236 55.1888 171.267C54.1987 175.066 48.1368 175.308 48.2176 179.814C48.0964 185.997 53.7946 190.281 59.2907 191.676C65.3325 193.312 72.5058 193.918 77.6786 189.695C88.0648 182.461 92.8537 166.781 85.5794 155.789C80.5682 148.211 71.3338 145.019 62.8067 143.402C60.8466 143.079 58.8664 142.897 56.866 142.877V142.897Z" fill="#264432"/>
<path d="M252.263 37.8233C242.22 41.4402 233.087 47.7851 226.419 56.1506C224.317 58.8784 222.397 61.8084 221.165 65.0414C220.842 66.3751 222.66 67.3854 223.61 66.3953C224.438 65.2031 224.822 63.728 225.651 62.5156C230.036 55.1807 236.623 49.3612 243.877 44.9562C246.868 43.1376 250.08 41.6827 253.374 40.5108C254.566 39.8843 254.101 37.8637 252.768 37.8233C252.606 37.8233 252.424 37.8233 252.263 37.8637V37.8233Z" fill="#264432"/>
<path d="M251.05 7.49333C250.02 7.63477 249.757 8.92799 250.343 9.65542C252.101 13.2522 253.839 16.8489 255.597 20.4255C252.404 23.2544 249.171 26.0833 245.979 28.9324C245.17 29.8013 246.201 31.2966 247.312 30.8722C251.515 30.0236 255.738 29.1749 259.941 28.306C260.527 32.0442 261.032 35.7824 261.679 39.5004C262.043 40.5916 263.74 40.4501 264.023 39.359C265.882 35.7218 267.741 32.0846 269.6 28.4475C273.197 28.3868 276.814 28.3868 280.41 28.2656C281.562 28.0433 281.623 26.3056 280.552 25.9216C277.379 23.901 274.227 21.8803 271.055 19.8597C272.207 16.5256 273.379 13.2118 274.51 9.8777C274.732 8.80675 273.318 8.0389 272.51 8.74613C269.661 10.3222 266.791 11.9186 263.942 13.4947C259.8 11.5144 255.698 9.45336 251.535 7.51354C251.374 7.47312 251.212 7.47312 251.05 7.49333ZM253.879 11.3326C257.133 12.8885 260.386 14.4848 263.659 16.0205C264.629 16.2023 265.397 15.3334 266.246 14.9899C267.862 14.1009 269.499 13.1916 271.115 12.3025C270.226 14.9495 269.297 17.5764 268.428 20.2234C268.287 21.4156 269.661 21.7389 270.408 22.3451C272.287 23.5373 274.146 24.7497 276.005 25.9419C273.54 26.0025 271.055 25.9823 268.59 26.0631C267.579 26.346 267.458 27.5584 266.933 28.3262C265.761 30.6096 264.589 32.8929 263.417 35.1762C262.952 32.2463 262.548 29.3163 262.043 26.4066C261.719 25.4569 260.608 25.5579 259.84 25.8004C256.951 26.4066 254.041 26.9926 251.151 27.5988C253.455 25.5377 255.819 23.5575 258.082 21.456C258.709 20.4861 257.719 19.5566 257.415 18.6473C256.243 16.2023 255.051 13.7775 253.879 11.3326Z" fill="#264432"/>
</g>
<defs>
<clipPath id="clip0_53_1565">
<rect width="297" height="226" fill="white" transform="translate(0 0.0554047)"/>
</clipPath>
</defs>
</svg>
