<svg width="249" height="379" viewBox="0 0 249 379" fill="none" xmlns="http://www.w3.org/2000/svg">
<path d="M0.453815 186.174C4.86945 182.305 9.95411 178.302 14.9873 175.213C21.2659 171.354 28.893 169.67 35.7892 167.238C47.6568 163.05 61.4595 163.769 73.8418 164.343C78.8442 164.58 85.3286 165.842 90.0016 167.741C92.2969 168.675 94.6437 169.989 96.9184 170.933C100.181 172.288 103.67 173.93 106.707 175.777C112.8 179.472 118.955 184.614 123.711 190.516C123.731 190.516 123.742 190.516 123.762 190.516C124.349 190.557 124.606 191.06 124.586 191.553H124.596C124.565 189.387 124.596 187.211 124.74 185.035C125.306 176.557 127.591 169.075 130.833 161.398C131.029 160.33 131.235 159.273 131.471 158.226C131.976 156.03 132.902 154.1 133.839 152.14C132.974 146.279 132.943 140.306 131.955 134.476C126.099 129.303 114.982 131.417 108.096 132.485C99.5534 133.819 91.3088 136.118 82.5393 134.753C65.6384 132.105 46.8128 124.038 34.0291 139.957C33.8541 140.172 33.5865 140.111 33.4424 139.936C33.4733 140.265 33.5042 140.583 33.535 140.911C33.5659 141.23 33.0924 141.281 33.0307 140.973C32.0426 135.215 31.1471 129.324 31.6617 123.545C31.6617 123.504 31.6308 123.484 31.6308 123.442C32.1661 111.393 39.7416 98.2245 50.3433 92.251C57.7129 88.0942 64.2077 85.6411 72.9052 84.9843C80.2954 84.43 87.8916 86.7599 94.973 88.4842C110.33 92.2202 123.855 101.786 131.966 115.365C134.734 120.004 137.74 125.341 139.253 130.812C139.922 127.178 140.303 123.535 141.507 119.973C143.205 114.965 145.737 110.264 147.322 105.214C148.681 100.903 148.825 96.4181 149.144 91.9636C149.072 91.7275 148.99 91.5017 148.918 91.2657C143.113 89.1719 137.338 89.3464 131.327 87.6426C126.829 86.3596 122.383 84.8919 118.307 82.562C109.63 77.6046 101.725 69.8966 96.3934 61.5521C93.6761 57.3132 90.5265 53.3001 88.3136 48.7533C86.08 44.1859 84.7831 39.1772 82.9613 34.4354C80.6351 28.3695 79.4 21.9136 76.8576 15.9401C74.7991 11.0956 71.9582 6.83616 70.9084 1.61192C70.7025 0.575283 71.7318 -0.0200135 72.5861 0.000513997C76.2812 0.0826239 79.9146 2.33038 82.9922 4.18812C89.4355 8.07808 95.5906 9.67922 102.579 12.1836C106.583 13.6205 110.227 16.3814 114.015 18.3316C120.211 21.5338 125.728 26.3475 130.916 30.9252C140.015 38.9514 148.012 46.4029 151.254 58.4936C152.582 63.4407 153.92 69.7323 153.622 74.854C153.395 78.7747 152.284 82.6236 152.181 86.5649C152.181 86.688 152.109 86.7701 152.037 86.8523C152.006 87.4065 151.975 87.971 151.944 88.5253C151.903 89.2642 151.882 90.0135 151.862 90.773C151.944 90.9988 151.923 91.2349 151.841 91.4401C151.81 92.6821 151.769 93.9342 151.728 95.1864C151.728 95.248 151.728 95.3096 151.728 95.3712C151.728 95.3814 151.718 95.3917 151.718 95.402C151.656 97.0647 151.553 98.7171 151.347 100.329C150.699 105.255 148.877 109.802 147.106 114.369C149.258 111.701 151.676 109.268 154.116 106.62C158.13 102.258 161.64 97.5471 165.839 93.2671C172.828 86.1543 182.606 81.1969 192.024 78.1589C203.48 74.4537 215.43 74.8232 226.516 79.5958C231.415 81.6999 235.707 85.0766 239.155 89.1103C242.994 93.6058 245.166 98.7992 248.748 103.418C249.51 104.403 248.398 105.543 247.348 105.183C237.601 101.827 227.566 107.236 218.621 110.387C210.881 113.117 202.729 115.652 194.731 117.541C189.832 118.701 184.891 119.296 179.92 119.953C175.69 120.507 171.737 121.923 167.455 121.944C159.705 121.985 152.201 119.275 144.533 121.821C143.946 123.863 143.483 125.947 143.288 128.112C142.907 132.28 141.209 136.077 140.57 140.203C140.385 141.383 140.231 142.513 140.056 143.621C139.922 144.996 139.726 146.341 139.459 147.665C146.468 139.598 156.041 133.029 165.561 130.473C172.18 128.687 179.838 128.646 185.581 132.844C191.283 137.021 195.658 144.822 194.556 152.099C193.506 159.058 183.677 155.825 179.045 156.061C169.504 156.543 159.787 162.137 153.21 168.808C146.056 176.075 139.171 187.509 135.867 197.146C134.086 202.34 132.367 207.441 130.967 212.747C130.73 213.63 130.576 214.615 130.329 215.56C130.38 216.812 130.432 218.064 130.535 219.316C131.029 225.556 131.379 231.807 131.76 238.058C133.211 228.471 135.002 219.254 140.076 210.479C145.737 200.698 159.643 194.088 169.987 191.214C184.191 187.262 198.437 186.298 212.754 190.075C218.065 191.471 222.821 194.478 226.948 198.121C230.561 201.313 232.033 204.906 234.338 208.806C234.678 209.052 235.028 209.278 235.357 209.566C235.707 209.863 235.357 210.51 234.925 210.274C234.729 210.171 234.534 210.109 234.338 210.007C234.225 210.007 234.112 209.976 234.009 209.863C220.968 203.643 212.692 215.939 204.232 223.812C197.418 230.155 188.185 236.61 179.035 238.981C174.032 240.275 169.257 241.948 164.11 242.522C158.83 243.118 153.529 243.59 148.403 245.047C142.567 246.71 137.287 249.327 135.486 255.516C134.775 257.969 134.251 260.658 133.89 263.296C134.95 270.953 136.309 278.599 136.216 286.338C136.093 296.756 136.546 306.999 136.566 317.448C136.587 327.711 136.206 337.842 136.062 348.003C136.041 349.748 134.868 352.067 134.621 353.627C134.22 356.193 134.353 358.841 134.189 361.428C133.808 367.504 131.173 372.779 130.339 378.753C130.288 379.143 129.722 379.04 129.742 378.661C130.02 373.796 131.852 369.351 132.418 364.548C132.954 360.011 132.593 355.434 133.252 350.897C133.849 346.792 133.643 342.881 134.034 338.704C134.333 335.502 133.54 332.7 133.551 329.569C133.561 326.962 134.209 324.468 134.065 321.82C133.839 317.561 133.911 313.455 133.952 309.185C134.004 303.54 132.12 298.152 132.532 292.497C133.314 281.72 131.358 271.569 130.01 260.915C129.773 259.047 129.588 257.169 129.413 255.29C128.806 252.981 128.301 250.703 127.756 248.486C122.764 243.22 114.231 242.522 107.551 246.484C101.231 250.241 97.1757 256.686 92.9248 262.537C90.1766 266.324 86.9446 270.296 82.8995 272.8C78.0928 275.777 71.0525 278.63 65.309 278.538C65.0414 278.538 64.9076 278.353 64.8973 278.168C64.6915 278.404 64.465 278.63 64.1974 278.835C63.7239 279.184 62.8799 278.64 63.2299 278.066C63.3019 277.953 63.3225 277.809 63.3843 277.696C63.2093 277.542 63.127 277.296 63.3122 277.05C63.549 276.752 63.7857 276.475 64.0122 276.187C65.8134 270.573 63.0446 262.475 62.7976 257.015C62.5403 251.38 63.0549 246.115 64.815 240.767C68.4175 229.867 76.3636 222.251 88.0871 220.876C98.7196 219.634 110.999 222.775 119.151 229.836C123.227 233.367 126.768 237.031 128.301 242.348C128.425 242.779 128.528 243.22 128.631 243.651C128.312 237.39 128.054 231.13 127.437 224.889C127.076 221.266 126.901 217.674 126.799 214.082C125.924 208.283 125.121 202.432 124.771 196.561C123.402 195.094 121.94 193.739 120.448 192.425C117.669 192.148 114.859 191.594 112.152 192.097C107.993 192.866 103.526 196.674 99.3269 198.111C88.0562 201.96 76.9709 201.252 65.237 202.052C56.0352 202.689 45.3821 199.835 36.6435 197.023C25.3831 193.4 13.4125 186.636 1.339 188.422C0.031809 188.617 -0.421087 186.965 0.443512 186.195L0.453815 186.174ZM148.763 58.4217C144.996 46.3002 135.908 38.6537 126.459 30.7609C121.786 26.8607 116.67 22.6013 111.04 20.138C106.717 18.2494 102.991 15.6219 98.452 14.185C93.6658 12.6762 88.8385 11.3214 84.464 8.75548C81.3041 6.90801 78.0001 4.1368 74.305 3.21306C75.7254 8.12939 78.6383 12.4402 80.3469 17.2744C82.2305 22.6115 83.445 28.0924 85.4933 33.3987C87.3152 38.12 88.6121 43.1801 90.8662 47.7064C93.1615 52.325 96.4346 56.4305 99.1828 60.7824C104.659 69.4655 114.282 77.9536 123.752 82.1515C129.166 84.5429 134.724 85.9491 140.601 86.3904C143.329 86.5957 145.676 87.0267 147.909 88.0429C145.49 80.7351 142.824 73.7557 138.512 66.9919C133.654 59.3968 126.716 53.413 119.902 47.5832C107.479 36.9602 94.0467 27.4355 83.7538 14.6571C83.4348 14.2671 84.0523 13.8155 84.3714 14.1953C96.8772 28.8724 113.459 39.1259 127.859 51.8221C137.071 59.951 146.386 71.2103 150.081 83.6294C150.482 80.6222 150.915 77.6149 151.296 74.5974C151.1 69.1473 150.41 63.6459 148.784 58.4114L148.763 58.4217ZM161.424 118.875C167.589 119.696 172.54 118.547 178.53 117.602C184.593 116.648 190.573 116.104 196.543 114.544C206.053 112.06 215.78 109.063 224.807 105.214C230.911 102.607 238.476 100.883 245.207 102.197C243.386 99.0866 241.975 95.7612 239.732 92.9181C235.985 88.1865 231.302 83.9168 225.62 81.6588C214.349 77.1736 202.214 77.4507 190.944 81.6178C181.618 85.0561 173.075 89.7056 166.004 96.8081C162.432 100.39 159.427 104.393 155.927 108.016C152.767 111.28 149.268 114.482 146.427 118.105C148.928 116.35 151.275 114.688 153.622 112.388C156.72 109.35 159.911 106.087 163.523 103.664C166.457 101.694 169.884 100.606 173.096 99.2098C178.417 96.9005 182.915 93.2055 188.514 91.5838C205.343 86.7291 226.186 84.0605 239.855 97.4444C240.164 97.7523 239.763 98.2861 239.423 97.9884C224.735 85.2101 197.356 87.1089 181.505 96.8081C174.887 100.862 167.301 102.864 161.31 107.903C157.152 111.403 153.426 114.944 149.258 118.116C153.313 117.643 157.77 118.382 161.444 118.865L161.424 118.875ZM101.478 174.556C90.5883 169.28 79.5544 166.078 67.3573 165.934C61.2022 165.862 55.4073 165.411 49.2522 166.211C43.1382 167.012 37.9507 169.003 32.197 170.82C21.935 174.073 13.0523 179 4.86944 185.692C5.29145 185.702 5.70317 185.733 6.11488 185.774C11.3436 183.968 16.3769 181.104 21.5542 179.38C27.8843 177.276 34.4408 175.398 40.8224 173.447C47.5951 171.384 55.1088 171.22 62.1286 171.487C67.7587 171.692 73.636 171.456 79.2353 172.031C89.5796 173.098 99.4916 176.588 108.745 181.248C111.38 182.582 114.447 184.214 117.473 186.154C112.584 181.381 107.808 177.614 101.478 174.546V174.556ZM128.476 178.795C127.962 182.233 127.766 185.651 127.745 189.048C127.838 188.638 127.92 188.227 128.013 187.827C128.353 183.957 128.631 180.037 128.97 176.106C128.785 177.009 128.61 177.902 128.476 178.795V178.795ZM129.855 115.334C121.374 102.238 107.736 93.7598 92.688 90.2496C78.7824 87.0062 65.3914 85.6925 52.8135 93.7187C41.6664 100.842 36.9214 110.325 33.5144 122.755C33.36 123.566 33.2262 124.387 33.1233 125.208C32.5778 130.032 32.9483 134.733 33.4115 139.515C41.2135 120.507 65.659 129.026 80.8101 131.479C93.4188 133.521 105.369 129.344 117.906 128.605C121.827 128.379 127.056 128.482 130.833 130.566C126.829 120.897 114.632 112.809 106.347 108.273C85.1537 96.6644 50.0653 103.787 38.3727 126.029C38.1153 126.522 37.3228 126.193 37.5698 125.68C48.0377 103.336 81.6953 93.8932 103.691 103.89C114.807 108.94 126.901 117.859 132.563 128.923C133.314 130.401 133.829 132.033 134.209 133.727C134.518 134.23 134.796 134.753 135.012 135.348C135.156 135.749 134.971 136.098 134.683 136.313C135.28 140.542 135.197 145.078 135.146 149.317C135.187 149.225 135.228 149.143 135.259 149.061C137.06 144.719 137.009 139.844 138.213 135.318C137.184 128.143 133.818 121.492 129.845 115.344L129.855 115.334ZM181.937 133.285C176.317 130.453 168.979 131.294 163.297 133.583C154.044 137.309 144.327 145.273 138.738 153.341C138.09 154.275 137.462 155.25 136.855 156.245C136.422 157.313 135.969 158.39 135.455 159.489C135.383 159.643 135.218 159.653 135.105 159.571C133.952 164.251 133.448 169.085 133.036 173.95C136.114 167.772 140.169 162.127 145.079 157.457C152.798 150.128 159.941 144.401 171.006 143.436C179.868 142.677 185.385 145.52 190.923 151.781C195.297 146.751 185.879 135.256 181.937 133.265V133.285ZM146.283 172.667C151.007 165.883 157.059 160.659 164.635 157.333C168.248 155.753 171.696 154.131 175.618 153.536C179.169 153.002 185.056 154.552 188.216 153.495C188.988 153.238 189.585 152.889 190.11 152.499C187.773 150.375 185.18 148.281 182.534 146.792C178.201 144.36 172.736 144.996 167.98 145.787C158.017 147.449 150.719 154.418 143.988 161.388C138.152 167.443 134.528 174.566 132.315 182.182C131.719 188.073 131.07 193.954 130.648 199.846C130.967 200.636 131.204 201.447 131.389 202.268C132.079 200.184 132.82 198.121 133.509 196.079C136.278 187.837 141.322 179.78 146.283 172.657V172.667ZM130.905 203.787C130.73 203.787 130.555 203.736 130.442 203.571L130.422 203.551C130.38 204.269 130.35 204.978 130.319 205.696C130.504 205.06 130.7 204.423 130.895 203.797L130.905 203.787ZM132.501 249.368C132.583 246.618 132.727 243.867 133.252 241.137C132.923 242.338 132.542 243.477 132.161 244.678C132.264 246.238 132.377 247.808 132.49 249.368H132.501ZM226.742 200.646C222.049 196.274 216.665 193.575 210.438 192.24C197.16 189.397 183.739 190.567 170.718 194.16C159.499 197.249 147.178 204.146 141.476 214.513C138.851 219.285 136.566 223.832 135.383 229.19C134.734 232.115 134.302 235.03 133.911 237.996C133.839 238.55 133.726 239.033 133.623 239.525C135.064 233.49 137.472 228.317 140.92 223.155C146.89 214.225 155.155 208.036 164.697 203.13C169.987 200.41 176.503 197.054 182.256 195.689C187.753 194.385 194.598 194.447 200.238 194.734C210.284 195.258 222.151 198.132 230.128 204.608C229.13 203.223 228.08 201.868 226.752 200.636L226.742 200.646ZM139.942 245.581C150.256 239.679 163.06 240.5 174.269 237.452C188.823 233.49 200.217 224.889 210.675 214.236C216.202 208.601 224.828 204.136 232.187 207.533C231.703 206.866 231.24 206.199 230.767 205.532C230.674 205.634 230.509 205.686 230.365 205.583C220.587 198.748 208.843 196.695 197.191 196.52C191.005 196.428 185.005 196.253 179.179 198.604C173.055 201.077 166.869 203.705 161.29 207.174C154.064 211.67 148.064 217.017 143.144 223.935C138.687 230.196 136 237.267 135.012 244.873C134.745 246.977 134.611 249.142 134.364 251.288C135.692 248.989 137.493 246.987 139.932 245.591L139.942 245.581ZM87.7063 264.415C92.8939 258.657 96.7846 251.78 102.641 246.659C108.436 241.588 118.492 240.008 125.255 243.426C123.968 241.989 122.455 240.644 120.53 239.423C116.65 236.959 112.749 234.742 108.168 234.055C98.874 232.659 90.6089 234.137 84.1347 241.065C74.5932 251.267 77.115 267.34 65.8649 276.331C65.6899 276.865 65.4326 277.347 65.1238 277.789C65.1547 277.778 65.1547 277.758 65.1855 277.748C73.708 275.705 81.9732 270.758 87.696 264.415H87.7063ZM118.564 232.084C109.167 224.54 94.3658 220.096 82.5084 224.171C69.8379 228.523 64.9591 242.481 65.1547 254.644C65.2473 260.166 66.4516 265.657 66.4104 271.148C66.4104 271.815 66.4104 272.534 66.3692 273.262C68.5822 270.573 70.7025 267.874 72.195 264.538C74.5006 259.375 74.9637 253.751 77.0429 248.537C79.4926 242.399 84.2582 236.066 90.4854 233.398C97.7624 230.288 108.271 230.062 115.384 233.583C119.007 235.369 122.043 237.206 124.575 239.351C123.206 236.734 121.333 234.291 118.575 232.074L118.564 232.084ZM32.2587 193.564C42.6133 197.362 55.0882 200.308 66.0913 199.353C78.6074 198.265 90.4956 199.055 102.312 193.872C106.491 192.035 108.704 189.243 113.438 189.1C114.54 189.069 115.62 189.192 116.691 189.356C103.362 179.339 86.4094 174.669 69.3953 174.33C63.621 174.217 57.8467 173.663 52.0724 174.002C44.5998 174.453 38.0433 177.194 30.9412 179.216C25.486 180.776 20.2881 182.541 14.977 184.543C13.289 185.179 11.673 185.877 10.0467 186.472C11.6421 186.883 13.2478 187.416 14.9873 188.012C20.6998 189.972 26.5976 191.481 32.269 193.554L32.2587 193.564Z" fill="#38664A"/>
</svg>
