<svg width="258" height="238" viewBox="0 0 258 238" fill="none" xmlns="http://www.w3.org/2000/svg">
<path d="M1.03986 236.438C1.29381 235.025 2.38124 231.737 2.68077 230.369C7.53186 208.354 20.4247 192.049 40.6234 179.254C41.1573 178.902 41.6587 178.544 42.1927 178.219C43.202 177.613 44.1396 177.053 45.0512 176.5C45.455 176.246 45.8326 176.018 46.2363 175.79C46.588 175.562 46.9461 175.36 47.2977 175.158C53.1646 171.72 57.4622 169.467 61.7337 167.344C61.9617 167.24 62.1375 167.143 62.3133 167.064C62.5672 166.941 62.7951 166.811 63.0491 166.713C63.3551 166.563 63.6807 166.407 63.9867 166.231C64.0649 166.205 64.1626 166.153 64.2407 166.127C64.6965 165.899 65.1523 165.671 65.6342 165.443C65.836 165.339 66.0639 165.241 66.2658 165.118C69.0462 163.75 72.0806 162.259 75.7465 160.364C76.9316 159.759 78.1753 159.101 79.5102 158.391C79.66 158.313 79.8163 158.241 79.966 158.163C81.1316 157.532 82.3688 156.874 83.658 156.164C83.7101 156.112 87.5519 148.376 92.8328 143.981C93.3407 143.525 94.1221 143.727 94.4737 144.307C95.0076 145.218 95.535 146.052 96.0885 146.911C98.0615 144.658 99.6048 142.262 100.868 139.71C101.122 139.228 101.324 138.7 101.552 138.192C99.0773 135.939 96.7722 133.543 94.7797 131.193C90.3063 125.957 86.8682 119.589 86.2626 112.739C85.885 108.441 86.6143 104.144 87.3501 99.8981C87.4738 99.1623 87.604 98.4851 87.7277 97.8275C85.8589 96.4601 83.7818 94.2396 81.965 90.5737C78.5269 83.5998 75.4405 76.8213 77.4656 73.533C79.2367 70.6744 82.1148 71.5861 84.6673 73.4093C76.7298 58.3677 72.0024 26.1877 91.4393 25.0482C91.6151 25.0222 91.7649 25.0482 91.9472 25.0222C91.8691 24.8464 91.7974 24.6966 91.7453 24.4882C87.8515 12.9628 104.762 3.05232 122.083 0.421662C136.922 -1.80528 153.253 5.09693 163.567 13.868C180.38 28.1738 190.616 50.1436 180.198 63.4662C181.311 62.7825 182.601 62.6848 184.04 63.616C187.276 65.7127 187.198 73.0707 185.863 80.1227C185.108 84.0165 183.056 87.6565 181.363 90.209C182.855 96.4275 183.916 102.522 183.03 110.076C181.689 121.503 176.18 136.089 163.06 144.782C163.164 145.212 163.235 145.642 163.366 146.071C163.541 146.677 163.717 147.211 163.919 147.712C163.945 147.79 163.971 147.836 163.997 147.888C164.199 148.396 164.401 148.871 164.655 149.353C164.681 149.405 164.707 149.431 164.733 149.477C165.566 151.072 166.68 152.537 168.119 153.976C168.549 154.406 169.005 154.836 169.512 155.24C169.591 155.161 169.636 155.064 169.714 154.986C170.45 153.95 171.205 152.915 171.915 151.801C172.495 150.89 173.758 150.688 174.572 151.45C177.86 154.634 185.192 161.94 184.736 163.835C185.218 164.037 185.674 164.265 186.149 164.466C189.789 165.958 193.201 167.449 196.438 168.94C199.674 170.457 202.734 171.948 205.586 173.465C206.042 173.719 206.498 173.947 206.954 174.201C207.813 174.683 208.699 175.165 209.532 175.64C209.884 175.842 210.288 176.044 210.646 176.246C211.759 176.903 212.847 177.535 213.908 178.193C221.266 182.64 227.152 187.139 231.854 191.691C232.433 192.225 232.993 192.778 233.547 193.332C248.439 208.601 255.543 231.88 255.543 234.791C255.517 234.791 255.771 237.044 255.771 237.044L1.0594 236.412L1.03986 236.438ZM177.079 67.321C177.307 66.8652 177.561 66.4354 177.815 66.0057C177.561 66.2336 177.307 66.4615 177.059 66.6634C177.059 66.8913 177.059 67.1192 177.085 67.321H177.079Z" fill="#F7F6F2"/>
<path d="M53.2818 232.668C53.3469 232.356 53.412 232.043 53.4707 231.73C53.7832 230.116 54.0697 228.494 54.3367 226.866C54.8771 223.624 55.3329 220.368 55.7106 217.106C56.0883 213.843 56.3878 210.574 56.6092 207.299C56.8306 204.024 56.9673 200.749 57.0259 197.467C57.0845 194.185 57.065 190.897 56.9608 187.615C56.8566 184.327 56.6743 181.045 56.4138 177.763C56.2706 175.992 56.1078 174.221 55.919 172.45C52.3767 174.37 48.4112 176.643 43.1759 179.853C40.1351 181.722 37.1658 183.714 34.3138 185.85C31.618 187.869 29.0264 190.018 26.5585 192.31C24.2209 194.485 22.0005 196.796 19.9363 199.238C17.9438 201.595 16.088 204.083 14.4146 206.674C12.7606 209.233 11.2695 211.903 9.96068 214.664C8.63884 217.444 7.50584 220.316 6.54865 223.239C6.06029 224.731 5.62401 226.241 5.22681 227.765C4.70589 229.77 4.28262 231.802 3.69008 233.782C3.35149 234.908 2.57661 236.888 1.04642 236.419C0.571075 236.275 0.258514 235.859 0.102234 235.403C-0.0800781 234.875 0.0241089 234.185 0.0892029 233.645C0.160828 233.117 0.278046 232.59 0.382233 232.069C0.584106 231.047 0.79895 230.024 1.03989 229.002C1.75615 225.935 2.64824 222.907 3.71613 219.945C4.771 217.034 5.99516 214.195 7.39514 211.434C8.79512 208.68 10.3644 206.016 12.0899 203.457C13.8415 200.859 15.7624 198.372 17.8136 196.002C19.9298 193.56 22.1958 191.242 24.5725 189.047C27.0599 186.755 29.671 184.607 32.3798 182.581C35.2254 180.459 38.1751 178.486 41.1964 176.617C49.2121 171.662 54.5451 168.829 59.5719 166.303C61.2649 165.469 62.9058 164.662 64.6509 163.802C67.2295 162.539 69.9578 161.198 73.194 159.557C73.3959 159.453 73.6238 159.355 73.8257 159.231C74.607 158.827 75.421 158.424 76.2545 157.968C77.5177 157.336 78.8591 156.627 80.2721 155.845C80.7279 155.591 81.2358 155.311 81.7111 155.064C81.939 154.94 82.0627 154.862 82.219 154.784C83.2543 152.889 86.8227 146.521 91.55 142.601C92.1816 142.021 93.0412 141.767 93.9007 141.891C94.91 142.028 95.7565 142.666 96.2774 143.662C97.8206 141.565 99.0838 139.286 100.067 136.838C98.1462 134.995 96.375 133.074 94.7602 131.199C90.2868 125.964 86.8487 119.596 86.2431 112.745C85.8655 108.448 86.5948 104.15 87.3306 99.9047C85.032 98.3875 82.4534 95.835 80.2525 91.4137C76.3326 83.5022 73.2982 76.626 75.8312 72.5563C77.1986 70.3554 78.9893 69.854 80.2786 69.828C80.3307 69.8019 80.3828 69.8019 80.4544 69.8019C81.3921 69.8019 82.2776 70.0298 83.1827 70.4075C76.2284 54.4803 73.1745 26.1422 91.4263 25.0548C91.6021 25.0548 91.7779 25.0287 91.9342 25.0287C91.8561 24.8529 91.7844 24.6771 91.7323 24.4948C87.8385 12.9694 104.749 3.05885 122.07 0.428193C136.909 -1.79875 153.24 5.10346 163.554 13.8745C179.377 27.3468 189.418 47.6237 181.806 61.0439C182.77 61.0179 183.877 61.2458 185.068 62.0272C189.848 65.1397 188.787 74.92 187.699 80.4808C186.761 85.384 183.955 89.8835 182.086 92.4881C182.138 92.996 182.164 93.4713 182.19 93.9532C183.174 98.9084 183.734 104.039 183.024 110.082C181.735 121.002 176.682 134.832 164.772 143.63C165.378 147.022 166.706 149.789 169.18 152.381C169.578 152.244 169.395 152.309 169.792 152.173C170.092 150.48 171.388 149.321 172.938 149.138C173.999 148.989 175.06 149.34 175.868 150.102C183.525 157.506 185.876 160.82 186.488 162.591C186.612 162.643 186.742 162.695 186.866 162.741C186.97 162.793 187.094 162.845 187.191 162.891C198.013 167.338 207.084 171.811 214.898 176.591L215.985 177.275C223.669 182.1 229.939 186.983 234.869 192.036C238.508 195.761 241.68 199.922 244.486 204.297C247.11 208.38 249.422 212.665 251.453 217.066C253.081 220.602 254.546 224.223 255.758 227.921C256.187 229.223 256.584 230.539 256.91 231.874C257.034 232.362 257.144 232.857 257.236 233.352C257.34 233.918 257.555 234.817 257.535 235.501C257.49 236.959 256.22 237.487 255.243 236.673C254.579 236.119 254.097 234.973 253.544 233.241C252.918 231.307 252.228 229.367 251.59 227.55C250.229 223.669 248.627 219.879 246.824 216.187C244.59 211.616 242.031 207.202 239.088 203.054C236.991 200.104 234.699 197.284 232.166 194.693C227.719 190.141 222.132 185.746 215.282 181.422C212.475 198.463 212.274 215.725 214.761 232.863C215.054 234.973 215.445 236.738 215.445 236.738L57.1627 236.477L52.3832 236.451C52.6893 235.188 53.0148 233.931 53.2883 232.662L53.2818 232.668ZM88.0989 79.3543C86.6338 77.4595 82.792 73.5916 80.4153 73.5916C80.0377 73.6177 79.5558 73.7414 79.074 74.5553C77.433 77.186 81.4767 85.3514 83.6516 89.7207C85.0906 92.6509 86.712 94.5457 88.177 95.7373C88.6589 93.5625 89.0887 91.5179 89.2905 88.8351C89.3687 87.8519 89.4142 86.8621 89.4403 85.8528C89.0105 83.7301 88.5547 81.5031 88.0989 79.3543ZM181.429 86.4845C182.516 84.4854 183.525 82.1868 183.981 79.7841C185.622 71.2149 184.691 66.3118 183.017 65.2243C182.535 64.9183 182.21 64.8467 181.93 64.8467C181.702 64.8467 181.552 64.8988 181.396 64.9508C180.107 65.5043 178.941 67.5555 178.108 69.6001C179.625 75.6428 180.712 81.2817 181.422 86.4845H181.429ZM166.361 108.07C167.852 108.825 168.861 109.561 169.623 110.095C172.684 112.296 176.499 103.773 177.535 95.3596C177.736 93.7448 177.815 92.1234 177.789 90.5802C177.639 84.3356 174.78 68.3629 174.78 68.3629C174.754 68.2131 174.754 68.0829 174.728 67.9331C174.403 65.3025 173.895 62.7239 173.237 60.3016C173.211 60.1779 173.211 60.1258 173.185 60.0477C168.23 42.2517 155.337 30.3682 151.417 30.3942C159.101 37.9801 159.934 43.7428 158.599 47.8841C146.26 35.8509 128.92 31.5012 123.209 30.6416C108.193 28.4147 103.544 32.0807 103.036 32.5365C102.834 32.9402 102.685 33.1421 102.685 33.1421C102.685 33.1421 93.4319 41.9912 96.7723 56.9026C98.7453 65.6997 96.5965 69.6717 94.5714 73.9433C94.4672 74.1712 94.4216 74.2688 94.3435 74.4251C94.3174 74.4772 94.2653 74.5749 94.2393 74.653C94.1872 74.7767 94.1351 74.933 94.0635 75.1088C93.5295 76.626 92.8002 79.7125 93.0542 84.5375C93.23 87.4221 93.7639 90.9318 94.923 95.1317C95.6067 97.6843 96.5378 100.439 97.7555 103.473C99.9564 108.982 101.929 112.524 103.746 114.725C103.824 114.829 103.922 114.927 104 115.031C104.912 116.04 106.253 116.424 107.542 116.144C108.024 116.092 108.48 115.917 108.91 115.637C114.445 112.12 126.354 105.654 140.51 104.567C140.738 104.541 140.94 104.541 141.168 104.515C151.534 103.831 158.254 104.971 162.656 106.488C164.147 106.996 165.358 107.549 166.374 108.083L166.361 108.07ZM136.61 126.472C144.424 128.113 148.415 126.524 153.019 123.945C156.633 121.92 159.843 116.691 159.993 115.024C160.045 114.315 159.133 113.683 158.195 113.963C151.625 115.988 141.109 118.664 129.148 116.392C121.49 114.927 127.253 124.505 136.603 126.478L136.61 126.472ZM149.652 186.794C149.809 187.068 149.978 187.315 150.134 187.595C150.414 188.051 150.642 188.507 150.889 188.963C151.241 189.646 151.599 190.33 151.925 191.007C152.784 192.726 153.566 194.367 154.249 195.884C154.881 197.252 155.643 198.867 156.17 199.85C168.731 191.053 179.273 173.609 182.386 164.916C182.562 164.46 182.692 164.056 182.815 163.652C182.666 163.275 182.06 162.135 179.683 159.479C179.456 159.225 179.228 158.971 178.974 158.697C177.606 157.206 175.816 155.363 173.413 153.013C172.983 153.67 172.553 154.328 172.098 154.96C171.388 155.995 170.685 156.985 169.897 157.942C162.539 167.449 153.618 173.739 147.829 175.686C147.197 176.22 143.903 184.893 143.903 189.171C143.903 189.171 147.966 188.201 149.646 186.788L149.652 186.794ZM132.188 176.754C133.582 182.744 134.461 186.918 134.715 189.419C136.46 189.523 138.231 189.523 139.97 189.419C140.347 184.314 142.926 173.439 146.416 172.202C150.994 170.633 159.661 165.02 166.992 155.494C163.984 152.563 162.265 149.477 161.354 145.915C156.222 148.949 150.004 151.124 142.522 151.958C132.208 153.097 121.288 150.265 112.087 145.713C108.955 144.144 105.895 141.995 103.036 139.521C101.851 142.125 100.334 144.652 98.4327 147.003C107.458 160.175 121.236 168.263 127.708 170.815C129.121 171.369 131.401 172.99 131.804 175.087L132.182 176.754H132.188ZM87.3761 160.696C89.1733 165.02 91.3091 169.207 93.6923 173.244C98.2439 180.98 104.918 190.18 114.321 198.47C114.497 198.04 114.725 197.506 114.9 197.004C115.61 195.233 116.593 192.759 118.234 189.874C118.612 189.243 120.005 187.016 120.259 186.56C120.292 186.508 120.324 186.449 120.357 186.391C121.62 186.794 125.762 188.878 130.6 189.49C130.554 189.321 128.301 176.949 128.373 176.975L128.119 175.862C128.041 175.536 127.181 174.696 126.322 174.344C119.569 171.662 105.394 163.346 95.8346 149.9C95.0793 148.865 94.3695 147.829 93.7118 146.716C93.5621 146.514 93.4318 146.312 93.3081 146.084C91.9147 147.348 90.6514 148.865 89.5184 150.356C88.2552 152.049 86.6403 153.755 86.1845 155.884C85.8199 157.59 86.738 159.146 87.3761 160.69V160.696Z" fill="#264432"/>
<path d="M123.821 66.2075C119.016 65.628 114.243 65.068 106.963 68.0047C100.008 70.7851 100.236 67.9786 104.104 64.4429C107.894 60.9527 111.99 58.9797 119.068 59.4876C122.356 59.7416 126.12 61.3304 126.882 62.802C127.741 64.3973 127.285 66.6177 123.821 66.214V66.2075Z" fill="#264432"/>
<path d="M164.186 61.7081C157.616 60.217 153.748 61.656 149.854 63.1471C148.213 63.7527 147.25 63.2709 146.846 62.4113C146.54 61.8318 146.52 61.0439 146.696 60.3407C147.074 58.7714 149.932 56.4989 152.609 55.6394C158.423 53.7966 162.187 54.9817 165.931 57.6644C167.754 58.9798 168.861 60.2691 168.861 61.1286C168.861 61.2067 168.861 61.2783 168.835 61.3565C168.633 62.1118 167.24 62.4179 164.186 61.7081Z" fill="#264432"/>
<path d="M161.08 71.9247C163.105 71.775 164.87 73.6177 165.052 76.0465C165.228 78.4753 163.737 80.572 161.718 80.6957C159.693 80.8455 157.902 79.0027 157.727 76.5739C157.551 74.1451 159.068 72.0484 161.087 71.9247H161.08Z" fill="#264432"/>
<path d="M116.535 76.4697C118.631 76.32 120.507 78.2409 120.683 80.7673C120.858 83.2938 119.289 85.4687 117.192 85.6184C115.096 85.7682 113.246 83.8473 113.045 81.3208C112.869 78.7944 114.438 76.6195 116.535 76.4697Z" fill="#264432"/>
<path d="M148.291 81.8547C148.467 82.0826 148.669 82.3366 148.897 82.6101C149.783 83.6975 151.02 85.1886 151.599 87.1616C151.651 87.3114 151.703 87.4677 151.749 87.6435C152.127 88.9588 152.127 90.3718 151.827 91.6611C151.827 91.7132 151.801 91.7392 151.801 91.7848C151.449 93.2499 150.616 94.6434 149.503 95.7308C147.477 97.6777 145.179 98.4591 143.382 98.9149C141.917 99.2665 140.451 99.4489 138.986 99.4489C138.433 99.4489 137.873 99.4228 137.319 99.3707C136.258 99.2665 135.496 98.3354 135.6 97.3001C135.679 96.2647 136.636 95.4768 137.645 95.581C139.26 95.7308 140.881 95.6071 142.451 95.2294C143.864 94.8778 145.485 94.3438 146.872 93.0025C147.477 92.3969 147.933 91.635 148.135 90.8536L148.213 90.5476C148.317 89.8639 148.265 89.0825 148.011 88.3207C147.81 87.637 147.458 87.0053 147.074 86.4519C146.722 85.9179 146.318 85.4686 145.96 85.0128C145.68 84.6872 145.426 84.3812 145.224 84.0752C143.304 81.4185 142.014 78.0846 141.357 74.1907C140.751 70.8307 140.647 67.2168 141.005 63.4467C141.109 62.4113 142.04 61.6234 143.076 61.7537C143.681 61.8058 144.189 62.1574 144.489 62.6392C144.717 62.9648 144.814 63.3946 144.769 63.8243C144.443 67.2364 144.541 70.4986 145.094 73.5591C145.648 76.8474 146.735 79.6994 148.278 81.8482L148.291 81.8547Z" fill="#264432"/>
</svg>
