<svg width="198" height="64" viewBox="0 0 198 64" fill="none" xmlns="http://www.w3.org/2000/svg">
<path d="M93.6804 30.0434C95.4421 30.8683 96.8543 31.4555 98.1895 32.1756C103.929 35.2726 106.614 40.1522 106.621 46.5909C106.628 52.8757 103.901 57.8323 98.2315 60.2931C93.946 62.1526 89.1293 63.2432 84.4594 63.6557C78.0836 64.215 71.624 63.8375 65.2064 63.7745C64.8428 63.7745 64.4723 63.6487 64.1088 63.4949C63.4796 63.2223 63.2559 62.4393 63.6614 61.887C63.962 61.4745 64.2836 61.111 64.6751 60.9782C67.6322 59.9785 68.7228 58.1189 68.7018 55.0219C68.597 39.7188 68.59 24.4087 68.7018 9.10556C68.7298 5.90372 67.6881 3.90432 64.5842 2.89763C63.8921 2.67392 63.4307 1.75811 62.8574 1.15689C63.5705 0.793362 64.2836 0.115243 65.0036 0.108252C71.8338 0.0313518 78.6709 -0.0944848 85.494 0.115243C96.5117 0.457798 103.733 8.21072 102.908 18.4944C102.447 24.192 99.0214 27.6315 93.6734 30.0504L93.6804 30.0434ZM77.4405 29.9385C77.4405 39.0616 77.3636 48.793 77.6222 56.9654C77.6572 58.1049 79.5727 60.1183 80.6213 60.1183C84.2986 60.1183 88.3323 60.2371 91.5691 58.811C96.9032 56.462 97.1129 51.0651 96.9801 45.9617C96.8403 40.8933 95.9594 35.8738 90.5205 33.9723C86.5217 32.5741 81.5162 33.392 77.4475 29.9315L77.4405 29.9385ZM77.4055 17.0822H77.3985C77.3985 19.508 77.3985 21.9409 77.3985 24.3667C77.3985 29.2604 79.4748 28.9178 82.7326 29.526C87.6682 30.4488 92.2053 26.9534 92.7506 22.1926C93.226 18.012 92.8694 13.5028 91.7719 9.43414C90.5415 4.86907 86.4238 2.94656 81.691 3.4569C78.9505 3.75052 77.4125 5.14171 77.4055 7.97303C77.4055 11.0071 77.4055 14.0481 77.4055 17.0822Z" fill="white"/>
<path d="M195.147 25.3175C197.034 31.819 198.216 38.6631 197.02 45.724C194.196 62.3763 176.369 69.3393 163.058 58.9088C154.494 52.1976 150.461 42.7808 148.608 32.4622C147.776 27.8342 147.497 22.8637 148.224 18.2357C150.873 1.40155 169.015 -5.40061 182.395 5.19063C188.897 10.3429 192.665 17.2779 195.147 25.3175ZM157.116 29.2953L157.137 29.3722C158.158 33.5108 159.556 37.5586 161.304 41.4455C162.541 44.193 164.009 46.8146 165.498 49.4292C167.833 53.5188 171.077 56.9654 175.572 58.9088C181.417 61.4326 186.611 59.1535 188.289 53.0644C189.016 50.4219 189.323 47.5486 189.197 44.8082C188.743 35.0069 185.954 25.8068 181.382 17.1521C178.886 12.4332 175.859 8.11982 171.105 5.37938C165.449 2.11463 159.731 4.06509 157.445 10.1821C156.592 12.4682 156.256 15.0618 156.144 17.4597C155.963 21.4235 156.179 25.4363 157.116 29.2953Z" fill="white"/>
<path d="M23.0652 40.5018C23.0652 40.5018 23.0302 40.5158 23.0302 40.5298C21.5132 45.8079 20.0171 50.8763 18.626 55.9657C18.0177 58.2028 18.9965 59.7478 21.1776 60.5028C22.3451 60.9083 23.6664 60.8734 24.5892 61.8031C24.736 61.95 24.8758 62.1247 24.9388 62.3275C25.0436 62.67 24.9178 63.0615 24.6661 63.3202C24.4144 63.5788 24.0649 63.7257 23.7153 63.7816C22.457 63.9913 21.0378 63.8305 19.7655 63.8445C18.3463 63.8515 16.9202 63.8585 15.501 63.8585C12.7955 63.8585 10.0831 63.8445 7.37757 63.8585C7.32164 63.8585 7.25872 63.8585 7.2028 63.8375C7.11891 63.8095 7.05599 63.7536 7.00006 63.6837C6.8183 63.446 6.79732 63.1104 6.88121 62.8238C6.96511 62.5372 7.14687 62.2855 7.33562 62.0478C7.55234 61.7752 7.79003 61.5165 8.07666 61.3278C8.81071 60.8524 9.86634 60.8244 10.6773 60.4329C11.4113 60.0764 12.0825 59.594 12.6487 59.0068C13.8092 57.7904 14.4873 56.2034 14.9767 54.6095C18.2834 43.7736 21.646 32.9586 25.0157 22.1437C26.1622 18.4664 27.3087 14.7892 28.4552 11.112C29.4898 7.79831 30.105 3.86242 32.2513 1.08003C32.5029 0.751461 32.7965 0.401915 33.202 0.318024C33.7263 0.21316 34.2227 0.604652 34.5722 1.00313C36.1522 2.7998 36.6066 5.5682 37.3267 7.78432C38.1935 10.4618 39.0534 13.1394 39.9063 15.8169C41.6121 21.1719 43.2969 26.541 45.0027 31.896C47.4425 39.579 49.9662 47.2411 52.3012 54.959C53.2799 58.1888 54.9647 60.349 58.4602 61.0132C58.7748 61.0761 59.0614 61.3068 59.3341 61.5934C59.9143 62.2156 59.7046 63.2223 58.9146 63.5509C58.649 63.6627 58.3763 63.7396 58.1106 63.7466C51.9307 63.8165 45.7437 63.8305 39.5638 63.7746C38.634 63.7676 37.5643 63.9004 36.7045 63.453C36.3969 63.2922 36.1312 63.0266 36.0613 62.698C35.9704 62.2855 36.1871 61.8591 36.5017 61.5794C37.2917 60.8873 38.5431 60.7755 39.5148 60.4609C40.1929 60.2442 40.892 59.9995 41.4863 59.608C42.4929 58.9369 42.6957 57.9162 42.5629 56.7627C42.437 55.6931 42.1224 54.6514 41.8288 53.6168C40.7872 49.9885 39.6756 46.3742 38.7318 42.7249C38.3124 41.0961 36.8233 34.7902 35.0057 34.8462C30.8181 34.986 27.4135 40.4739 23.0862 40.4948L23.0652 40.5018ZM34.9707 29.2674C32.8734 21.9479 32.8245 22.3534 30.881 15.5862C30.8601 15.5163 30.8181 15.4464 30.7552 15.4044C30.4895 15.1947 30.4546 15.2017 30.2169 15.4254C30.1819 15.4604 30.154 15.5023 30.14 15.5512C28.1406 22.5911 26.1412 29.6309 24.0719 36.9155C24.0649 36.9434 24.0859 36.9644 24.1068 36.9644C28.3993 36.9015 30.4406 29.3793 34.9288 29.3233C34.9567 29.3233 34.9707 29.2954 34.9637 29.2744L34.9707 29.2674Z" fill="white"/>
<path d="M150.139 48.779C150.265 48.8349 150.377 48.9328 150.447 49.0586C150.559 49.2543 150.559 49.492 150.559 49.7227C150.559 53.7145 150.615 57.7064 150.531 61.6982C150.482 63.9982 148.636 64.0122 146.965 63.9982C140.946 63.9423 134.934 63.8024 128.915 63.8024C125.783 63.8024 122.658 63.8584 119.526 63.9003C117.96 63.9213 116.394 63.9423 114.835 63.9492C113.388 63.9562 111.955 64.124 110.613 63.5158C110.277 63.362 109.899 63.1523 109.851 62.7818C109.816 62.5091 109.983 62.2574 110.165 62.0477C111.2 60.8593 112.871 60.6425 113.94 59.4611C114.898 58.3985 115.206 56.9793 115.199 55.5811C115.115 39.9634 115.108 24.3457 115.199 8.73498C115.206 7.30883 114.884 5.8757 113.905 4.7991C112.822 3.61064 111.109 3.33799 110.151 2.03069C109.927 1.72309 109.739 1.33859 110.06 0.968073C110.179 0.828254 110.34 0.730381 110.515 0.667463C110.99 0.49269 111.556 0.324908 112.067 0.310926C117.051 0.234026 122.043 0.220044 127.027 0.324908C127.642 0.33889 128.425 0.583572 128.88 1.00303C129.041 1.14984 129.173 1.34558 129.194 1.5623C129.222 1.88388 128.999 2.1775 128.761 2.40121C128.188 2.92553 127.496 3.20517 126.811 3.54073C126.174 3.85532 125.573 4.29575 125.105 4.83405C124.189 5.88269 123.874 7.2599 123.874 8.62313C123.93 24.3387 123.881 40.0613 123.916 55.7769C123.923 59.0276 125.175 60.5097 128.474 60.6216C131.921 60.7404 135.416 60.6006 138.828 60.1042C143.281 59.4541 146.518 56.3851 147.664 52.0647C147.958 50.9531 148.419 49.9534 149.195 49.0866C149.307 48.9607 149.426 48.8349 149.58 48.765C149.762 48.6811 149.971 48.6951 150.153 48.779H150.139Z" fill="white"/>
<path d="M176.467 32.0219C177.04 33.9654 177.502 35.9858 177.537 37.9782C177.628 42.6761 174.67 44.0043 171.895 40.4949C170.112 38.2368 169.05 35.3636 168.344 32.3225C168.029 30.9593 167.798 29.5122 167.763 28.2049C167.638 23.451 170.658 22.1787 173.447 25.7371C174.803 27.4708 175.733 29.61 176.467 32.0219Z" fill="white"/>
<path d="M7.08405 0.303955L4.1199 10.1122L4.30865 10.238C4.72112 9.71373 5.07765 9.12649 5.56003 8.66509C6.44088 7.81919 7.30775 6.89639 8.34241 6.29517C9.81749 5.43529 11.2436 6.26022 11.5512 7.94503C12.1944 11.4615 9.57281 16.5928 6.34301 18.1448C4.67218 18.9487 2.97339 18.8229 1.26061 18.2776C0.100119 17.9141 -0.228454 17.222 0.149056 16.0405C1.40043 12.1186 2.56791 8.17573 3.80531 4.25382C4.09193 3.33801 4.30865 2.51308 2.93843 1.84196L7.08405 0.303955ZM9.43999 8.80491C9.32114 8.51129 9.1953 7.5815 8.83178 7.47664C8.32843 7.32983 7.62934 7.75627 7.04909 8.02193C6.76246 8.15476 6.54575 8.46935 6.32204 8.72801C4.39254 10.9931 3.13418 13.6356 2.25332 16.446C2.14147 16.8025 2.5749 17.5505 2.9594 17.7952C3.98008 18.4454 5.26641 18.0539 6.32204 16.8165C8.1956 14.6144 9.08345 11.9858 9.43999 8.80491Z" fill="white"/>
<path d="M12.1806 9.50405C12.9426 8.2387 13.6836 6.9244 15.0538 6.16239C15.9976 5.63807 16.8225 6.01558 17.1231 7.28793C17.5985 9.30831 17.8642 11.3776 18.1928 13.426C18.3116 14.174 18.3535 14.943 18.5703 15.7469C19.8426 13.9223 21.066 12.0767 21.1359 9.76971C21.1499 9.25238 20.7374 8.67213 20.4089 8.20374C19.9335 7.53261 19.6888 6.9244 20.4089 6.3092C21.073 5.74294 22.2405 5.8478 22.625 6.65176C22.9116 7.25298 23.1004 8.11286 22.8907 8.6931C22.2055 10.5527 21.5414 12.4962 20.4438 14.1181C18.6681 16.7466 16.6548 19.2284 14.5435 21.5983C13.7116 22.5281 12.4113 23.1154 11.2228 23.6187C10.8173 23.7865 9.79666 23.3531 9.60092 22.9406C9.39818 22.4932 9.67083 21.5983 10.0553 21.1999C10.279 20.9622 11.1179 21.3467 11.6772 21.3886C12.3344 21.4445 13.1733 21.6962 13.6277 21.3886C14.6693 20.6895 15.5432 19.7318 16.438 18.8299C16.6408 18.6272 16.7386 18.2008 16.6967 17.9071C16.3052 14.922 15.8997 11.9299 15.4313 8.95876C15.3614 8.50435 14.963 8.10587 14.7113 7.68641C14.3268 7.97304 13.9003 8.22471 13.5578 8.56727C13.1873 8.93779 12.9006 9.38521 12.579 9.80466L12.1806 9.50405Z" fill="white"/>
</svg>
