<svg viewBox="0 0 173 64" fill="none" xmlns="http://www.w3.org/2000/svg">
<path d="M81.9701 30.0433C83.5116 30.8683 84.7472 31.4555 85.9156 32.1756C90.9377 35.2725 93.2866 40.1522 93.2928 46.5908C93.2989 52.8757 90.9132 57.8322 85.9523 60.293C82.2025 62.1526 77.9879 63.2432 73.9017 63.6557C68.3229 64.2149 62.6708 63.8374 57.0553 63.7745C56.7372 63.7745 56.413 63.6487 56.095 63.4949C55.5444 63.2222 55.3487 62.4392 55.7035 61.887C55.9665 61.4745 56.2479 61.111 56.5904 60.9781C59.1779 59.9784 60.1322 58.1189 60.1139 55.0219C60.0221 39.7188 60.016 24.4086 60.1139 9.10553C60.1383 5.90369 59.2269 3.90429 56.5109 2.8976C55.9053 2.67389 55.5016 1.75808 55 1.15686C55.6239 0.793331 56.2479 0.115212 56.8779 0.108221C62.8543 0.0313212 68.8368 -0.0945153 74.807 0.115212C84.4475 0.457767 90.7664 8.21069 90.0446 18.4943C89.6409 24.1919 86.6435 27.6315 81.964 30.0503L81.9701 30.0433ZM67.7602 29.9385C67.7602 39.0616 67.6929 48.793 67.9192 56.9654C67.9498 58.1049 69.6259 60.1183 70.5434 60.1183C73.761 60.1183 77.2905 60.2371 80.1227 58.811C84.7901 56.462 84.9736 51.065 84.8573 45.9617C84.735 40.8932 83.9642 35.8738 79.2052 33.9722C75.7062 32.574 71.3264 33.392 67.7663 29.9315L67.7602 29.9385ZM67.7296 17.0822H67.7235C67.7235 19.508 67.7235 21.9409 67.7235 24.3667C67.7235 29.2603 69.5402 28.9178 72.3908 29.526C76.7094 30.4488 80.6794 26.9533 81.1565 22.1925C81.5725 18.012 81.2605 13.5028 80.3001 9.4341C79.2235 4.86904 75.6206 2.94653 71.4793 3.45687C69.0815 3.75049 67.7357 5.14168 67.7296 7.973C67.7296 11.0071 67.7296 14.0481 67.7296 17.0822Z" fill="#444C3D"/>
<path d="M170.753 25.3175C172.405 31.819 173.439 38.6631 172.393 45.724C169.922 62.3763 154.323 69.3393 142.676 58.9088C135.183 52.1976 131.653 42.7808 130.032 32.4622C129.304 27.8342 129.06 22.8637 129.696 18.2357C132.014 1.40155 147.888 -5.40061 159.596 5.19063C165.285 10.3429 168.582 17.2779 170.753 25.3175ZM137.477 29.2953L137.495 29.3722C138.388 33.5108 139.612 37.5586 141.141 41.4455C142.224 44.193 143.508 46.8146 144.811 49.4292C146.854 53.5188 149.692 56.9654 153.626 58.9088C158.74 61.4326 163.285 59.1535 164.753 53.0644C165.389 50.4219 165.658 47.5486 165.548 44.8082C165.15 35.0069 162.709 25.8068 158.709 17.1521C156.525 12.4332 153.876 8.11982 149.717 5.37938C144.768 2.11463 139.764 4.06509 137.764 10.1821C137.018 12.4682 136.724 15.0618 136.626 17.4597C136.467 21.4235 136.657 25.4363 137.477 29.2953Z" fill="#444C3D"/>
<path d="M20.1823 40.5018C20.1823 40.5018 20.1517 40.5158 20.1517 40.5298C18.8243 45.8079 17.5152 50.8763 16.298 55.9657C15.7658 58.2028 16.6222 59.7478 18.5307 60.5028C19.5522 60.9083 20.7083 60.8733 21.5158 61.8031C21.6443 61.9499 21.7666 62.1247 21.8217 62.3274C21.9134 62.67 21.8033 63.0615 21.5831 63.3201C21.3629 63.5788 21.057 63.7256 20.7512 63.7815C19.6501 63.9913 18.4083 63.8305 17.295 63.8445C16.0533 63.8514 14.8054 63.8584 13.5636 63.8584C11.1963 63.8584 8.82292 63.8445 6.45562 63.8584C6.40668 63.8584 6.35163 63.8584 6.30269 63.8375C6.22929 63.8095 6.17423 63.7536 6.1253 63.6837C5.96625 63.446 5.9479 63.1104 6.02131 62.8238C6.09471 62.5372 6.25375 62.2855 6.41891 62.0478C6.60854 61.7751 6.81652 61.5165 7.06732 61.3277C7.70961 60.8523 8.63329 60.8244 9.34287 60.4329C9.98516 60.0764 10.5724 59.594 11.0679 59.0067C12.0833 57.7903 12.6767 56.2034 13.1049 54.6095C15.9982 43.7735 18.9405 32.9586 21.8889 22.1436C22.8921 18.4664 23.8953 14.7892 24.8985 11.112C25.8039 7.79827 26.3422 3.86239 28.2201 1.08C28.4403 0.751431 28.6972 0.401885 29.052 0.317994C29.5108 0.21313 29.9451 0.604621 30.2509 1.0031C31.6334 2.79977 32.031 5.56817 32.6611 7.78429C33.4196 10.4618 34.172 13.1393 34.9183 15.8169C36.4108 21.1719 37.885 26.5409 39.3776 31.896C41.5124 39.579 43.7207 47.241 45.7638 54.959C46.6202 58.1888 48.0944 60.349 51.1529 61.0131C51.4282 61.0761 51.679 61.3068 51.9175 61.5934C52.4253 62.2156 52.2417 63.2223 51.5505 63.5508C51.3181 63.6627 51.0795 63.7396 50.8471 63.7466C45.4396 63.8165 40.026 63.8305 34.6185 63.7745C33.805 63.7676 32.869 63.9004 32.1166 63.453C31.8475 63.2922 31.6151 63.0265 31.5539 62.6979C31.4744 62.2855 31.664 61.859 31.9393 61.5794C32.6305 60.8873 33.7254 60.7754 34.5757 60.4609C35.1691 60.2441 35.7808 59.9995 36.3007 59.608C37.1816 58.9368 37.359 57.9162 37.2427 56.7627C37.1326 55.6931 36.8574 54.6514 36.6004 53.6167C35.689 49.9885 34.7164 46.3742 33.8906 42.7249C33.5236 41.096 32.2206 34.7902 30.6302 34.8461C26.9661 34.986 23.9871 40.4738 20.2006 40.4948L20.1823 40.5018ZM30.5996 29.2674C28.7645 21.9479 28.7217 22.3534 27.0211 15.5862C27.0028 15.5162 26.9661 15.4463 26.911 15.4044C26.6786 15.1947 26.648 15.2017 26.44 15.4254C26.4094 15.4603 26.385 15.5023 26.3727 15.5512C24.6233 22.5911 22.8738 29.6309 21.0631 36.9154C21.057 36.9434 21.0754 36.9644 21.0937 36.9644C24.8496 36.9015 26.6358 29.3792 30.5629 29.3233C30.5874 29.3233 30.5996 29.2953 30.5935 29.2744L30.5996 29.2674Z" fill="#444C3D"/>
<path d="M131.371 48.779C131.481 48.8349 131.579 48.9328 131.641 49.0586C131.738 49.2544 131.738 49.4921 131.738 49.7228C131.738 53.7146 131.787 57.7064 131.714 61.6982C131.671 63.9982 130.056 64.0122 128.594 63.9982C123.327 63.9423 118.067 63.8025 112.8 63.8025C110.06 63.8025 107.325 63.8584 104.585 63.9003C103.215 63.9213 101.844 63.9423 100.48 63.9493C99.214 63.9563 97.96 64.1241 96.7856 63.5158C96.4919 63.362 96.1616 63.1523 96.1188 62.7818C96.0882 62.5092 96.235 62.2575 96.3941 62.0477C97.2994 60.8593 98.7614 60.6426 99.6973 59.4611C100.535 58.3985 100.804 56.9793 100.798 55.5812C100.725 39.9634 100.719 24.3457 100.798 8.73501C100.804 7.30887 100.523 5.87573 99.6667 4.79913C98.7186 3.61067 97.2199 3.33802 96.3818 2.03072C96.1861 1.72312 96.0209 1.33862 96.3023 0.968103C96.4063 0.828285 96.547 0.730412 96.6999 0.667494C97.1159 0.492721 97.6114 0.324939 98.0579 0.310957C102.419 0.234057 106.787 0.220075 111.148 0.324939C111.687 0.338921 112.372 0.583603 112.769 1.00306C112.91 1.14987 113.026 1.34561 113.045 1.56233C113.069 1.88391 112.873 2.17753 112.665 2.40124C112.164 2.92556 111.558 3.2052 110.959 3.54076C110.402 3.85535 109.876 4.29578 109.466 4.83408C108.665 5.88272 108.39 7.25993 108.39 8.62316C108.439 24.3387 108.396 40.0613 108.426 55.7769C108.432 59.0277 109.527 60.5098 112.415 60.6216C115.43 60.7405 118.489 60.6006 121.474 60.1043C125.371 59.4541 128.203 56.3851 129.206 52.0647C129.463 50.9532 129.867 49.9535 130.546 49.0866C130.643 48.9608 130.747 48.8349 130.882 48.765C131.041 48.6811 131.225 48.6951 131.384 48.779H131.371Z" fill="#444C3D"/>
<path d="M154.409 32.0217C154.911 33.9652 155.314 35.9856 155.345 37.978C155.425 42.6759 152.837 44.0042 150.409 40.4947C148.849 38.2367 147.919 35.3634 147.301 32.3223C147.026 30.9591 146.824 29.512 146.793 28.2047C146.683 23.4509 149.326 22.1785 151.767 25.7369C152.953 27.4706 153.767 29.6099 154.409 32.0217Z" fill="#DB9995"/>
<path d="M6.19854 0.303955L3.60491 10.1122L3.77007 10.238C4.13098 9.71373 4.44295 9.12649 4.86502 8.66509C5.63577 7.81919 6.39429 6.89639 7.29961 6.29517C8.59031 5.43529 9.83819 6.26022 10.1073 7.94503C10.6701 11.4615 8.37621 16.5928 5.55013 18.1448C4.08816 18.9487 2.60171 18.8229 1.10303 18.2776C0.0876043 17.9141 -0.199897 17.222 0.130424 16.0405C1.22538 12.1186 2.24692 8.17573 3.32964 4.25382C3.58044 3.33801 3.77007 2.51308 2.57113 1.84196L6.19854 0.303955ZM8.25999 8.80491C8.156 8.51129 8.04589 7.5815 7.7278 7.47664C7.28738 7.32983 6.67567 7.75627 6.16795 8.02193C5.91716 8.15476 5.72753 8.46935 5.53178 8.72801C3.84347 10.9931 2.7424 13.6356 1.97166 16.446C1.87378 16.8025 2.25304 17.5505 2.58948 17.7952C3.48257 18.4454 4.60811 18.0539 5.53178 16.8165C7.17115 14.6144 7.94802 11.9858 8.25999 8.80491Z" fill="#444C3D"/>
<path d="M10.6582 9.50405C11.3249 8.2387 11.9733 6.9244 13.1723 6.16239C13.9981 5.63807 14.7199 6.01558 14.9829 7.28793C15.3989 9.30831 15.6313 11.3776 15.9188 13.426C16.0228 14.174 16.0595 14.943 16.2492 15.7469C17.3625 13.9223 18.4329 12.0767 18.4941 9.76971C18.5063 9.25238 18.1454 8.67213 17.8579 8.20374C17.442 7.53261 17.2279 6.9244 17.8579 6.3092C18.4391 5.74294 19.4606 5.8478 19.797 6.65176C20.0478 7.25298 20.213 8.11286 20.0295 8.6931C19.43 10.5527 18.8489 12.4962 17.8885 14.1181C16.3348 16.7466 14.5731 19.2284 12.7257 21.5983C11.9978 22.5281 10.86 23.1154 9.82013 23.6187C9.46534 23.7865 8.57225 23.3531 8.40098 22.9406C8.22358 22.4932 8.46215 21.5983 8.79858 21.1999C8.99433 20.9622 9.72838 21.3467 10.2177 21.3886C10.7927 21.4445 11.5268 21.6962 11.9244 21.3886C12.8358 20.6895 13.6005 19.7318 14.3835 18.8299C14.5608 18.6272 14.6465 18.2008 14.6098 17.9071C14.2672 14.922 13.9124 11.9299 13.5026 8.95876C13.4414 8.50435 13.0928 8.10587 12.8725 7.68641C12.5361 7.97304 12.163 8.22471 11.8632 8.56727C11.539 8.93779 11.2882 9.38521 11.0068 9.80466L10.6582 9.50405Z" fill="#444C3D"/>
</svg>
