<svg width="198" height="64" viewBox="0 0 198 64" fill="none" xmlns="http://www.w3.org/2000/svg"><path d="M93.68 30.043c1.762.825 3.174 1.413 4.51 2.133 5.739 3.097 8.424 7.976 8.431 14.415.007 6.285-2.72 11.241-8.39 13.702-4.285 1.86-9.102 2.95-13.772 3.363-6.375.559-12.835.181-19.253.119-.363 0-.734-.126-1.097-.28a1.067 1.067 0 01-.448-1.608c.301-.413.623-.776 1.014-.909 2.957-1 4.048-2.86 4.027-5.956a3244.593 3244.593 0 010-45.916c.028-3.202-1.014-5.202-4.118-6.208-.692-.224-1.153-1.14-1.727-1.741.714-.364 1.427-1.042 2.147-1.049 6.83-.077 13.667-.202 20.49.007 11.018.343 18.239 8.096 17.414 18.38-.461 5.697-3.887 9.136-9.235 11.555l.007-.007zm-16.24-.104c0 9.123-.076 18.854.182 27.026.035 1.14 1.95 3.153 3 3.153 3.677 0 7.71.12 10.947-1.307 5.334-2.349 5.544-7.746 5.411-12.85-.14-5.068-1.02-10.087-6.46-11.989-3.998-1.398-9.004-.58-13.072-4.04l-.007.007zm-.034-12.857h-.008v7.285c0 4.893 2.077 4.55 5.335 5.159 4.935.923 9.472-2.573 10.018-7.333.475-4.181.118-8.69-.98-12.759-1.23-4.565-5.347-6.487-10.08-5.977-2.74.294-4.279 1.685-4.285 4.516v9.11zm117.741 8.235c1.887 6.502 3.069 13.346 1.873 20.407-2.824 16.652-20.651 23.615-33.962 13.185-8.564-6.711-12.597-16.128-14.45-26.447-.832-4.628-1.111-9.598-.384-14.226 2.649-16.834 20.791-23.637 34.171-13.045 6.502 5.152 10.27 12.087 12.752 20.127zm-38.031 3.978l.021.077a70.823 70.823 0 004.167 12.074c1.237 2.747 2.705 5.369 4.194 7.983 2.335 4.09 5.579 7.536 10.074 9.48 5.845 2.524 11.039.245 12.717-5.845a26.945 26.945 0 00.908-8.256c-.454-9.801-3.243-19.001-7.815-27.656-2.496-4.719-5.523-9.032-10.277-11.773-5.656-3.264-11.374-1.314-13.66 4.803-.853 2.286-1.189 4.88-1.301 7.278-.181 3.963.035 7.976.972 11.835zM23.065 40.502s-.035.014-.035.028c-1.517 5.278-3.013 10.346-4.404 15.436-.608 2.237.37 3.782 2.552 4.537 1.167.405 2.488.37 3.411 1.3.147.147.287.322.35.525.105.342-.021.733-.273.992s-.601.406-.95.462c-1.259.21-2.678.049-3.95.063-1.42.007-2.846.014-4.265.014-2.705 0-5.418-.015-8.123 0-.056 0-.12 0-.175-.022A.439.439 0 017 63.684c-.182-.238-.203-.574-.119-.86.084-.287.266-.538.455-.776.216-.273.454-.532.74-.72.735-.476 1.79-.504 2.601-.895a6.971 6.971 0 001.972-1.426c1.16-1.217 1.838-2.804 2.328-4.398 3.306-10.835 6.669-21.65 10.039-32.465l3.44-11.032c1.034-3.314 1.649-7.25 3.795-10.032.252-.329.546-.678.951-.762.524-.105 1.02.287 1.37.685 1.58 1.797 2.035 4.565 2.755 6.781.867 2.678 1.726 5.355 2.58 8.033 1.705 5.355 3.39 10.724 5.096 16.079 2.44 7.683 4.963 15.345 7.298 23.063.979 3.23 2.664 5.39 6.16 6.054.314.063.6.294.873.58.58.623.37 1.63-.42 1.958a2.259 2.259 0 01-.803.196c-6.18.07-12.367.084-18.547.028-.93-.007-2 .125-2.86-.322-.307-.16-.573-.426-.643-.755-.09-.413.126-.839.44-1.119.79-.692 2.042-.803 3.014-1.118.678-.217 1.377-.462 1.971-.853 1.007-.671 1.21-1.692 1.077-2.845-.126-1.07-.44-2.112-.734-3.146-1.042-3.628-2.153-7.243-3.097-10.892-.42-1.629-1.909-7.935-3.726-7.879-4.188.14-7.593 5.628-11.92 5.649l-.02.007zm11.906-11.235c-2.098-7.32-2.146-6.914-4.09-13.68a.333.333 0 00-.126-.183c-.265-.21-.3-.202-.538.021a.293.293 0 00-.077.126l-6.068 21.364a.038.038 0 00.035.05c4.292-.064 6.334-7.586 10.822-7.642.028 0 .042-.028.035-.049l.007-.007zm115.168 19.512a.662.662 0 01.308.28c.112.195.112.433.112.664 0 3.992.056 7.983-.028 11.975-.049 2.3-1.895 2.314-3.566 2.3-6.019-.056-12.031-.196-18.05-.196-3.132 0-6.257.056-9.389.098-1.566.021-3.132.042-4.691.05-1.447.006-2.88.174-4.222-.434-.336-.154-.714-.364-.762-.734-.035-.273.132-.525.314-.734 1.035-1.189 2.706-1.406 3.775-2.587.958-1.063 1.266-2.482 1.259-3.88a4180.145 4180.145 0 010-46.846c.007-1.426-.315-2.86-1.294-3.936-1.083-1.188-2.796-1.461-3.754-2.768-.224-.308-.412-.692-.091-1.063.119-.14.28-.238.455-.3.475-.175 1.041-.343 1.552-.357 4.984-.077 9.976-.091 14.96.014.615.014 1.398.259 1.853.678.161.147.293.343.314.56.028.32-.195.615-.433.838-.573.525-1.265.804-1.95 1.14a5.501 5.501 0 00-1.706 1.293c-.916 1.049-1.231 2.426-1.231 3.79.056 15.715.007 31.437.042 47.153.007 3.25 1.259 4.733 4.558 4.845 3.447.118 6.942-.021 10.354-.518 4.453-.65 7.69-3.719 8.836-8.04.294-1.11.755-2.11 1.531-2.977.112-.126.231-.252.385-.322a.684.684 0 01.573.014h-.014z" fill="#fff"/><path d="M176.467 32.022c.573 1.943 1.035 3.964 1.07 5.956.091 4.698-2.867 6.026-5.642 2.517-1.783-2.258-2.845-5.131-3.551-8.172-.315-1.364-.546-2.81-.581-4.118-.125-4.754 2.895-6.026 5.684-2.468 1.356 1.734 2.286 3.873 3.02 6.285zM7.084.304L4.12 10.112l.189.126c.412-.524.769-1.112 1.251-1.573.88-.846 1.748-1.769 2.782-2.37 1.475-.86 2.902-.035 3.21 1.65.642 3.516-1.98 8.648-5.209 10.2-1.67.804-3.37.678-5.082.133C.1 17.914-.23 17.222.149 16.04 1.4 12.119 2.568 8.176 3.805 4.254c.287-.916.504-1.74-.867-2.412L7.084.304zm2.356 8.5c-.119-.293-.245-1.223-.608-1.327-.504-.147-1.203.28-1.783.545-.287.133-.503.447-.727.706-1.93 2.265-3.188 4.908-4.069 7.718-.112.356.322 1.104.706 1.35 1.021.65 2.307.258 3.363-.98 1.874-2.202 2.761-4.83 3.118-8.011zm2.74.7c.763-1.265 1.504-2.58 2.874-3.342.944-.524 1.769-.146 2.07 1.126.475 2.02.74 4.09 1.069 6.138.119.748.16 1.517.377 2.32 1.273-1.824 2.496-3.67 2.566-5.976.014-.518-.399-1.098-.727-1.566-.476-.671-.72-1.28 0-1.895.664-.566 1.832-.461 2.216.343.287.601.475 1.46.266 2.041-.685 1.86-1.35 3.803-2.447 5.425-1.776 2.629-3.79 5.11-5.9 7.48-.832.93-2.133 1.517-3.321 2.02-.406.169-1.426-.265-1.622-.677-.203-.448.07-1.343.454-1.741.224-.238 1.063.147 1.622.189.657.056 1.496.307 1.95 0 1.042-.7 1.916-1.657 2.811-2.56.203-.202.3-.628.259-.922A348.615 348.615 0 0015.43 8.96c-.07-.455-.468-.853-.72-1.273-.384.287-.81.539-1.153.881-.37.37-.657.818-.979 1.238l-.398-.301z" fill="#fff"/></svg>