<svg viewBox="0 0 173 64" fill="none" xmlns="http://www.w3.org/2000/svg"><path d="M81.97 30.043c1.542.825 2.777 1.413 3.946 2.133 5.022 3.096 7.37 7.976 7.377 14.415.006 6.285-2.38 11.241-7.34 13.702-3.75 1.86-7.965 2.95-12.051 3.363-5.58.559-11.231.181-16.847.119-.318 0-.642-.126-.96-.28-.55-.273-.746-1.056-.392-1.608.264-.413.545-.776.887-.909 2.588-1 3.542-2.86 3.524-5.956a3704.68 3704.68 0 010-45.916c.024-3.202-.887-5.202-3.603-6.208-.606-.224-1.01-1.14-1.511-1.741.624-.364 1.248-1.042 1.878-1.049 5.976-.077 11.959-.203 17.929.007 9.64.343 15.96 8.096 15.238 18.38-.404 5.697-3.401 9.136-8.081 11.555l.006-.007zm-14.21-.104c0 9.123-.067 18.854.16 27.026.03 1.14 1.706 3.153 2.623 3.153 3.218 0 6.747.12 9.58-1.307 4.667-2.349 4.85-7.746 4.734-12.85-.122-5.068-.893-10.087-5.652-11.989-3.499-1.398-7.879-.58-11.439-4.04l-.006.007zm-.03-12.857h-.007v7.285c0 4.893 1.817 4.55 4.668 5.159 4.318.923 8.288-2.573 8.765-7.334.416-4.18.104-8.69-.856-12.758-1.076-4.565-4.68-6.487-8.82-5.977-2.398.293-3.744 1.685-3.75 4.516v9.11zm103.023 8.235c1.652 6.502 2.686 13.346 1.64 20.407-2.471 16.652-18.07 23.615-29.717 13.185-7.493-6.711-11.023-16.128-12.644-26.447-.728-4.628-.972-9.598-.336-14.226 2.318-16.834 18.192-23.637 29.9-13.045 5.689 5.152 8.986 12.087 11.157 20.127zm-33.276 3.978l.018.077a77.912 77.912 0 003.646 12.074c1.083 2.747 2.367 5.369 3.67 7.983 2.043 4.09 4.881 7.536 8.815 9.48 5.114 2.524 9.659.245 11.127-5.845.636-2.642.905-5.515.795-8.256-.398-9.801-2.839-19.001-6.839-27.656-2.184-4.719-4.833-9.032-8.992-11.773-4.949-3.264-9.953-1.314-11.953 4.803-.746 2.286-1.04 4.88-1.138 7.278-.159 3.963.031 7.976.851 11.835zM20.182 40.502s-.03.014-.03.028c-1.328 5.278-2.637 10.346-3.854 15.436-.532 2.237.324 3.782 2.233 4.537 1.021.405 2.177.37 2.985 1.3.128.147.25.322.306.524a1.14 1.14 0 01-.239.993c-.22.259-.526.406-.832.462-1.1.21-2.343.049-3.456.063-1.242.006-2.49.013-3.731.013-2.368 0-4.741-.014-7.108 0-.05 0-.104 0-.153-.02a.394.394 0 01-.178-.154c-.159-.238-.177-.574-.104-.86.074-.287.233-.538.398-.776.19-.273.398-.532.648-.72.643-.476 1.566-.504 2.276-.895a6.203 6.203 0 001.725-1.426c1.015-1.217 1.609-2.804 2.037-4.398a6426.639 6426.639 0 018.784-32.465l3.01-11.032c.905-3.314 1.443-7.25 3.321-10.032.22-.329.477-.678.832-.762.459-.105.893.287 1.199.685 1.382 1.797 1.78 4.565 2.41 6.781.759 2.678 1.511 5.355 2.257 8.033 1.493 5.355 2.967 10.724 4.46 16.079 2.134 7.683 4.343 15.345 6.386 23.063.856 3.23 2.33 5.39 5.389 6.054.275.063.526.294.764.58.508.623.325 1.63-.367 1.958a1.776 1.776 0 01-.703.196 697.32 697.32 0 01-16.229.028c-.813-.007-1.749.125-2.501-.322-.27-.16-.502-.427-.563-.755-.08-.413.11-.839.385-1.119.691-.692 1.786-.804 2.637-1.118.593-.217 1.205-.462 1.725-.853.88-.671 1.058-1.692.942-2.845-.11-1.07-.386-2.112-.643-3.146-.911-3.628-1.884-7.243-2.71-10.892-.366-1.629-1.67-7.935-3.26-7.879-3.664.14-6.643 5.628-10.43 5.649l-.018.007zM30.6 29.267c-1.835-7.32-1.878-6.914-3.579-13.68a.336.336 0 00-.11-.183c-.232-.21-.263-.202-.471.021a.303.303 0 00-.067.126l-5.31 21.364c-.006.028.012.05.03.05 3.757-.064 5.543-7.586 9.47-7.642.024 0 .037-.028.03-.049l.007-.007zm100.771 19.512c.11.056.208.154.27.28.097.195.097.433.097.664 0 3.992.049 7.983-.024 11.975-.043 2.3-1.658 2.314-3.12 2.3-5.267-.056-10.527-.195-15.794-.195-2.74 0-5.475.055-8.215.097-1.37.021-2.741.042-4.105.05-1.266.006-2.52.174-3.694-.434-.294-.154-.624-.364-.667-.734-.03-.273.116-.524.275-.734.905-1.189 2.367-1.405 3.303-2.587.838-1.063 1.107-2.482 1.101-3.88a4812.672 4812.672 0 010-46.846c.006-1.426-.275-2.86-1.131-3.936-.948-1.188-2.447-1.461-3.285-2.768-.196-.308-.361-.692-.08-1.063a.929.929 0 01.398-.3c.416-.175.911-.343 1.358-.357 4.361-.077 8.729-.09 13.09.014.539.014 1.224.259 1.621.678a.95.95 0 01.276.56c.024.32-.172.615-.38.838-.501.525-1.107.804-1.706 1.14a4.95 4.95 0 00-1.493 1.293c-.801 1.049-1.076 2.426-1.076 3.79.049 15.715.006 31.437.036 47.153.006 3.25 1.101 4.733 3.989 4.845 3.015.118 6.074-.021 9.059-.518 3.897-.65 6.729-3.719 7.732-8.04.257-1.11.661-2.11 1.34-2.977.097-.126.201-.252.336-.322a.533.533 0 01.502.014h-.013z" fill="#E8E5DE" class="dark-element"/><path d="M154.409 32.022c.502 1.943.905 3.964.936 5.956.08 4.698-2.508 6.026-4.936 2.517-1.56-2.258-2.49-5.132-3.108-8.173-.275-1.363-.477-2.81-.508-4.117-.11-4.754 2.533-6.026 4.974-2.468 1.186 1.734 2 3.873 2.642 6.285z" fill="#DB9995"/><path d="M6.199.304l-2.594 9.808.165.126c.361-.524.673-1.112 1.095-1.573.77-.846 1.53-1.769 2.435-2.37 1.29-.86 2.538-.035 2.807 1.65.563 3.516-1.73 8.648-4.557 10.2-1.462.804-2.948.678-4.447.133C.088 17.914-.2 17.222.13 16.04c1.095-3.922 2.117-7.865 3.2-11.787.25-.916.44-1.74-.759-2.412L6.2.304zm2.061 8.5c-.104-.293-.214-1.223-.532-1.327-.44-.147-1.052.28-1.56.545-.25.133-.44.447-.636.706-1.689 2.265-2.79 4.908-3.56 7.718-.098.356.281 1.104.617 1.35.894.65 2.02.258 2.943-.98 1.64-2.202 2.416-4.83 2.728-8.011zm2.398.7c.667-1.265 1.315-2.58 2.514-3.342.826-.524 1.548-.146 1.81 1.126.417 2.02.65 4.09.937 6.138.104.748.14 1.517.33 2.32 1.114-1.824 2.184-3.67 2.245-5.976.012-.518-.349-1.098-.636-1.566-.416-.671-.63-1.28 0-1.895.581-.566 1.603-.461 1.939.343.25.601.416 1.46.232 2.041-.599 1.86-1.18 3.803-2.14 5.425-1.554 2.629-3.316 5.11-5.163 7.48-.728.93-1.866 1.517-2.906 2.02-.355.169-1.248-.265-1.419-.677-.177-.448.061-1.343.398-1.741.195-.238.93.147 1.419.189.575.056 1.309.307 1.706 0 .912-.7 1.677-1.657 2.46-2.56.177-.202.262-.628.226-.922a396.172 396.172 0 00-1.107-8.948c-.062-.455-.41-.853-.63-1.273-.337.287-.71.539-1.01.881-.324.37-.575.818-.856 1.238l-.349-.301z" fill="#E8E5DE" class="dark-element"/></svg>